G04 ================== begin FILE IDENTIFICATION RECORD ==================*
G04 Layout Name:  d:/Project/Circuit/ORCAD/BVP/04v2/pcb/BVP_04V2.brd*
G04 Film Name:    BOTTOM*
G04 File Format:  Gerber RS274X*
G04 File Origin:  Cadence Allegro 16.6-S019*
G04 Origin Date:  Tue Jan 21 10:15:28 2014*
G04 *
G04 Layer:  VIA CLASS/BOTTOM*
G04 Layer:  PIN/BOTTOM*
G04 Layer:  ETCH/BOTTOM*
G04 *
G04 Offset:    (0.000 0.000)*
G04 Mirror:    No*
G04 Mode:      Positive*
G04 Rotation:  0*
G04 FullContactRelief:  No*
G04 UndefLineWidth:     0.250*
G04 ================== end FILE IDENTIFICATION RECORD ====================*
%FSLAX34Y34*MOMM*%
%IR0*IPPOS*OFA0.00000B0.00000*MIA0B0*SFA1.00000B1.00000*%
%ADD13C,1.*%
%ADD15C,2.*%
%ADD10C,4.*%
%ADD14C,1.6*%
%ADD11C,1.55*%
%ADD12R,1.55X1.55*%
%ADD16C,.2*%
%ADD17C,.4*%
%ADD18C,.25*%
%ADD22C,2.104*%
%ADD25C,2.204*%
%ADD19O,1.504X30.714*%
%ADD23C,2.504*%
%ADD20C,2.054*%
%ADD24C,2.604*%
%ADD21C,2.154*%
G75*
%LPD*%
G75*
G36*
G01X1568000Y1039300D02*
G02X1573080Y1028930I-12614J-12608D01*
G02X1573090Y1028810I-988J-143D01*
G01X1573000Y199300D01*
G02X1568000Y189300I-12500J0D01*
G01X1433000Y54300D01*
G02X1423070Y49310I-12500J12500D01*
G02X1422930Y49300I-141J990D01*
G01X398000D01*
G02X388000Y54300I0J12500D01*
G01X353290Y89010D01*
G03X352590Y89300I-704J-710D01*
G01X38000D01*
G02X33000Y94300I0J5000D01*
G01Y921190D01*
X33400Y921720D01*
X33730Y921810D01*
G03Y966190I-6130J22190D01*
G01X33400Y966280D01*
X33000Y966810D01*
Y1365690D01*
X33400Y1366220D01*
X33730Y1366310D01*
G03Y1410690I-6130J22190D01*
G01X33400Y1410780D01*
X33000Y1411310D01*
Y1494300D01*
G02X38000Y1499300I5000J0D01*
G01X43070D01*
G02X43960Y1498750I-3J-1001D01*
G01X44890Y1496920D01*
X44850Y1496360D01*
X44680Y1496130D01*
G03X61320I8320J-6030D01*
G01X61150Y1496360D01*
X61110Y1496920D01*
X62040Y1498750D01*
G02X62930Y1499300I893J-451D01*
G01X67850D01*
G02X68740Y1498770I7J-1001D01*
G01X69700Y1496950D01*
X69660Y1496410D01*
X69510Y1496170D01*
G03X87290I8890J-6070D01*
G01X87140Y1496410D01*
X87100Y1496950D01*
X88060Y1498770D01*
G02X88950Y1499300I883J-471D01*
G01X93870D01*
G02X94760Y1498750I-3J-1001D01*
G01X95690Y1496920D01*
X95650Y1496360D01*
X95480Y1496130D01*
G03X112120I8320J-6030D01*
G01X111950Y1496360D01*
X111910Y1496920D01*
X112840Y1498750D01*
G02X113730Y1499300I893J-451D01*
G01X168000D01*
G02X173000Y1494300I0J-5000D01*
G01Y1469300D01*
G03X178000Y1464300I5000J0D01*
G01X358000D01*
G03X363000Y1469300I0J5000D01*
G01Y1609300D01*
G02X368000Y1614300I5000J0D01*
G01X378000D01*
G03X383000Y1619300I0J5000D01*
G01Y1681670D01*
G02X383270Y1682350I1000J-4D01*
G01X383670Y1682780D01*
G02X384290Y1683090I730J-685D01*
G03Y1703510I-1090J10210D01*
G02X383670Y1703820I110J995D01*
G01X383270Y1704250D01*
G02X383000Y1704930I730J684D01*
G01Y1774300D01*
G03X378000Y1779300I-5000J0D01*
G01X368000D01*
G02X363000Y1784300I0J5000D01*
G01Y2189300D01*
G02X368000Y2194300I5000J0D01*
G01X678000D01*
G02X683000Y2189300I0J-5000D01*
G01Y1484300D01*
G03X688000Y1479300I5000J0D01*
G01X1488000D01*
G02X1493000Y1474300I0J-5000D01*
G01Y1119300D01*
G03X1497950Y1109340I12495J0D01*
G01X1498000Y1109300D01*
X1568000Y1039300D01*
G37*
G36*
G01X218000Y1514300D02*
G02X213000Y1519300I0J5000D01*
G01Y1549300D01*
G03X208000Y1554300I-5000J0D01*
G01X143000D01*
G02X138000Y1559300I0J5000D01*
G01Y1574300D01*
G03X133000Y1579300I-5000J0D01*
G01X112640D01*
G02X111470Y1580100I-4J1250D01*
G01X110500Y1582650D01*
X110680Y1583400D01*
X110970Y1583660D01*
G03X96630I-7170J8040D01*
G01X96920Y1583400D01*
X97100Y1582650D01*
X96130Y1580100D01*
G02X94960Y1579300I-1166J450D01*
G01X87240D01*
G02X86070Y1580100I-4J1250D01*
G01X85100Y1582650D01*
X85280Y1583400D01*
X85570Y1583660D01*
G03X71230I-7170J8040D01*
G01X71520Y1583400D01*
X71700Y1582650D01*
X70730Y1580100D01*
G02X69560Y1579300I-1166J450D01*
G01X61840D01*
G02X60670Y1580100I-4J1250D01*
G01X59700Y1582650D01*
X59880Y1583400D01*
X60170Y1583660D01*
G03X45830I-7170J8040D01*
G01X46120Y1583400D01*
X46300Y1582650D01*
X45330Y1580100D01*
G02X44160Y1579300I-1166J450D01*
G01X38000D01*
G02X33000Y1584300I0J5000D01*
G01Y1764300D01*
G02X38000Y1769300I5000J0D01*
G01X41550D01*
X42250Y1768670D01*
X42310Y1768200D01*
G03X63690I10690J1300D01*
G01X63750Y1768670D01*
X64450Y1769300D01*
X66950D01*
X67650Y1768670D01*
X67710Y1768200D01*
G03X89090I10690J1300D01*
G01X89150Y1768670D01*
X89850Y1769300D01*
X92350D01*
X93050Y1768670D01*
X93110Y1768200D01*
G03X114490I10690J1300D01*
G01X114550Y1768670D01*
X115250Y1769300D01*
X165930D01*
G02X169460Y1767840I-1J-5000D01*
G01X216540Y1720760D01*
G03X220070Y1719300I3531J3540D01*
G01X328000D01*
G02X333000Y1714300I0J-5000D01*
G01Y1705300D01*
G02X332660Y1704440I-1250J-3D01*
G01X332150Y1703900D01*
G02X331370Y1703520I-903J864D01*
G03Y1683080I1030J-10220D01*
G02X332150Y1682700I-123J-1244D01*
G01X332660Y1682160D01*
G02X333000Y1681300I-910J-857D01*
G01Y1674300D01*
G02X328000Y1669300I-5000J0D01*
G01X293000D01*
G03X288000Y1664300I0J-5000D01*
G01Y1593930D01*
G02X287180Y1592760I-1250J4D01*
G01X284600Y1591820D01*
X283840Y1592030D01*
X283580Y1592330D01*
G03X275250Y1596220I-8330J-6974D01*
G01X266300D01*
G02X265360Y1596650I4J1250D01*
G03Y1586750I-5660J-4950D01*
G02X266300Y1587180I944J-820D01*
G01X275250D01*
G02X277080Y1585350I0J-1830D01*
G01Y1521850D01*
G02X275370Y1520140I-1710J0D01*
G01X266300D01*
G02X265360Y1520570I4J1250D01*
G03X252180Y1515560I-5660J-4950D01*
G01Y1515550D01*
G02X250930Y1514300I-1250J0D01*
G01X218000D01*
G37*
G36*
G01X251920Y1794900D02*
G02X248390Y1796360I1J5000D01*
G01X175110Y1869640D01*
G03X171580Y1871100I-3531J-3540D01*
G01X115130D01*
X114560Y1871620D01*
X114530Y1872010D01*
G03X93070I-10730J-910D01*
G01X93040Y1871620D01*
X92470Y1871100D01*
X89230D01*
X88660Y1871620D01*
X88630Y1872010D01*
G03X68170I-10230J-910D01*
G01X68140Y1871620D01*
X67570Y1871100D01*
X64330D01*
X63760Y1871620D01*
X63730Y1872010D01*
G03X42270I-10730J-910D01*
G01X42240Y1871620D01*
X41670Y1871100D01*
X38950D01*
G02X33950Y1876100I0J5000D01*
G01Y2183600D01*
G02X38950Y2188600I5000J0D01*
G01X41230D01*
G02X42230Y2187600I0J-1000D01*
G01Y2166130D01*
G03X43230Y2165130I1000J0D01*
G01X62770D01*
G03X63770Y2166130I0J1000D01*
G01Y2187600D01*
G02X64770Y2188600I1000J0D01*
G01X92030D01*
G02X93030Y2187600I0J-1000D01*
G01Y2166130D01*
G03X94030Y2165130I1000J0D01*
G01X113570D01*
G03X114570Y2166130I0J1000D01*
G01Y2187600D01*
G02X115570Y2188600I1000J0D01*
G01X203280D01*
G02X204140Y2188120I5J-1001D01*
G01X205170Y2186430D01*
X205180Y2185930D01*
X205060Y2185690D01*
G03X211750Y2174730I6690J-3438D01*
G01X260380D01*
G02X261380Y2173730I0J-1000D01*
G01Y1840420D01*
G03X272340Y1833730I7522J0D01*
G01X272580Y1833850D01*
X273080Y1833840D01*
X274770Y1832810D01*
G02X275250Y1831950I-521J-855D01*
G01Y1799900D01*
G02X270250Y1794900I-5000J0D01*
G01X251920D01*
G37*
%LPC*%
G75*
G36*
G01X376850Y1520020D02*
X383060D01*
G03X383820Y1520370I0J1000D01*
G02Y1510630I5730J-4870D01*
G03X383060Y1510980I-760J-650D01*
G01X376850D01*
G02X365980Y1521850I0J10870D01*
G01Y1585350D01*
G02X376850Y1596220I10870J0D01*
G01X383060D01*
G03X383820Y1596570I0J1000D01*
G02Y1586830I5730J-4870D01*
G03X383060Y1587180I-760J-650D01*
G01X376850D01*
G03X375020Y1585350I0J-1830D01*
G01Y1521850D01*
G03X376850Y1520020I1830J0D01*
G37*
G36*
G01X666300Y1476620D02*
Y982810D01*
G03X666740Y981980I1000J-1D01*
G02X658320I-4210J-6230D01*
G03X658760Y982810I-560J829D01*
G01Y1476620D01*
G03X658320Y1477450I-1000J1D01*
G02X666740I4210J6230D01*
G03X666300Y1476620I560J-829D01*
G37*
G36*
G01X647320Y1476690D02*
Y900260D01*
G03X647760Y899430I1000J-1D01*
G02X639340I-4210J-6230D01*
G03X639780Y900260I-560J829D01*
G01Y1476690D01*
G03X639340Y1477520I-1000J1D01*
G02X647760I4210J6230D01*
G03X647320Y1476690I560J-829D01*
G37*
G36*
G01X628270Y917890D02*
Y887560D01*
G03X628710Y886730I1000J-1D01*
G02X620290I-4210J-6230D01*
G03X620730Y887560I-560J829D01*
G01Y917890D01*
G03X620290Y918720I-1000J1D01*
G02Y931180I4210J6230D01*
G03X620730Y932010I-560J829D01*
G01Y1476690D01*
G03X620290Y1477520I-1000J1D01*
G02X628710I4210J6230D01*
G03X628270Y1476690I560J-829D01*
G01Y932010D01*
G03X628710Y931180I1000J-1D01*
G02Y918720I-4210J-6230D01*
G03X628270Y917890I560J-829D01*
G37*
G36*
G01X666370D02*
Y874860D01*
G03X666810Y874030I1000J-1D01*
G02X658390I-4210J-6230D01*
G03X658830Y874860I-560J829D01*
G01Y917890D01*
G03X658390Y918720I-1000J1D01*
G02X666810I4210J6230D01*
G03X666370Y917890I560J-829D01*
G37*
G36*
G01X685420D02*
Y862160D01*
G03X685860Y861330I1000J-1D01*
G02X677440I-4210J-6230D01*
G03X677880Y862160I-560J829D01*
G01Y917890D01*
G03X677440Y918720I-1000J1D01*
G02X685860I4210J6230D01*
G03X685420Y917890I560J-829D01*
G37*
G36*
G01X704420Y917940D02*
Y849510D01*
G03X704860Y848680I1000J-1D01*
G02X696440I-4210J-6230D01*
G03X696880Y849510I-560J829D01*
G01Y917940D01*
G03X696440Y918770I-1000J1D01*
G02X704860I4210J6230D01*
G03X704420Y917940I560J-829D01*
G37*
G36*
G01X609220Y917970D02*
Y836760D01*
G03X609660Y835930I1000J-1D01*
G02X601240I-4210J-6230D01*
G03X601680Y836760I-560J829D01*
G01Y915870D01*
X601630Y915920D01*
Y917940D01*
G03X601190Y918770I-1000J1D01*
G02Y931230I4210J6230D01*
G03X601630Y932060I-560J829D01*
G01Y934080D01*
X601680Y934130D01*
Y1476690D01*
G03X601240Y1477520I-1000J1D01*
G02X609660I4210J6230D01*
G03X609220Y1476690I560J-829D01*
G01Y932030D01*
G03X609650Y931200I1001J-8D01*
G02Y918800I-4250J-6200D01*
G03X609220Y917970I571J-822D01*
G37*
G36*
G01X590170Y917890D02*
Y824060D01*
G03X590610Y823230I1000J-1D01*
G02X582190I-4210J-6230D01*
G03X582630Y824060I-560J829D01*
G01Y917890D01*
G03X582190Y918720I-1000J1D01*
G02Y931180I4210J6230D01*
G03X582630Y932010I-560J829D01*
G01Y1476690D01*
G03X582190Y1477520I-1000J1D01*
G02X590610I4210J6230D01*
G03X590170Y1476690I560J-829D01*
G01Y932010D01*
G03X590610Y931180I1000J-1D01*
G02Y918720I-4210J-6230D01*
G03X590170Y917890I560J-829D01*
G37*
G36*
G01X1371220Y936940D02*
Y811360D01*
G03X1371660Y810530I1000J-1D01*
G02X1363240I-4210J-6230D01*
G03X1363680Y811360I-560J829D01*
G01Y936940D01*
G03X1363240Y937770I-1000J1D01*
G02X1371660I4210J6230D01*
G03X1371220Y936940I560J-829D01*
G37*
G36*
G01X1098170Y905190D02*
Y766910D01*
G03X1098610Y766080I1000J-1D01*
G02X1090190I-4210J-6230D01*
G03X1090630Y766910I-560J829D01*
G01Y905190D01*
G03X1090190Y906020I-1000J1D01*
G02X1098610I4210J6230D01*
G03X1098170Y905190I560J-829D01*
G37*
G36*
G01X1079120D02*
Y766910D01*
G03X1079560Y766080I1000J-1D01*
G02X1071140I-4210J-6230D01*
G03X1071580Y766910I-560J829D01*
G01Y905190D01*
G03X1071140Y906020I-1000J1D01*
G02X1079560I4210J6230D01*
G03X1079120Y905190I560J-829D01*
G37*
G36*
G01X1060070D02*
Y766910D01*
G03X1060510Y766080I1000J-1D01*
G02X1052090I-4210J-6230D01*
G03X1052530Y766910I-560J829D01*
G01Y905190D01*
G03X1052090Y906020I-1000J1D01*
G02X1060510I4210J6230D01*
G03X1060070Y905190I560J-829D01*
G37*
G36*
G01X1345820Y822640D02*
Y747860D01*
G03X1346260Y747030I1000J-1D01*
G02X1337840I-4210J-6230D01*
G03X1338280Y747860I-560J829D01*
G01Y822640D01*
G03X1337840Y823470I-1000J1D01*
G02X1346260I4210J6230D01*
G03X1345820Y822640I560J-829D01*
G37*
G36*
G01X552070Y1476690D02*
Y747860D01*
G03X552510Y747030I1000J-1D01*
G02X544090I-4210J-6230D01*
G03X544530Y747860I-560J829D01*
G01Y1476690D01*
G03X544090Y1477520I-1000J1D01*
G02X552510I4210J6230D01*
G03X552070Y1476690I560J-829D01*
G37*
G36*
G01X533020D02*
Y722460D01*
G03X533460Y721630I1000J-1D01*
G02X525040I-4210J-6230D01*
G03X525480Y722460I-560J829D01*
G01Y1476690D01*
G03X525040Y1477520I-1000J1D01*
G02X533460I4210J6230D01*
G03X533020Y1476690I560J-829D01*
G37*
G36*
G01X190120Y733740D02*
Y633560D01*
G03X190560Y632730I1000J-1D01*
G02X182140I-4210J-6230D01*
G03X182580Y633560I-560J829D01*
G01Y733740D01*
G03X182140Y734570I-1000J1D01*
G02X190560I4210J6230D01*
G03X190120Y733740I560J-829D01*
G37*
G36*
G01X171070Y708340D02*
Y620860D01*
G03X171510Y620030I1000J-1D01*
G02X163090I-4210J-6230D01*
G03X163530Y620860I-560J829D01*
G01Y708340D01*
G03X163090Y709170I-1000J1D01*
G02X171510I4210J6230D01*
G03X171070Y708340I560J-829D01*
G37*
G36*
G01X513970Y721040D02*
Y601810D01*
G03X514410Y600980I1000J-1D01*
G02X505990I-4210J-6230D01*
G03X506430Y601810I-560J829D01*
G01Y721040D01*
G03X505990Y721870I-1000J1D01*
G02X514410I4210J6230D01*
G03X513970Y721040I560J-829D01*
G37*
G36*
G01X456820Y1559240D02*
Y601810D01*
G03X457260Y600980I1000J-1D01*
G02X448840I-4210J-6230D01*
G03X449280Y601810I-560J829D01*
G01Y1559240D01*
G03X448840Y1560070I-1000J1D01*
G02X457260I4210J6230D01*
G03X456820Y1559240I560J-829D01*
G37*
G36*
G01X571120Y746440D02*
Y595460D01*
G03X571560Y594630I1000J-1D01*
G02X563140I-4210J-6230D01*
G03X563580Y595460I-560J829D01*
G01Y746440D01*
G03X563140Y747270I-1000J1D01*
G02Y759730I4210J6230D01*
G03X563580Y760560I-560J829D01*
G01Y1476690D01*
G03X563140Y1477520I-1000J1D01*
G02X571560I4210J6230D01*
G03X571120Y1476690I560J-829D01*
G01Y760560D01*
G03X571560Y759730I1000J-1D01*
G02Y747270I-4210J-6230D01*
G03X571120Y746440I560J-829D01*
G37*
G36*
G01X418720Y1533840D02*
Y589110D01*
G03X419160Y588280I1000J-1D01*
G02X410740I-4210J-6230D01*
G03X411180Y589110I-560J829D01*
G01Y1533840D01*
G03X410740Y1534670I-1000J1D01*
G02X419160I4210J6230D01*
G03X418720Y1533840I560J-829D01*
G37*
G36*
G01X437770Y1546540D02*
Y576410D01*
G03X438210Y575580I1000J-1D01*
G02X429790I-4210J-6230D01*
G03X430230Y576410I-560J829D01*
G01Y1546540D01*
G03X429790Y1547370I-1000J1D01*
G02X438210I4210J6230D01*
G03X437770Y1546540I560J-829D01*
G37*
G36*
G01X475870Y1571940D02*
Y563710D01*
G03X476310Y562880I1000J-1D01*
G02X467890I-4210J-6230D01*
G03X468330Y563710I-560J829D01*
G01Y1571940D01*
G03X467890Y1572770I-1000J1D01*
G02X476310I4210J6230D01*
G03X475870Y1571940I560J-829D01*
G37*
G36*
G01X1288670Y860740D02*
Y443060D01*
G03X1289110Y442230I1000J-1D01*
G02X1280690I-4210J-6230D01*
G03X1281130Y443060I-560J829D01*
G01Y860740D01*
G03X1280690Y861570I-1000J1D01*
G02X1289110I4210J6230D01*
G03X1288670Y860740I560J-829D01*
G37*
G36*
G01X1269620Y606740D02*
Y341460D01*
G03X1270060Y340630I1000J-1D01*
G02X1261640I-4210J-6230D01*
G03X1262080Y341460I-560J829D01*
G01Y606740D01*
G03X1261640Y607570I-1000J1D01*
G02Y620030I4210J6230D01*
G03X1262080Y620860I-560J829D01*
G01Y873440D01*
G03X1261640Y874270I-1000J1D01*
G02X1270060I4210J6230D01*
G03X1269620Y873440I560J-829D01*
G01Y620860D01*
G03X1270060Y620030I1000J-1D01*
G02Y607570I-4210J-6230D01*
G03X1269620Y606740I560J-829D01*
G37*
G36*
G01X1307720Y530540D02*
Y316060D01*
G03X1308160Y315230I1000J-1D01*
G02X1299740I-4210J-6230D01*
G03X1300180Y316060I-560J829D01*
G01Y530540D01*
G03X1299740Y531370I-1000J1D01*
G02Y543830I4210J6230D01*
G03X1300180Y544660I-560J829D01*
G01Y848040D01*
G03X1299740Y848870I-1000J1D01*
G02X1308160I4210J6230D01*
G03X1307720Y848040I560J-829D01*
G01Y544660D01*
G03X1308160Y543830I1000J-1D01*
G02Y531370I-4210J-6230D01*
G03X1307720Y530540I560J-829D01*
G37*
G36*
G01X1250570Y708340D02*
Y239860D01*
G03X1251010Y239030I1000J-1D01*
G02X1242590I-4210J-6230D01*
G03X1243030Y239860I-560J829D01*
G01Y708340D01*
G03X1242590Y709170I-1000J1D01*
G02Y721630I4210J6230D01*
G03X1243030Y722460I-560J829D01*
G01Y886140D01*
G03X1242590Y886970I-1000J1D01*
G02X1251010I4210J6230D01*
G03X1250570Y886140I560J-829D01*
G01Y722460D01*
G03X1251010Y721630I1000J-1D01*
G02Y709170I-4210J-6230D01*
G03X1250570Y708340I560J-829D01*
G37*
G36*
G01X1326770Y505140D02*
Y214460D01*
G03X1327210Y213630I1000J-1D01*
G02X1318790I-4210J-6230D01*
G03X1319230Y214460I-560J829D01*
G01Y505140D01*
G03X1318790Y505970I-1000J1D01*
G02Y518430I4210J6230D01*
G03X1319230Y519260I-560J829D01*
G01Y632140D01*
G03X1318790Y632970I-1000J1D01*
G02Y645430I4210J6230D01*
G03X1319230Y646260I-560J829D01*
G01Y835340D01*
G03X1318790Y836170I-1000J1D01*
G02X1327210I4210J6230D01*
G03X1326770Y835340I560J-829D01*
G01Y646260D01*
G03X1327210Y645430I1000J-1D01*
G02Y632970I-4210J-6230D01*
G03X1326770Y632140I560J-829D01*
G01Y519260D01*
G03X1327210Y518430I1000J-1D01*
G02Y505970I-4210J-6230D01*
G03X1326770Y505140I560J-829D01*
G37*
G36*
G01X69130Y116070D02*
X87670D01*
G02X88670Y115070I0J-1000D01*
G01Y96530D01*
G02X87670Y95530I-1000J0D01*
G01X69130D01*
G02X68130Y96530I0J1000D01*
G01Y115070D01*
G02X69130Y116070I1000J0D01*
G37*
G36*
G01X43230Y116570D02*
X62770D01*
G02X63770Y115570I0J-1000D01*
G01Y96030D01*
G02X62770Y95030I-1000J0D01*
G01X43230D01*
G02X42230Y96030I0J1000D01*
G01Y115570D01*
G02X43230Y116570I1000J0D01*
G37*
G36*
G01X69130Y344670D02*
X87670D01*
G02X88670Y343670I0J-1000D01*
G01Y325130D01*
G02X87670Y324130I-1000J0D01*
G01X69130D01*
G02X68130Y325130I0J1000D01*
G01Y343670D01*
G02X69130Y344670I1000J0D01*
G37*
G36*
G01X43230Y345170D02*
X62770D01*
G02X63770Y344170I0J-1000D01*
G01Y324630D01*
G02X62770Y323630I-1000J0D01*
G01X43230D01*
G02X42230Y324630I0J1000D01*
G01Y344170D01*
G02X43230Y345170I1000J0D01*
G37*
G36*
G01X69130Y598670D02*
X87670D01*
G02X88670Y597670I0J-1000D01*
G01Y579130D01*
G02X87670Y578130I-1000J0D01*
G01X69130D01*
G02X68130Y579130I0J1000D01*
G01Y597670D01*
G02X69130Y598670I1000J0D01*
G37*
G36*
G01X43230Y599170D02*
X62770D01*
G02X63770Y598170I0J-1000D01*
G01Y578630D01*
G02X62770Y577630I-1000J0D01*
G01X43230D01*
G02X42230Y578630I0J1000D01*
G01Y598170D01*
G02X43230Y599170I1000J0D01*
G37*
G36*
G01X68630Y1450070D02*
X88170D01*
G02X89170Y1449070I0J-1000D01*
G01Y1429530D01*
G02X88170Y1428530I-1000J0D01*
G01X68630D01*
G02X67630Y1429530I0J1000D01*
G01Y1449070D01*
G02X68630Y1450070I1000J0D01*
G37*
G36*
G01X43230D02*
X62770D01*
G02X63770Y1449070I0J-1000D01*
G01Y1429530D01*
G02X62770Y1428530I-1000J0D01*
G01X43230D01*
G02X42230Y1429530I0J1000D01*
G01Y1449070D01*
G02X43230Y1450070I1000J0D01*
G37*
G36*
G01X94030Y116570D02*
X113570D01*
G02X114570Y115570I0J-1000D01*
G01Y96030D01*
G02X113570Y95030I-1000J0D01*
G01X94030D01*
G02X93030Y96030I0J1000D01*
G01Y115570D01*
G02X94030Y116570I1000J0D01*
G37*
G36*
G01Y345170D02*
X113570D01*
G02X114570Y344170I0J-1000D01*
G01Y324630D01*
G02X113570Y323630I-1000J0D01*
G01X94030D01*
G02X93030Y324630I0J1000D01*
G01Y344170D01*
G02X94030Y345170I1000J0D01*
G37*
G36*
G01Y599170D02*
X113570D01*
G02X114570Y598170I0J-1000D01*
G01Y578630D01*
G02X113570Y577630I-1000J0D01*
G01X94030D01*
G02X93030Y578630I0J1000D01*
G01Y598170D01*
G02X94030Y599170I1000J0D01*
G37*
G36*
G01Y1450070D02*
X113570D01*
G02X114570Y1449070I0J-1000D01*
G01Y1429530D01*
G02X113570Y1428530I-1000J0D01*
G01X94030D01*
G02X93030Y1429530I0J1000D01*
G01Y1449070D01*
G02X94030Y1450070I1000J0D01*
G37*
G36*
G01X234230Y1163820D02*
X252770D01*
G02X253770Y1162820I0J-1000D01*
G01Y1144280D01*
G02X252770Y1143280I-1000J0D01*
G01X234230D01*
G02X233230Y1144280I0J1000D01*
G01Y1162820D01*
G02X234230Y1163820I1000J0D01*
G37*
G36*
G01X398830Y1704070D02*
X418370D01*
G02X419370Y1703070I0J-1000D01*
G01Y1683530D01*
G02X418370Y1682530I-1000J0D01*
G01X398830D01*
G02X397830Y1683530I0J1000D01*
G01Y1703070D01*
G02X398830Y1704070I1000J0D01*
G37*
G36*
G01X1193080Y998720D02*
X1211620D01*
G02X1212620Y997720I0J-1000D01*
G01Y979180D01*
G02X1211620Y978180I-1000J0D01*
G01X1193080D01*
G02X1192080Y979180I0J1000D01*
G01Y997720D01*
G02X1193080Y998720I1000J0D01*
G37*
G36*
G01X1471980Y243570D02*
X1491520D01*
G02X1492520Y242570I0J-1000D01*
G01Y223030D01*
G02X1491520Y222030I-1000J0D01*
G01X1471980D01*
G02X1470980Y223030I0J1000D01*
G01Y242570D01*
G02X1471980Y243570I1000J0D01*
G37*
G36*
G01Y345170D02*
X1491520D01*
G02X1492520Y344170I0J-1000D01*
G01Y324630D01*
G02X1491520Y323630I-1000J0D01*
G01X1471980D01*
G02X1470980Y324630I0J1000D01*
G01Y344170D01*
G02X1471980Y345170I1000J0D01*
G37*
G36*
G01Y446770D02*
X1491520D01*
G02X1492520Y445770I0J-1000D01*
G01Y426230D01*
G02X1491520Y425230I-1000J0D01*
G01X1471980D01*
G02X1470980Y426230I0J1000D01*
G01Y445770D01*
G02X1471980Y446770I1000J0D01*
G37*
G36*
G01Y548370D02*
X1491520D01*
G02X1492520Y547370I0J-1000D01*
G01Y527830D01*
G02X1491520Y526830I-1000J0D01*
G01X1471980D01*
G02X1470980Y527830I0J1000D01*
G01Y547370D01*
G02X1471980Y548370I1000J0D01*
G37*
G36*
G01Y649970D02*
X1491520D01*
G02X1492520Y648970I0J-1000D01*
G01Y629430D01*
G02X1491520Y628430I-1000J0D01*
G01X1471980D01*
G02X1470980Y629430I0J1000D01*
G01Y648970D01*
G02X1471980Y649970I1000J0D01*
G37*
G36*
G01Y751570D02*
X1491520D01*
G02X1492520Y750570I0J-1000D01*
G01Y731030D01*
G02X1491520Y730030I-1000J0D01*
G01X1471980D01*
G02X1470980Y731030I0J1000D01*
G01Y750570D01*
G02X1471980Y751570I1000J0D01*
G37*
G36*
G01Y853170D02*
X1491520D01*
G02X1492520Y852170I0J-1000D01*
G01Y832630D01*
G02X1491520Y831630I-1000J0D01*
G01X1471980D01*
G02X1470980Y832630I0J1000D01*
G01Y852170D01*
G02X1471980Y853170I1000J0D01*
G37*
G36*
G01Y954770D02*
X1491520D01*
G02X1492520Y953770I0J-1000D01*
G01Y934230D01*
G02X1491520Y933230I-1000J0D01*
G01X1471980D01*
G02X1470980Y934230I0J1000D01*
G01Y953770D01*
G02X1471980Y954770I1000J0D01*
G37*
G36*
G01X112850Y797450D02*
G02X94750I-9050J-5850D01*
G01X94910Y797680D01*
X94930Y798220D01*
X93950Y800010D01*
G03X93070Y800530I-877J-479D01*
G01X88530D01*
G03X87640Y800000I-7J-1001D01*
G01X86680Y798180D01*
X86710Y797630D01*
X86870Y797400D01*
G02X71100Y798830I-8476J-5800D01*
G01X71240Y798970D01*
X71390Y799330D01*
Y799530D01*
G03X70390Y800530I-1000J0D01*
G01X68330D01*
G02X61170Y803490I-7J10122D01*
G01X57730Y806940D01*
X57160Y807060D01*
X56880Y806950D01*
G02X63050Y813120I-3880J10050D01*
G01X62940Y812840D01*
X63060Y812270D01*
X66510Y808830D01*
G03X68330Y808070I1828J1818D01*
G01X70390D01*
G03X71390Y809070I0J1000D01*
G01Y809270D01*
X71240Y809630D01*
X71100Y809770D01*
G02Y824230I7300J7230D01*
G01X71240Y824370D01*
X71390Y824730D01*
Y824930D01*
G03X70390Y825930I-1000J0D01*
G01X68330D01*
G02X61170Y828890I-7J10122D01*
G01X58730Y831340D01*
G03X58020Y831630I-704J-710D01*
G01X43230D01*
G02X42230Y832630I0J1000D01*
G01Y852170D01*
G02X43230Y853170I1000J0D01*
G01X59890D01*
G03X60810Y853790I-4J998D01*
G01X60930Y854070D01*
X60810Y854650D01*
X57730Y857740D01*
X57160Y857860D01*
X56880Y857750D01*
G02X63050Y863920I-3880J10050D01*
G01X62940Y863640D01*
X63060Y863070D01*
X66510Y859630D01*
G03X68330Y858870I1828J1818D01*
G01X70390D01*
G03X71390Y859870I0J1000D01*
G01Y860070D01*
X71240Y860430D01*
X71100Y860570D01*
G02Y875030I7300J7230D01*
G01X71240Y875170D01*
X71390Y875530D01*
Y875730D01*
G03X70390Y876730I-1000J0D01*
G01X68330D01*
G02X61170Y879690I-7J10122D01*
G01X57730Y883140D01*
X57160Y883260D01*
X56880Y883150D01*
G02X63050Y889320I-3880J10050D01*
G01X62940Y889040D01*
X63060Y888470D01*
X66510Y885030D01*
G03X68330Y884270I1828J1818D01*
G01X70390D01*
G03X71390Y885270I0J1000D01*
G01Y885470D01*
X71240Y885830D01*
X71100Y885970D01*
G02X86870Y887400I7294J7230D01*
G01X86710Y887170D01*
X86680Y886620D01*
X87640Y884800D01*
G03X88530Y884270I883J471D01*
G01X93070D01*
G03X93950Y884790I3J999D01*
G01X94930Y886580D01*
X94910Y887120D01*
X94750Y887350D01*
G02X113650Y897560I9048J5849D01*
G03X114560Y896970I912J409D01*
G01X176200D01*
G03X178020Y897730I-8J2578D01*
G01X180650Y900360D01*
G02X185690Y903100I7157J-7160D01*
G03X186330Y903540I-202J979D01*
G02X194870Y892350I6372J-3990D01*
G01X194660Y892290D01*
X194330Y892000D01*
X193540Y890210D01*
X193550Y889780D01*
X193640Y889580D01*
G02X193930Y883820I-6790J-3229D01*
G01X193860Y883620D01*
X193880Y883240D01*
X194680Y881580D01*
X194960Y881320D01*
X195160Y881260D01*
G02X194670Y866890I-2457J-7110D01*
G01X194460Y866840D01*
X194140Y866570D01*
X193280Y864850D01*
X193260Y864430D01*
X193340Y864230D01*
G02X184900Y854070I-6989J-2780D01*
G03X184040Y853840I-199J-980D01*
G02X177370Y851330I-6671J7610D01*
G01X115570D01*
G03X114570Y850330I0J-1000D01*
G01Y847170D01*
G03X115570Y846170I1000J0D01*
G01X183720D01*
G02X190390Y843660I-1J-10120D01*
G03X191250Y843430I661J750D01*
G02X194870Y828850I1453J-7379D01*
G01X194660Y828790D01*
X194330Y828500D01*
X193540Y826710D01*
X193550Y826280D01*
X193640Y826080D01*
G02X193840Y820070I-6790J-3234D01*
G01X193760Y819870D01*
X193780Y819450D01*
X194640Y817730D01*
X194960Y817460D01*
X195170Y817410D01*
G02X195370Y802950I-1969J-7259D01*
G01X195160Y802890D01*
X194830Y802600D01*
X194040Y800810D01*
X194050Y800380D01*
X194140Y800180D01*
G02X181120Y792740I-6790J-3230D01*
G03X180290Y793180I-829J-560D01*
G01X177280D01*
G02X170120Y796140I-7J10122D01*
G01X166490Y799770D01*
G03X164670Y800530I-1828J-1818D01*
G01X114530D01*
G03X113650Y800010I-3J-999D01*
G01X112670Y798220D01*
X112690Y797680D01*
X112850Y797450D01*
G37*
G36*
G01X68880Y1678670D02*
X87920D01*
G02X89170Y1677420I0J-1250D01*
G01Y1658380D01*
G02X87920Y1657130I-1250J0D01*
G01X68880D01*
G02X67630Y1658380I0J1250D01*
G01Y1677420D01*
G02X68880Y1678670I1250J0D01*
G37*
G36*
G01X43480D02*
X62520D01*
G02X63770Y1677420I0J-1250D01*
G01Y1658380D01*
G02X62520Y1657130I-1250J0D01*
G01X43480D01*
G02X42230Y1658380I0J1250D01*
G01Y1677420D01*
G02X43480Y1678670I1250J0D01*
G37*
G36*
G01X94280D02*
X113320D01*
G02X114570Y1677420I0J-1250D01*
G01Y1658380D01*
G02X113320Y1657130I-1250J0D01*
G01X94280D01*
G02X93030Y1658380I0J1250D01*
G01Y1677420D01*
G02X94280Y1678670I1250J0D01*
G37*
G36*
G01X69130Y1932170D02*
X87670D01*
G02X88670Y1931170I0J-1000D01*
G01Y1912630D01*
G02X87670Y1911630I-1000J0D01*
G01X69130D01*
G02X68130Y1912630I0J1000D01*
G01Y1931170D01*
G02X69130Y1932170I1000J0D01*
G37*
G36*
G01X43230Y1932670D02*
X62770D01*
G02X63770Y1931670I0J-1000D01*
G01Y1912130D01*
G02X62770Y1911130I-1000J0D01*
G01X43230D01*
G02X42230Y1912130I0J1000D01*
G01Y1931670D01*
G02X43230Y1932670I1000J0D01*
G37*
G36*
G01X69130Y2186170D02*
X87670D01*
G02X88670Y2185170I0J-1000D01*
G01Y2166630D01*
G02X87670Y2165630I-1000J0D01*
G01X69130D01*
G02X68130Y2166630I0J1000D01*
G01Y2185170D01*
G02X69130Y2186170I1000J0D01*
G37*
G36*
G01X94030Y1932670D02*
X113570D01*
G02X114570Y1931670I0J-1000D01*
G01Y1912130D01*
G02X113570Y1911130I-1000J0D01*
G01X94030D01*
G02X93030Y1912130I0J1000D01*
G01Y1931670D01*
G02X94030Y1932670I1000J0D01*
G37*
G36*
G01X177080Y2160770D02*
X195620D01*
G02X196620Y2159770I0J-1000D01*
G01Y2141230D01*
G02X195620Y2140230I-1000J0D01*
G01X177080D01*
G02X176080Y2141230I0J1000D01*
G01Y2159770D01*
G02X177080Y2160770I1000J0D01*
G37*
G54D22*
X268900Y1153550D03*
X1227750Y988450D03*
X211750Y2150500D03*
G54D25*
X1481750Y258200D03*
Y359800D03*
Y461400D03*
Y563000D03*
Y664600D03*
Y766200D03*
Y867800D03*
Y969400D03*
G54D19*
X446700Y1940950D03*
G54D23*
X1119800Y1032900D03*
X1215050Y143900D03*
X1367450Y1071000D03*
X1329350Y1229750D03*
G54D20*
X78400Y131200D03*
Y182000D03*
Y156600D03*
Y283600D03*
Y258200D03*
Y232800D03*
Y309000D03*
Y359800D03*
Y436000D03*
Y410600D03*
Y385200D03*
X53000D03*
X78400Y512200D03*
Y486800D03*
Y461400D03*
Y563000D03*
Y537600D03*
Y664600D03*
Y639200D03*
Y613800D03*
Y740800D03*
Y715400D03*
Y690000D03*
Y766200D03*
X103800Y385200D03*
X53000Y1744100D03*
X103800D03*
X78400Y1947300D03*
Y1896500D03*
Y2023500D03*
Y1998100D03*
Y1972700D03*
Y2074300D03*
Y2048900D03*
X53000Y2074300D03*
X78400Y2150500D03*
Y2125100D03*
X103800Y2074300D03*
G54D24*
X1157900Y1032900D03*
X1119800Y1083700D03*
X1215050Y213750D03*
X1176950Y1299600D03*
Y1350400D03*
X1259500Y1229750D03*
X1291250D03*
X1367450Y1102750D03*
G54D21*
X53000Y131200D03*
X78400Y207400D03*
X53000D03*
Y182000D03*
Y156600D03*
Y283600D03*
Y258200D03*
Y232800D03*
Y309000D03*
Y359800D03*
Y436000D03*
Y410600D03*
Y512200D03*
Y486800D03*
Y461400D03*
Y563000D03*
Y537600D03*
Y664600D03*
Y639200D03*
Y613800D03*
Y740800D03*
Y715400D03*
Y690000D03*
Y791600D03*
Y766200D03*
X78400Y1464700D03*
X53000D03*
X103800Y131200D03*
Y207400D03*
Y182000D03*
Y156600D03*
Y283600D03*
Y258200D03*
Y232800D03*
Y309000D03*
Y359800D03*
Y436000D03*
Y410600D03*
Y512200D03*
Y486800D03*
Y461400D03*
Y563000D03*
Y537600D03*
Y664600D03*
Y639200D03*
Y613800D03*
Y740800D03*
Y715400D03*
Y690000D03*
Y766200D03*
Y1464700D03*
X78400Y1642500D03*
Y1617100D03*
X53000Y1642500D03*
Y1617100D03*
X78400Y1718700D03*
Y1693300D03*
X53000Y1718700D03*
Y1693300D03*
X78400Y1744100D03*
X103800Y1642500D03*
Y1617100D03*
Y1718700D03*
Y1693300D03*
X281600D03*
X53000Y1947300D03*
Y1896500D03*
Y2023500D03*
Y1998100D03*
Y1972700D03*
X78400Y2099700D03*
X53000D03*
Y2048900D03*
Y2150500D03*
Y2125100D03*
X103800Y1947300D03*
Y1896500D03*
Y2023500D03*
Y1998100D03*
Y1972700D03*
Y2099700D03*
Y2048900D03*
Y2150500D03*
Y2125100D03*
%LPD*%
G75*
G36*
G01X86710Y810970D02*
X86870Y811200D01*
G03Y822800I-8470J5800D01*
G01X86710Y823030D01*
X86680Y823580D01*
X87640Y825400D01*
G02X88530Y825930I883J-471D01*
G01X93070D01*
G02X93950Y825410I3J-999D01*
G01X94930Y823620D01*
X94910Y823080D01*
X94750Y822850D01*
G03Y811150I9050J-5850D01*
G01X94910Y810920D01*
X94930Y810380D01*
X93950Y808590D01*
G02X93070Y808070I-877J479D01*
G01X88530D01*
G02X87640Y808600I-7J1001D01*
G01X86680Y810420D01*
X86710Y810970D01*
G37*
G36*
G01Y861770D02*
X86870Y862000D01*
G03Y873600I-8470J5800D01*
G01X86710Y873830D01*
X86680Y874380D01*
X87640Y876200D01*
G02X88530Y876730I883J-471D01*
G01X93070D01*
G02X93950Y876210I3J-999D01*
G01X94930Y874420D01*
X94910Y873880D01*
X94750Y873650D01*
G03Y861950I9050J-5850D01*
G01X94910Y861720D01*
X94930Y861180D01*
X93950Y859390D01*
G02X93070Y858870I-877J479D01*
G01X88530D01*
G02X87640Y859400I-7J1001D01*
G01X86680Y861220D01*
X86710Y861770D01*
G37*
G54D10*
X27600Y55000D03*
Y944000D03*
Y1388500D03*
Y2277500D03*
G54D11*
X78400Y131200D03*
X53000D03*
X78400Y207400D03*
Y182000D03*
Y156600D03*
X53000Y207400D03*
Y182000D03*
Y156600D03*
X78400Y283600D03*
Y258200D03*
Y232800D03*
X53000Y283600D03*
Y258200D03*
Y232800D03*
X78400Y309000D03*
Y359800D03*
X53000Y309000D03*
Y359800D03*
X78400Y436000D03*
Y410600D03*
Y385200D03*
X53000Y436000D03*
Y410600D03*
Y385200D03*
X78400Y512200D03*
Y486800D03*
Y461400D03*
X53000Y512200D03*
Y486800D03*
Y461400D03*
X78400Y563000D03*
Y537600D03*
X53000Y563000D03*
Y537600D03*
X78400Y664600D03*
Y639200D03*
Y613800D03*
X53000Y664600D03*
Y639200D03*
Y613800D03*
X78400Y740800D03*
Y715400D03*
Y690000D03*
X53000Y740800D03*
Y715400D03*
Y690000D03*
X78400Y817000D03*
Y791600D03*
Y766200D03*
X53000Y817000D03*
Y791600D03*
Y766200D03*
X78400Y893200D03*
Y867800D03*
X53000Y893200D03*
Y867800D03*
X78400Y1490100D03*
Y1464700D03*
X53000Y1490100D03*
Y1464700D03*
X78400Y1566300D03*
Y1540900D03*
Y1515500D03*
X53000Y1566300D03*
Y1540900D03*
Y1515500D03*
X78400Y1642500D03*
Y1617100D03*
Y1591700D03*
X53000Y1642500D03*
Y1617100D03*
Y1591700D03*
X78400Y1718700D03*
Y1693300D03*
X53000Y1718700D03*
Y1693300D03*
X78400Y1794900D03*
Y1769500D03*
Y1744100D03*
X53000Y1794900D03*
Y1769500D03*
Y1744100D03*
X78400Y1871100D03*
Y1845700D03*
Y1820300D03*
X53000Y1871100D03*
Y1845700D03*
Y1820300D03*
X78400Y1947300D03*
Y1896500D03*
X53000Y1947300D03*
Y1896500D03*
X78400Y2023500D03*
Y1998100D03*
Y1972700D03*
X53000Y2023500D03*
Y1998100D03*
Y1972700D03*
X78400Y2099700D03*
Y2074300D03*
Y2048900D03*
X53000Y2099700D03*
Y2074300D03*
Y2048900D03*
X78400Y2150500D03*
Y2125100D03*
X53000Y2150500D03*
Y2125100D03*
X78400Y2226700D03*
Y2201300D03*
X53000Y2226700D03*
Y2201300D03*
X103800Y131200D03*
Y207400D03*
Y182000D03*
Y156600D03*
Y283600D03*
Y258200D03*
Y232800D03*
Y309000D03*
Y359800D03*
Y436000D03*
Y410600D03*
Y385200D03*
Y512200D03*
Y486800D03*
Y461400D03*
Y563000D03*
Y537600D03*
Y664600D03*
Y639200D03*
Y613800D03*
Y740800D03*
Y715400D03*
Y690000D03*
Y817000D03*
Y791600D03*
Y766200D03*
Y893200D03*
Y867800D03*
Y1490100D03*
Y1464700D03*
Y1566300D03*
Y1540900D03*
Y1515500D03*
Y1642500D03*
Y1617100D03*
Y1591700D03*
Y1718700D03*
Y1693300D03*
Y1794900D03*
Y1769500D03*
Y1744100D03*
Y1871100D03*
Y1845700D03*
Y1820300D03*
Y1947300D03*
Y1896500D03*
Y2023500D03*
Y1998100D03*
Y1972700D03*
Y2099700D03*
Y2074300D03*
Y2048900D03*
Y2150500D03*
Y2125100D03*
Y2226700D03*
Y2201300D03*
X281600Y1693300D03*
X332400D03*
X383200D03*
G54D12*
X78400Y105800D03*
X53000D03*
X78400Y334400D03*
X53000D03*
X78400Y588400D03*
X53000D03*
X78400Y842400D03*
X53000D03*
X78400Y1439300D03*
X53000D03*
X78400Y1667900D03*
X53000D03*
X78400Y1921900D03*
X53000D03*
X78400Y2175900D03*
X53000D03*
X103800Y105800D03*
Y334400D03*
Y588400D03*
Y842400D03*
Y1439300D03*
Y1667900D03*
Y1921900D03*
Y2175900D03*
X243500Y1153550D03*
X186350Y2150500D03*
X408600Y1693300D03*
X1202350Y988450D03*
X1481750Y232800D03*
Y334400D03*
Y436000D03*
Y537600D03*
Y639200D03*
Y740800D03*
Y842400D03*
Y944000D03*
G54D13*
G01X211750Y2182250D02*
X262550D01*
G02X268900Y2175900I0J-6350D01*
G01Y2130380D01*
G01Y1840420D02*
Y1896500D01*
G01Y2016080D02*
Y1956300D01*
G01D02*
Y1896500D01*
G01Y2016080D02*
Y2073230D01*
G01Y2130380D02*
Y2073230D01*
G01X446700Y1972700D02*
Y1794900D01*
G01Y2029850D02*
Y1972700D01*
G01Y2087000D02*
Y2029850D01*
X62940Y913890D03*
X45700Y1013930D03*
Y1115530D03*
Y1166330D03*
Y1217130D03*
Y1318730D03*
X56490Y1368370D03*
X103800Y55000D03*
X126770Y102000D03*
X153000Y215300D03*
X163110Y355530D03*
X129320Y348560D03*
X125000Y325300D03*
X125150Y389290D03*
X127820Y541650D03*
X147080Y638260D03*
X130360Y686230D03*
X160950Y924950D03*
X113740Y913900D03*
X153110Y954870D03*
X147300Y1144800D03*
Y1246400D03*
X160950Y1331350D03*
X149530Y1396580D03*
X141900Y1731860D03*
X103800Y2277500D03*
X228370Y102000D03*
X198000Y149300D03*
X190690Y249610D03*
X234950Y283690D03*
X196100Y281780D03*
X178580Y539680D03*
X167300Y613800D03*
X237150Y664600D03*
X203000Y642300D03*
X197000Y604300D03*
X186350Y626500D03*
X167300Y715400D03*
X200000Y699300D03*
X186350Y740800D03*
X199050Y778900D03*
X193200Y810150D03*
X187350Y796950D03*
X199050Y848750D03*
X192700Y836050D03*
X186850Y822850D03*
Y886350D03*
X186350Y861450D03*
X192700Y874150D03*
X233800Y938800D03*
X180000Y944000D03*
X192700Y899550D03*
X211750Y975750D03*
X198680Y1056470D03*
Y1158070D03*
Y1259670D03*
X208000Y1700320D03*
X211750Y2182250D03*
X262540Y177760D03*
X306800Y211840D03*
X262880Y218180D03*
X278650Y383680D03*
X279820Y540180D03*
X300650Y664600D03*
X252000Y697300D03*
X257000Y681300D03*
X256200Y778900D03*
X307000Y753500D03*
X299000Y791600D03*
X255800Y848800D03*
X300650Y848750D03*
X268900Y918600D03*
X307000Y950350D03*
X262550D03*
X300650Y905900D03*
Y975750D03*
X300280Y1078920D03*
Y1180520D03*
Y1282120D03*
X251130Y1396580D03*
X300650Y1394850D03*
X259700Y1515620D03*
Y1528200D03*
X250390Y1534700D03*
X259700Y1591700D03*
Y1604400D03*
X268900Y1840420D03*
Y1956300D03*
Y1896500D03*
Y2016080D03*
Y2073230D03*
Y2130380D03*
X329970Y102000D03*
X378640Y140000D03*
X332840Y145040D03*
X386410Y275920D03*
X325930Y438580D03*
X381420Y540180D03*
X370500Y639200D03*
X395000Y604300D03*
X357800Y651900D03*
X351450Y709050D03*
Y810650D03*
X395900Y766200D03*
Y791600D03*
X358330Y766200D03*
X351450Y905900D03*
X370500Y956700D03*
X355790Y939800D03*
X355720Y1042480D03*
Y1144080D03*
Y1194880D03*
Y1245680D03*
Y1347280D03*
X367960Y1396580D03*
X375000Y1481600D03*
X389550Y1528200D03*
Y1515500D03*
Y1648850D03*
Y1610750D03*
Y1591700D03*
X379000Y1785300D03*
Y1813300D03*
Y1843300D03*
Y1871300D03*
Y1899300D03*
Y1927300D03*
Y1957300D03*
Y2013300D03*
Y2099300D03*
Y2043300D03*
Y2069300D03*
Y2127300D03*
X383200Y2163200D03*
X370500Y2188600D03*
X396440Y56000D03*
X414560Y104080D03*
X399620Y78260D03*
X457500Y204820D03*
X427530Y438580D03*
X434000Y569350D03*
X454000Y574300D03*
X414950Y582050D03*
X463000Y638300D03*
X398780Y642970D03*
X453050Y594750D03*
X443000Y669300D03*
X402250Y702700D03*
X425000Y703300D03*
X463000Y908300D03*
X443000Y953300D03*
X424000Y920300D03*
X400820Y909670D03*
X463000Y1117300D03*
X444000Y1060300D03*
X424000Y1122300D03*
X462000Y1351300D03*
X443000Y1315300D03*
X402250Y1382150D03*
X425000Y1374300D03*
Y1478300D03*
X443000D03*
X463000D03*
X434000Y1553600D03*
X462000Y1547300D03*
X414950Y1540900D03*
X453050Y1566300D03*
X414950Y1604400D03*
X457000Y1609300D03*
X440350Y1731400D03*
X465750Y1693300D03*
X395900Y1750450D03*
X467000Y1769300D03*
X419000Y1777300D03*
X422770Y1801250D03*
X446700Y1794900D03*
X427650Y1839350D03*
X431000Y1815300D03*
X461000D03*
X422770Y1858400D03*
X427650Y1896500D03*
X429000Y1953300D03*
X422770Y1915550D03*
X427650Y2010800D03*
X446700Y1972700D03*
Y2029850D03*
X427650Y2067950D03*
X446700Y2087000D03*
X427650Y2125100D03*
X440350Y2182250D03*
X504560Y56000D03*
X516150Y103220D03*
X499580Y306420D03*
X527290Y448060D03*
X472100Y556650D03*
X483010Y539630D03*
X493820Y589270D03*
X544410Y584630D03*
X500380Y642970D03*
X510200Y594750D03*
X486960Y698930D03*
X537730Y697050D03*
X510200Y728100D03*
X529250Y715400D03*
X516550Y791600D03*
X484800D03*
X538000Y948300D03*
X484800Y905900D03*
X516550D03*
X481090Y1011270D03*
X507490Y1054670D03*
X538000Y1166300D03*
X484800Y1166250D03*
X516550Y1229750D03*
X484800Y1312300D03*
X539000Y1385300D03*
X485000Y1383300D03*
X517000Y1399300D03*
X516550Y1477400D03*
X529250Y1483750D03*
X472100Y1579000D03*
X516550Y1534550D03*
X539000Y1517300D03*
X516550Y1598050D03*
Y1718700D03*
X472100Y1676220D03*
X516550Y1782200D03*
X535600Y1820300D03*
X503850Y1839350D03*
X491150Y1871100D03*
X503850Y1896500D03*
X491150Y1928250D03*
X503850Y1953650D03*
X491150Y1985400D03*
X503850Y2010800D03*
X491150Y2042550D03*
X503850Y2067950D03*
X491150Y2099700D03*
X529800Y2146800D03*
X509800Y2131800D03*
X522900Y2182250D03*
X617750Y103220D03*
X609900Y204820D03*
X601180Y306420D03*
X598020Y367100D03*
X567350Y588400D03*
X601980Y642970D03*
X551180D03*
X588490Y698930D03*
X548300Y740800D03*
X580050Y791600D03*
X586400Y817000D03*
X567350Y753500D03*
X605450Y829700D03*
X557800Y904800D03*
X605400Y925000D03*
X586400Y924950D03*
X614800Y983800D03*
X577000Y1000300D03*
X596000Y1083300D03*
X558000Y1052300D03*
X615000Y1147300D03*
X596000Y1243300D03*
X615000Y1335300D03*
X558000Y1330300D03*
X576100Y1294980D03*
X596000Y1393300D03*
X605450Y1483750D03*
X586400D03*
X548300D03*
X567350D03*
X558000Y1537300D03*
X577000Y1517300D03*
X596000Y1537300D03*
X615000Y1517300D03*
X555800Y1842800D03*
X575800Y1880800D03*
X592750Y1928250D03*
X611800Y1960000D03*
X561000Y1972700D03*
Y2029850D03*
X567350Y2061600D03*
X586800Y2090800D03*
X567800Y2144800D03*
X599100Y2182250D03*
X663560Y56000D03*
X627000Y77300D03*
X692190Y356100D03*
X625190Y470330D03*
X644400Y571930D03*
X652780Y642970D03*
X638920Y692750D03*
X672120Y731200D03*
X637200Y766200D03*
X643550Y791600D03*
X624500Y880500D03*
X681650Y855100D03*
X662600Y867800D03*
X643550Y893200D03*
X624500Y924950D03*
X681650D03*
X662600D03*
X681650Y994800D03*
X634000Y1032300D03*
X662530Y975750D03*
X675300Y1090050D03*
X681650Y1198000D03*
X652800Y1135800D03*
X633800Y1242800D03*
X652800Y1310800D03*
X677700Y1294980D03*
X694350Y1382150D03*
X634000Y1360300D03*
X672760Y1396580D03*
X624500Y1483750D03*
X675300Y1477400D03*
X643550Y1483750D03*
X662530Y1483680D03*
X634000Y1537300D03*
X653000Y1513300D03*
X675300Y1566300D03*
Y1655200D03*
Y1744100D03*
Y1864750D03*
X651800Y2024800D03*
X630850Y1998100D03*
X675300Y1966350D03*
Y2055250D03*
X670300Y2102520D03*
X650800Y2062800D03*
X624500Y2137800D03*
X670300Y2181600D03*
X771680Y56000D03*
X719350Y103220D03*
X711500Y204820D03*
X702780Y306420D03*
X726550Y465420D03*
X746000Y571930D03*
X754380Y642970D03*
X703580D03*
X757850Y715400D03*
X707050Y791600D03*
X712760Y761680D03*
X763560D03*
X700650Y842450D03*
Y925000D03*
X718270Y915130D03*
X766280Y1193380D03*
X723560Y1396580D03*
X727800Y1474300D03*
X820950Y103220D03*
X825000Y77300D03*
X813100Y204820D03*
X798390Y393580D03*
X825590Y510060D03*
X801330Y584630D03*
X805180Y642970D03*
X853100Y683650D03*
X789600Y791600D03*
X814360Y761680D03*
X819580Y909670D03*
X823980Y1011270D03*
X840400Y1121800D03*
X779300Y1294980D03*
X825160Y1396580D03*
X848800Y1474300D03*
X870260Y56000D03*
X922550Y103220D03*
X914700Y204820D03*
X870230Y321740D03*
X884850Y448700D03*
X871260Y510980D03*
X902930Y584630D03*
X906780Y642970D03*
X855980D03*
X884850Y791600D03*
X865160Y761680D03*
X915960D03*
X921180Y909670D03*
X925580Y1011270D03*
X922490Y1108770D03*
X918680Y1210220D03*
X880900Y1294980D03*
X926730Y1398330D03*
X965660Y56000D03*
X942070Y249900D03*
X969280Y366380D03*
X943110Y439130D03*
X951380Y599900D03*
X980090Y713290D03*
X944160Y677360D03*
X980100Y791600D03*
X966760Y761680D03*
X999000Y1389300D03*
X979000D03*
X955000Y1403300D03*
X935650Y1471050D03*
X977000Y1473300D03*
X1064240Y56000D03*
X1024150Y103220D03*
X1023000Y77300D03*
X1041120Y294540D03*
X1014950Y367290D03*
X1081460Y444460D03*
X1030900Y499500D03*
X1054570Y559410D03*
X1023230Y671740D03*
X1075350Y759850D03*
X1065800Y791300D03*
X1043600Y766200D03*
Y791600D03*
X1016010Y749210D03*
X1056300Y759850D03*
X1075350Y912250D03*
X1066000Y923300D03*
X1039830Y957520D03*
X1037250Y905900D03*
X1056300Y912250D03*
X1039830Y1008320D03*
X1039500Y1109920D03*
X1039830Y1059120D03*
X1067000Y1053300D03*
X1069000Y1085300D03*
X1071000Y1189300D03*
X1078000Y1157300D03*
X1063000Y1171300D03*
X1020280Y1207750D03*
X1065000Y1223300D03*
X1020280Y1309350D03*
X1063000Y1327300D03*
X1027000Y1403300D03*
X1063000D03*
X1027000Y1473300D03*
X1125750Y103220D03*
X1112960Y222690D03*
X1158630Y223610D03*
X1086790Y295450D03*
X1102620Y644660D03*
X1088050Y734450D03*
X1084800Y791300D03*
X1107100Y766200D03*
Y791600D03*
X1094400Y759850D03*
X1085000Y935300D03*
X1113450Y905900D03*
X1094400Y912250D03*
X1138370Y1016930D03*
X1085000Y1041300D03*
X1101000Y1075300D03*
X1127000Y1103300D03*
X1115000Y1112300D03*
X1097000D03*
X1129000Y1125300D03*
X1089000Y1173300D03*
X1140000Y1175300D03*
X1148000Y1264300D03*
X1109000Y1263300D03*
X1099000Y1251300D03*
X1133000Y1225300D03*
X1149000Y1347300D03*
Y1287300D03*
X1098000Y1284300D03*
X1155000Y1403300D03*
X1099000D03*
Y1369300D03*
X1113000Y1385300D03*
X1133000D03*
X1149000Y1371300D03*
X1099000Y1473300D03*
X1169180Y56000D03*
X1227350Y103220D03*
X1223000Y77300D03*
X1186780Y152940D03*
X1207420Y237770D03*
X1164780Y456280D03*
X1183280Y554310D03*
X1201950Y652850D03*
X1234100Y791600D03*
X1164250D03*
X1193340Y761680D03*
X1210570Y909670D03*
X1189170Y1016430D03*
X1221400Y1109100D03*
X1174000Y1112300D03*
X1177000Y1067300D03*
X1189000Y1055300D03*
X1221400Y1083700D03*
X1231000Y1055300D03*
X1207000Y1163300D03*
X1219000Y1199300D03*
X1183000Y1175300D03*
X1233000Y1213300D03*
X1223000Y1241300D03*
X1173000Y1264300D03*
X1197000Y1225300D03*
X1183000Y1207300D03*
X1188000Y1279300D03*
X1221000Y1287300D03*
Y1339300D03*
X1171000Y1325300D03*
X1193000Y1374300D03*
X1221000Y1403300D03*
X1183000Y1473300D03*
X1280480Y56000D03*
X1237570Y152150D03*
X1244020Y202540D03*
X1291250Y245500D03*
X1303950Y220100D03*
X1246800Y232800D03*
X1265850Y334400D03*
X1278550Y321700D03*
X1303950Y309000D03*
X1285570Y415800D03*
X1284900Y436000D03*
X1303950Y537600D03*
X1265850Y613800D03*
X1246800Y715400D03*
X1294800Y791800D03*
X1265850Y880500D03*
X1303950Y874150D03*
Y855100D03*
X1284900Y867800D03*
X1246800Y893200D03*
Y963050D03*
X1261320Y907280D03*
X1290770Y1016430D03*
X1292590Y1049370D03*
X1259000Y1056300D03*
X1256000Y1085300D03*
X1300000Y1093300D03*
X1251000Y1113300D03*
X1269000Y1111300D03*
X1287000Y1197300D03*
Y1159300D03*
X1243000D03*
X1261000Y1155300D03*
X1275000Y1243300D03*
X1307000Y1245300D03*
X1302000Y1291300D03*
X1293000Y1335300D03*
X1259500Y1344050D03*
X1259000Y1291300D03*
X1281000D03*
X1273000Y1384300D03*
X1287000Y1423300D03*
X1259000D03*
X1267000Y1473300D03*
X1328950Y103220D03*
X1349000Y77300D03*
X1323000Y207400D03*
X1348400Y162950D03*
X1354750Y245500D03*
X1348400Y283600D03*
X1383890Y350870D03*
X1333090D03*
X1323000Y512200D03*
X1335700Y448700D03*
X1368060Y554070D03*
X1335700Y524900D03*
X1380190Y521130D03*
X1323000Y639200D03*
X1313800Y626800D03*
Y601800D03*
X1335700Y651900D03*
Y702700D03*
Y728100D03*
X1342050Y740800D03*
X1354750Y753500D03*
Y791600D03*
X1367450Y804300D03*
X1323000Y842400D03*
X1342050Y848750D03*
Y829700D03*
X1351000Y947300D03*
X1380150Y924950D03*
X1367450Y944000D03*
X1348000Y1044300D03*
X1314000Y1114300D03*
X1358000Y1149300D03*
X1314000Y1155300D03*
X1359000Y1201300D03*
Y1245300D03*
X1337000Y1209300D03*
X1329000Y1291300D03*
X1357000D03*
X1377000D03*
X1371000Y1307300D03*
X1361000Y1333300D03*
X1323000Y1329300D03*
X1351000Y1423300D03*
X1325000D03*
X1339000Y1381300D03*
X1351000D03*
X1325000D03*
X1371000Y1473300D03*
X1423580Y56000D03*
X1423880Y128380D03*
X1414040Y78260D03*
X1450000Y207400D03*
X1399200Y220100D03*
X1437300Y258200D03*
X1453000Y319300D03*
X1434240Y357620D03*
X1399200Y321700D03*
X1387030Y419530D03*
X1455000Y419300D03*
X1421880Y459220D03*
X1455000Y523300D03*
X1415400Y662420D03*
X1399200Y626500D03*
X1457000Y623300D03*
X1423800Y594800D03*
X1399200Y728100D03*
X1455000Y727300D03*
X1443650Y766200D03*
X1399200Y804300D03*
Y880500D03*
Y855100D03*
X1450000Y829700D03*
X1399200D03*
Y956700D03*
X1450000Y918600D03*
X1392370Y1016430D03*
X1438000Y1044300D03*
X1451210Y1090950D03*
X1403000Y1079300D03*
X1443710Y1145040D03*
X1399200Y1134500D03*
X1448000Y1194300D03*
X1393000Y1169300D03*
X1417220Y1165820D03*
X1442680Y1237380D03*
X1417220Y1242140D03*
X1394960D03*
X1457000Y1303300D03*
X1441000Y1321300D03*
X1405000Y1335300D03*
X1438000Y1429300D03*
X1457000Y1359300D03*
X1443000Y1375300D03*
X1389000Y1423300D03*
X1405000Y1375300D03*
X1389000Y1381300D03*
X1433620Y1466600D03*
X1475400Y55000D03*
X1499000Y131300D03*
X1495720Y200220D03*
X1475000Y141300D03*
X1509730Y249060D03*
X1513500Y302650D03*
X1478380Y382780D03*
X1485000Y485300D03*
X1515800Y459860D03*
X1487000Y587300D03*
X1515800Y628400D03*
X1489000Y687300D03*
X1487000Y787300D03*
X1515800Y781040D03*
Y924140D03*
X1493970Y1016430D03*
X1505000Y1043300D03*
X1515800Y1003640D03*
X1487090Y1102100D03*
X1480300Y1203240D03*
X1463000Y1244300D03*
X1480000Y1276300D03*
X1480300Y1344970D03*
Y1294170D03*
X1462000Y1290300D03*
X1480300Y1395770D03*
X1487000Y1473300D03*
X1475400Y2277500D03*
X1539000Y205300D03*
X1563500Y195920D03*
Y275420D03*
X1539000Y319300D03*
Y419300D03*
Y501300D03*
X1563500Y459860D03*
X1539000Y585300D03*
X1564300Y575700D03*
X1539000Y671300D03*
X1563500Y704720D03*
X1539000Y823300D03*
X1563500Y854180D03*
X1539000Y1009300D03*
X1563500Y1016360D03*
G54D14*
X211750Y2150500D03*
X268900Y1153550D03*
X1227750Y988450D03*
X1481750Y258200D03*
Y359800D03*
Y461400D03*
Y563000D03*
Y664600D03*
Y766200D03*
Y867800D03*
Y969400D03*
G54D15*
X1119800Y1032900D03*
X1157900D03*
X1119800Y1083700D03*
X1215050Y213750D03*
Y143900D03*
X1176950Y1299600D03*
Y1350400D03*
X1259500Y1229750D03*
X1291250D03*
X1367450Y1102750D03*
Y1071000D03*
X1329350Y1229750D03*
G54D16*
X1564300Y55000D03*
Y2277500D03*
G54D17*
G01X78400Y94530D02*
Y105800D01*
G01D02*
Y117070D01*
G01X67130Y105800D02*
X78400D01*
G01D02*
X89670D01*
G01X78400Y119930D02*
Y131200D01*
G01Y145330D02*
Y156600D01*
G01D02*
Y167870D01*
G01X67130Y156600D02*
X78400D01*
G01D02*
X89670D01*
G01X78400Y170730D02*
Y182000D01*
G01D02*
Y193270D01*
G01X67130Y182000D02*
X78400D01*
G01D02*
X89670D01*
G01X78400Y131200D02*
Y142470D01*
G01X67130Y131200D02*
X78400D01*
G01D02*
X89670D01*
G01X78400Y221530D02*
Y232800D01*
G01D02*
Y244070D01*
G01X67130Y232800D02*
X78400D01*
G01D02*
X89670D01*
G01X78400Y246930D02*
Y258200D01*
G01D02*
Y269470D01*
G01X67130Y258200D02*
X78400D01*
G01D02*
X89670D01*
G01X78400Y272330D02*
Y283600D01*
G01Y323130D02*
Y334400D01*
G01D02*
Y345670D01*
G01X67130Y334400D02*
X78400D01*
G01D02*
X89670D01*
G01X78400Y348530D02*
Y359800D01*
G01Y297730D02*
Y309000D01*
G01D02*
Y320270D01*
G01X67130Y309000D02*
X78400D01*
G01D02*
X89670D01*
G01X78400Y283600D02*
Y294870D01*
G01X67130Y283600D02*
X78400D01*
G01D02*
X89670D01*
G01X53000Y373930D02*
Y385200D01*
G01D02*
Y396470D01*
G01X41730Y385200D02*
X53000D01*
G01D02*
X64270D01*
G01X78400Y373930D02*
Y385200D01*
G01D02*
Y396470D01*
G01X67130Y385200D02*
X78400D01*
G01D02*
X89670D01*
G01X78400Y399330D02*
Y410600D01*
G01D02*
Y421870D01*
G01X67130Y410600D02*
X78400D01*
G01D02*
X89670D01*
G01X78400Y424730D02*
Y436000D01*
G01Y359800D02*
Y371070D01*
G01X67130Y359800D02*
X78400D01*
G01D02*
X89670D01*
G01X78400Y450130D02*
Y461400D01*
G01D02*
Y472670D01*
G01X67130Y461400D02*
X78400D01*
G01D02*
X89670D01*
G01X78400Y475530D02*
Y486800D01*
G01D02*
Y498070D01*
G01X67130Y486800D02*
X78400D01*
G01D02*
X89670D01*
G01X78400Y500930D02*
Y512200D01*
G01Y436000D02*
Y447270D01*
G01X67130Y436000D02*
X78400D01*
G01D02*
X89670D01*
G01X78400Y526330D02*
Y537600D01*
G01D02*
Y548870D01*
G01X67130Y537600D02*
X78400D01*
G01D02*
X89670D01*
G01X78400Y551730D02*
Y563000D01*
G01D02*
Y574270D01*
G01X67130Y563000D02*
X78400D01*
G01D02*
X89670D01*
G01X78400Y577130D02*
Y588400D01*
G01Y512200D02*
Y523470D01*
G01X67130Y512200D02*
X78400D01*
G01D02*
X89670D01*
G01X78400Y602530D02*
Y613800D01*
G01D02*
Y625070D01*
G01X67130Y613800D02*
X78400D01*
G01D02*
X89670D01*
G01X78400Y627930D02*
Y639200D01*
G01D02*
Y650470D01*
G01X67130Y639200D02*
X78400D01*
G01D02*
X89670D01*
G01X78400Y653330D02*
Y664600D01*
G01Y588400D02*
Y599670D01*
G01X67130Y588400D02*
X78400D01*
G01D02*
X89670D01*
G01X78400Y678730D02*
Y690000D01*
G01D02*
Y701270D01*
G01X67130Y690000D02*
X78400D01*
G01D02*
X89670D01*
G01X78400Y704130D02*
Y715400D01*
G01D02*
Y726670D01*
G01X67130Y715400D02*
X78400D01*
G01D02*
X89670D01*
G01X78400Y729530D02*
Y740800D01*
G01Y664600D02*
Y675870D01*
G01X67130Y664600D02*
X78400D01*
G01D02*
X89670D01*
G01X78400Y754930D02*
Y766200D01*
G01D02*
Y777470D01*
G01X67130Y766200D02*
X78400D01*
G01D02*
X89670D01*
G01X78400Y780330D02*
Y791600D01*
G01X67130D02*
X78400D01*
G01D02*
X89670D01*
G01X78400Y740800D02*
Y752070D01*
G01X67130Y740800D02*
X78400D01*
G01D02*
X89670D01*
G01X67130Y867800D02*
X78400D01*
G01D02*
X89670D01*
G01X67130Y817000D02*
X78400D01*
G01D02*
X89670D01*
G01X78400Y893200D02*
Y904470D01*
G01X67130Y893200D02*
X78400D01*
G01D02*
X89670D01*
G01X53000Y1478830D02*
Y1490100D01*
G01X41730D02*
X53000D01*
G01D02*
X64270D01*
G01X53000Y1732580D02*
Y1744100D01*
G01D02*
Y1755620D01*
G01X41480Y1744100D02*
X53000D01*
G01D02*
X64520D01*
G01X78400Y1871100D02*
Y1882370D01*
G01X67130Y1871100D02*
X78400D01*
G01D02*
X89670D01*
G01X78400Y1885230D02*
Y1896500D01*
G01D02*
Y1907770D01*
G01X67130Y1896500D02*
X78400D01*
G01D02*
X89670D01*
G01X78400Y1910630D02*
Y1921900D01*
G01D02*
Y1933170D01*
G01X67130Y1921900D02*
X78400D01*
G01D02*
X89670D01*
G01X78400Y1936030D02*
Y1947300D01*
G01D02*
Y1958570D01*
G01X67130Y1947300D02*
X78400D01*
G01D02*
X89670D01*
G01X78400Y1961430D02*
Y1972700D01*
G01D02*
Y1983970D01*
G01X67130Y1972700D02*
X78400D01*
G01D02*
X89670D01*
G01X78400Y1986830D02*
Y1998100D01*
G01D02*
Y2009370D01*
G01X67130Y1998100D02*
X78400D01*
G01D02*
X89670D01*
G01X78400Y2012230D02*
Y2023500D01*
G01D02*
Y2034770D01*
G01X67130Y2023500D02*
X78400D01*
G01D02*
X89670D01*
G01X53000Y2063030D02*
Y2074300D01*
G01D02*
Y2085570D01*
G01X41730Y2074300D02*
X53000D01*
G01D02*
X64270D01*
G01X78400Y2037630D02*
Y2048900D01*
G01D02*
Y2060170D01*
G01X67130Y2048900D02*
X78400D01*
G01D02*
X89670D01*
G01X78400Y2063030D02*
Y2074300D01*
G01D02*
Y2085570D01*
G01X67130Y2074300D02*
X78400D01*
G01D02*
X89670D01*
G01X78400Y2113830D02*
Y2125100D01*
G01D02*
Y2136370D01*
G01X67130Y2125100D02*
X78400D01*
G01D02*
X89670D01*
G01X78400Y2139230D02*
Y2150500D01*
G01D02*
Y2161770D01*
G01X67130Y2150500D02*
X78400D01*
G01D02*
X89670D01*
G01X78400Y2164630D02*
Y2175900D01*
G01D02*
Y2187170D01*
G01X67130Y2175900D02*
X78400D01*
G01D02*
X89670D01*
G01X103800Y373930D02*
Y385200D01*
G01D02*
Y396470D01*
G01X92530Y385200D02*
X103800D01*
G01D02*
X115070D01*
G01X103800Y1478830D02*
Y1490100D01*
G01X92530D02*
X103800D01*
G01D02*
X115070D01*
G01X103800Y1732580D02*
Y1744100D01*
G01D02*
Y1755620D01*
G01X92280Y1744100D02*
X103800D01*
G01D02*
X115320D01*
G01X103800Y2063030D02*
Y2074300D01*
G01D02*
Y2085570D01*
G01X92530Y2074300D02*
X103800D01*
G01D02*
X115070D01*
G01X232230Y1153550D02*
X243500D01*
G01X211750Y2138980D02*
Y2150500D01*
G01D02*
Y2162020D01*
G01X200230Y2150500D02*
X211750D01*
G01D02*
X223270D01*
G01X186350Y2139230D02*
Y2150500D01*
G01D02*
Y2161770D01*
G01X175080Y2150500D02*
X186350D01*
G01D02*
X197620D01*
G01X268900Y1142030D02*
Y1153550D01*
G01D02*
Y1165070D01*
G01X257380Y1153550D02*
X268900D01*
G01D02*
X280420D01*
G01X243500Y1142280D02*
Y1153550D01*
G01D02*
Y1164820D01*
G01Y1153550D02*
X254770D01*
G01X259700Y1515620D02*
X275370D01*
G03X281600Y1521850I0J6230D01*
G01Y1585350D01*
G03X275250Y1591700I-6350J0D01*
G01X259700D01*
G01X389550Y1515500D02*
X376850D01*
G02X370500Y1521850I0J6350D01*
G01Y1585350D01*
G02X376850Y1591700I6350J0D01*
G01X389550D01*
G01X383200Y1682030D02*
Y1693300D01*
G01D02*
Y1704570D01*
G01Y1693300D02*
X394470D01*
G01X332400Y1681780D02*
Y1693300D01*
G01D02*
Y1704820D01*
G01X320880Y1693300D02*
X332400D01*
G01X1119800Y1019380D02*
Y1032900D01*
G01D02*
Y1046420D01*
G01X1106280Y1032900D02*
X1119800D01*
G01D02*
X1133320D01*
G01X1215050Y130380D02*
Y143900D01*
G01D02*
Y157420D01*
G01X1201530Y143900D02*
X1215050D01*
G01D02*
X1228570D01*
G01X1227750Y976930D02*
Y988450D01*
G01D02*
Y999970D01*
G01X1216230Y988450D02*
X1227750D01*
G01D02*
X1239270D01*
G01X1202350Y977180D02*
Y988450D01*
G01D02*
Y999720D01*
G01X1191080Y988450D02*
X1202350D01*
G01D02*
X1213620D01*
G01X1367450Y1057480D02*
Y1071000D01*
G01D02*
Y1084520D01*
G01X1353930Y1071000D02*
X1367450D01*
G01D02*
X1380970D01*
G01X1329350Y1216230D02*
Y1229750D01*
G01D02*
Y1243270D01*
G01X1315830Y1229750D02*
X1329350D01*
G01D02*
X1342870D01*
G54D18*
G01X53000Y817000D02*
X63840Y806160D01*
G03X68330Y804300I4490J4490D01*
G01X164670D01*
G02X169160Y802440I0J-6350D01*
G01X172790Y798810D01*
G03X177280Y796950I4490J4490D01*
G01X187350D01*
G01X53000Y842400D02*
X63840Y831560D01*
G03X68330Y829700I4490J4490D01*
G01X177370D01*
G02X181860Y827840I0J-6350D01*
G01X186850Y822850D01*
G01X53000Y893200D02*
X63840Y882360D01*
G03X68330Y880500I4490J4490D01*
G01X164670D01*
G03X169160Y882360I0J6350D01*
G01X171290Y884490D01*
G02X175780Y886350I4490J-4490D01*
G01X186850D01*
G01X53000Y867800D02*
X63840Y856960D01*
G03X68330Y855100I4490J4490D01*
G01X177370D01*
G03X181860Y856960I0J6350D01*
G01X186350Y861450D01*
G01X103800Y842400D02*
X183720D01*
G02X188210Y840540I0J-6350D01*
G01X192700Y836050D01*
G01X103800Y817000D02*
X171020D01*
G02X175510Y815140I0J-6350D01*
G01X178640Y812010D01*
G03X183130Y810150I4490J4490D01*
G01X193200D01*
G01X103800Y867800D02*
X171020D01*
G03X175510Y869660I0J6350D01*
G01X178140Y872290D01*
G02X182630Y874150I4490J-4490D01*
G01X192700D01*
G01X103800Y893200D02*
X176200D01*
G03X180690Y895060I0J6350D01*
G01X183320Y897690D01*
G02X187810Y899550I4490J-4490D01*
G01X192700D01*
G01X167300Y715400D02*
Y613800D01*
G01X186350Y740800D02*
Y626500D01*
G01X434000Y1553600D02*
Y569350D01*
G01X414950Y1540900D02*
Y582050D01*
G01X453050Y1566300D02*
Y594750D01*
G01X472100Y1579000D02*
Y556650D01*
G01X510200Y728100D02*
Y594750D01*
G01X529250Y1483750D02*
Y715400D01*
G01X567350Y753500D02*
Y588400D01*
G01X548300Y1483750D02*
Y740800D01*
G01X567350Y1483750D02*
Y753500D01*
G01X605450Y829700D02*
Y917430D01*
X605400Y917480D01*
Y925000D01*
G01X586400Y924950D02*
Y817000D01*
G01X605450Y1483750D02*
Y932570D01*
X605400Y932520D01*
Y925000D01*
G01X586400Y1483750D02*
Y924950D01*
G01X624500D02*
Y880500D01*
G01X681650Y924950D02*
Y855100D01*
G01X662600Y924950D02*
Y867800D01*
G01X624500Y1483750D02*
Y924950D01*
G01X643550Y893200D02*
Y1483750D01*
G01X662530Y975750D02*
Y1483680D01*
G01X700650Y925000D02*
Y842450D01*
G01X1056300Y912250D02*
Y759850D01*
G01X1075350D02*
Y912250D01*
G01X1094400D02*
Y759850D01*
G01X1246800Y232800D02*
Y715400D01*
G01X1265850Y334400D02*
Y613800D01*
G01X1284900Y867800D02*
Y436000D01*
G01X1265850Y613800D02*
Y880500D01*
G01X1246800Y715400D02*
Y893200D01*
G01X1323000Y512200D02*
Y207400D01*
G01X1303950Y537600D02*
Y309000D01*
G01X1323000Y639200D02*
Y512200D01*
G01X1303950Y855100D02*
Y537600D01*
G01X1323000Y842400D02*
Y639200D01*
G01X1342050Y829700D02*
Y740800D01*
G01X1367450Y944000D02*
Y804300D01*
M02*
