M48
METRIC,TZ
T01C.5
T02C1.
T03C1.2
T04C2.7
T05C2.7
;LEADER: 12 
;HEADER: 
;CODE  : ASCII 
;FILE  : BVP_04V2-1-2.drl for  ... layers TOP and BOTTOM
;T01 Holesize 1. = 0.500000 Tolerance = +0.000000/-0.000000 PLATED MM Quantity = 683
;T02 Holesize 2. = 1.000000 Tolerance = +0.000000/-0.000000 PLATED MM Quantity = 221
;T03 Holesize 3. = 1.200000 Tolerance = +0.000000/-0.000000 PLATED MM Quantity = 9
;T04 Holesize 4. = 2.700000 Tolerance = +0.000000/-0.000000 PLATED MM Quantity = 4
;T05 Holesize 5. = 2.700000 Tolerance = +0.000000/-0.000000 NON_PLATED MM Quantity = 2
%
G90
T01
X453050Y1566300
Y594750
X414950Y1540900
Y582050
X662530Y975750
Y1483680
X567350Y588400
Y753500
Y1483750
X548300Y740800
Y1483750
X529250Y715400
Y1483750
X1056300Y912250
Y759850
X186350Y626500
Y740800
X1246800Y715400
Y893200
Y232800
X643550Y893200
Y1483750
X1367450Y804300
Y944000
X586400Y924950
Y1483750
Y817000
X662600Y867800
Y924950
X1284900Y436000
Y867800
X605450Y1483750
Y829700
X1342050
Y740800
X605400Y925000
X681650Y924950
Y855100
X1303950
Y537600
Y309000
X389550Y1591700
Y1515500
X446700Y2087000
R02Y-57150
Y1794900
X192700Y874150
X208000Y1700320
X250390Y1534700
X259700Y1528200
Y1604400
X141900Y1731860
X187350Y796950
X1094400Y912250
Y759850
X510200Y728100
Y594750
X193200Y810150
X192700Y899550
X186350Y861450
X186850Y886350
Y822850
X259700Y1591700
Y1515620
X192700Y836050
X389550Y1528200
X472100Y1676220
X457000Y1609300
X389550Y1610750
X375000Y1481600
X355790Y939800
X300650Y905900
X299000Y791600
X358330Y766200
X357800Y651900
X257000Y681300
X1183000Y1207300
X422770Y1915550
R02Y-57150
X1183000Y1175300
X1140000
X1197000Y1225300
X1133000
X1065000Y1223300
X1063000Y1403300
Y1327300
Y1171300
X1078000Y1157300
X1089000Y1173300
X1071000Y1189300
X1099000Y1251300
X1109000Y1263300
X1098000Y1284300
X1148000Y1264300
X1173000
X1149000Y1287300
Y1347300
X1171000Y1325300
X1149000Y1371300
X1133000Y1385300
X1113000
X1099000Y1369300
Y1403300
X1155000
X1221000
Y1339300
Y1287300
X1223000Y1241300
X1219000Y1199300
X1207000Y1163300
X1261000Y1155300
X1269000Y1111300
X1251000Y1113300
X1243000Y1159300
X1233000Y1213300
X1287000Y1159300
X1337000Y1209300
X1287000Y1197300
X1307000Y1245300
X1275000Y1243300
X1281000Y1291300
X1259000
X1259500Y1344050
X1259000Y1423300
X1287000
X1293000Y1335300
X1323000Y1329300
X1325000Y1381300
X1351000
X1339000
X1325000Y1423300
X1351000
X1389000Y1381300
X1405000Y1375300
X1389000Y1423300
X1443000Y1375300
X1457000Y1359300
X1361000Y1333300
X1405000Y1335300
X1441000Y1321300
X1457000Y1303300
X1371000Y1307300
X1377000Y1291300
X1357000
X1359000Y1245300
X1394960Y1242140
X1359000Y1201300
X1314000Y1155300
Y1114300
X1300000Y1093300
X1256000Y1085300
X1259000Y1056300
X1231000Y1055300
X1221400Y1083700
X1189000Y1055300
X1177000Y1067300
X1069000Y1085300
X1027000Y1403300
X1515800Y1003640
Y924140
Y781040
Y628400
Y459860
X125000Y325300
X396440Y56000
X504560
X663560
X771680
X870260
X965660
X1064240
X1169180
X1280480
X1414040Y78260
X1423580Y56000
X1563500Y195920
Y275420
Y459860
X1564300Y575700
X1563500Y704720
Y854180
Y1016360
X1417220Y1165820
Y1242140
X129320Y348560
X196100Y281780
X262880Y218180
X332840Y145040
X399620Y78260
X627000Y77300
R02X198000
X1223000
X1349000
X1499000Y131300
X1475000Y141300
X1539000Y205300
Y319300
Y419300
Y501300
Y585300
Y671300
Y823300
Y1009300
X1505000Y1043300
X1348000Y1044300
X1438000
X1393000Y1169300
X1358000Y1149300
X1403000Y1079300
X1174000Y1112300
X1221400Y1109100
X1129000Y1125300
X1097000Y1112300
X1115000
X1127000Y1103300
X1101000Y1075300
X1067000Y1053300
X1302000Y1291300
X1329000
X1462000Y1290300
X1480000Y1276300
X1463000Y1244300
X955000Y1403300
X979000Y1389300
X999000
X977000Y1473300
X1027000
X1099000
R02X84000
X1371000
X1487000
X1448000Y1194300
X1273000Y1384300
X1193000Y1374300
X1188000Y1279300
X1438000Y1429300
X1085000Y1041300
X670300Y2181600
X599100Y2182250
X522900
X509800Y2131800
X586800Y2090800
X650800Y2062800
X670300Y2102520
X1480300Y1294170
R02Y50800
X1433620Y1466600
X1399200Y1134500
X1451210Y1090950
X1292590Y1049370
X1487090Y1102100
X1480300Y1203240
X1442680Y1237380
X1443710Y1145040
X153110Y954870
X211750Y975750
X300650
X300280Y1078920
R02Y101600
X300650Y1394850
X251130Y1396580
X149530
X56490Y1368370
X45700Y1318730
Y1217130
Y1166330
Y1115530
Y1013930
X62940Y913890
X113740Y913900
X400820Y909670
X718270Y915130
X819580Y909670
X921180
X1037250Y905900
X1039830Y957520
R02Y50800
X1039500Y1109920
X1020280Y1207750
Y1309350
X926730Y1398330
X825160Y1396580
X723560
X672760
X517000Y1399300
X367960Y1396580
X355720Y1347280
Y1245680
Y1194880
Y1144080
Y1042480
X1493970Y1016430
R03X-101600
X1138370Y1016930
X1113450Y905900
X1210570Y909670
X1261320Y907280
X1399200Y804300
X1487000Y787300
X398780Y642970
X500380
X551180
R07X50800
X944160Y677360
X980090Y713290
X1016010Y749210
X966760Y761680
R05X-50800
X672120Y731200
X638920Y692750
X588490Y698930
X537730Y697050
X486960Y698930
X130360Y686230
X147080Y638260
X1399200Y321700
X1278550
X1333090Y350870
X1383890
X1434240Y357620
X1478380Y382780
X1455000Y419300
X1387030Y419530
X1285570Y415800
X1335700Y448700
X1421880Y459220
X1485000Y485300
X1455000Y523300
X1380190Y521130
X1335700Y524900
X1368060Y554070
X1423800Y594800
X1487000Y587300
X1457000Y623300
X1399200Y626500
X1335700Y651900
X1415400Y662420
X1489000Y687300
X1455000Y727300
X1399200Y728100
X1294800Y791800
X1193340Y761680
X1088050Y734450
X1023230Y671740
X951380Y599900
X902930Y584630
X801330
X871260Y510980
X943110Y439130
X1014950Y367290
X1086790Y295450
X1158630Y223610
X1207420Y237770
X1244020Y202540
X1237570Y152150
X1186780Y152940
X1112960Y222690
X1041120Y294540
X969280Y366380
X884850Y448700
X825590Y510060
X746000Y571930
X644400
X544410Y584630
X493820Y589270
X483010Y539630
X381420Y540180
X279820
X178580Y539680
X127820Y541650
X125150Y389290
X163110Y355530
X234950Y283690
X306800Y211840
X378640Y140000
X414560Y104080
X516150Y103220
R08X101600
X1423880Y128380
X1495720Y200220
X1509730Y249060
X1513500Y302650
X126770Y102000
R02X101600
X262540Y177760
X190690Y249610
X198680Y1056470
R02Y101600
X160950Y1331350
X147300Y1246400
Y1144800
X481090Y1011270
X507490Y1054670
X675300Y1090050
X823980Y1011270
X925580
X922490Y1108770
X918680Y1210220
X880900Y1294980
R03X-101600
X1164780Y456280
X1183280Y554310
X1201950Y652850
X1102620Y644660
X1054570Y559410
X1030900Y499500
X1081460Y444460
X457500Y204820
X609900
X711500
R02X101600
X942070Y249900
X870230Y321740
X798390Y393580
X726550Y465420
X625190Y470330
X527290Y448060
X427530Y438580
X325930
X278650Y383680
X386410Y275920
X840400Y1121800
X766280Y1193380
X499580Y306420
R02X101600
X692190Y356100
X598020Y367100
X1303950Y220100
X1348400Y162950
Y283600
X1437300Y258200
X1291250Y245500
X1354750
X1399200Y220100
X1453000Y319300
X757850Y715400
X853100Y683650
X395900Y791600
Y766200
X484800Y791600
X516550
X580050
X707050
X789600
X643550
X637200Y766200
X884850Y791600
X980100
X1043600
X1107100
X1164250
X1234100
X1354750
X1399200Y829700
X1450000
X1380150Y924950
X1450000Y918600
X1399200Y855100
X1342050Y848750
X1351000Y947300
X1399200Y956700
X1246800Y963050
X675300Y1477400
R03Y88900
Y1864750
Y1966350
Y2055250
X440350Y2182250
X370500Y2188600
X383200Y2163200
X379000Y2127300
Y2069300
Y2043300
Y2013300
Y1957300
Y1927300
Y1899300
R02Y-28000
Y1813300
Y1785300
X427650Y2067950
X491150Y2099700
X503850Y2067950
X561000Y2029850
X611800Y1960000
X491150Y2042550
X427650Y2010800
X503850
X592750Y1928250
X561000Y1972700
X429000Y1953300
X491150Y1985400
X503850Y1953650
X575800Y1880800
X630850Y1998100
X651800Y2024800
X653000Y1513300
X634000Y1537300
X615000Y1517300
X596000Y1537300
X577000Y1517300
X558000Y1537300
X539000Y1517300
X516550Y1534550
Y1598050
Y1718700
Y1782200
X461000Y1815300
X431000
X419000Y1777300
X467000Y1769300
X465750Y1693300
X395900Y1750450
X440350Y1731400
X389550Y1648850
X414950Y1604400
X555800Y1842800
X491150Y1928250
X503850Y1896500
X427650
Y1839350
X491150Y1871100
X503850Y1839350
X535600Y1820300
X567350Y2061600
X427650Y2125100
X624500Y2137800
X379000Y2099300
X485000Y1383300
X484800Y1312300
X516550Y1229750
X484800Y1166250
X516550Y905900
X484800
X558000Y1052300
X538000Y1166300
X596000Y1243300
X615000Y1147300
X634000Y1360300
Y1032300
X652800Y1135800
X633800Y1242800
X596000Y1083300
X577000Y1000300
X538000Y948300
X463000Y1478300
X443000
X425000
X462000Y1547300
X425000Y1374300
X443000Y1315300
X462000Y1351300
X424000Y1122300
X444000Y1060300
X463000Y1117300
X424000Y920300
X443000Y953300
X463000Y908300
X425000Y703300
X402250Y702700
X443000Y669300
X463000Y638300
X454000Y574300
X395000Y604300
X197000
X200000Y699300
X252000Y697300
X203000Y642300
X370500Y956700
X237150Y664600
X370500Y639200
X351450Y709050
Y905900
Y810650
X300650Y848750
X307000Y753500
X300650Y664600
X160950Y924950
X256200Y778900
X199050
Y848750
X1085000Y935300
X1066000Y923300
X694350Y1382150
X402250
X935650Y1471050
X681650Y1198000
Y994800
X539000Y1385300
X558000Y1330300
X596000Y1393300
X615000Y1335300
X153000Y215300
X198000Y149300
X516550Y1477400
X727800Y1474300
X848800
X1107100Y766200
X1043600
X1084800Y791300
X1065800
X1450000Y207400
X652800Y1310800
X614800Y983800
X557800Y904800
X567800Y2144800
X529800Y2146800
X262550Y950350
X307000
X268900Y918600
X180000Y944000
X233800Y938800
X255800Y848800
X1399200Y880500
X1313800Y601800
Y626800
X1335700Y728100
X1354750Y753500
X1443650Y766200
X1335700Y702700
X1303950Y874150
X268900Y1896500
X211750Y2182250
X268900Y2130380
R02Y-57150
Y1956300
Y1840420
X472100Y1579000
Y556650
X434000Y1553600
Y569350
X1265850Y613800
X624500Y924950
Y1483750
Y880500
X1265850
Y334400
X1075350Y912250
Y759850
X167300Y613800
Y715400
X700650Y925000
Y842450
X1323000Y842400
Y639200
Y512200
Y207400
T02
X408600Y1693300
X383200
X332400
X281600
X1259500Y1229750
X1291250
X1329350
X1481750Y842400
Y867800
Y740800
Y766200
Y639200
Y664600
Y537600
Y563000
Y436000
Y461400
Y334400
Y359800
Y232800
Y258200
Y944000
Y969400
X53000Y1439300
Y1667900
Y1693300
R08Y25400
Y1464700
Y1921900
Y1947300
R08Y25400
Y1490100
Y2175900
Y2201300
Y2226700
Y1515500
R05Y25400
X78400Y1439300
Y1667900
Y1693300
R08Y25400
Y1464700
Y1921900
Y1947300
R08Y25400
Y1490100
Y2175900
Y2201300
Y2226700
Y1515500
R05Y25400
X103800Y1439300
Y1667900
Y1693300
R08Y25400
Y1464700
Y1921900
Y1947300
R08Y25400
Y1490100
Y2175900
Y2201300
Y2226700
Y1515500
R05Y25400
X53000Y105800
Y334400
Y359800
R08Y25400
Y131200
Y588400
Y613800
R08Y25400
Y156600
Y842400
Y867800
Y893200
Y182000
R05Y25400
X78400Y105800
Y334400
Y359800
R08Y25400
Y131200
Y588400
Y613800
R08Y25400
Y156600
Y842400
Y867800
Y893200
Y182000
R05Y25400
X103800Y105800
Y334400
Y359800
R08Y25400
Y131200
Y588400
Y613800
R08Y25400
Y156600
Y842400
Y867800
Y893200
Y182000
R05Y25400
X186350Y2150500
X211750
X243500Y1153550
X268900
X1202350Y988450
X1227750
T03
X1119800Y1032900
X1215050Y143900
X1367450Y1102750
Y1071000
X1157900Y1032900
X1119800Y1083700
X1176950Y1299600
Y1350400
X1215050Y213750
T04
X27600Y1388500
Y2277500
Y55000
Y944000
T05
X1564300Y2277500
Y55000
M30
