G04 ================== begin FILE IDENTIFICATION RECORD ==================*
G04 Layout Name:  d:/Project/Circuit/ORCAD/BVP/04v2/pcb/BVP_04V2.brd*
G04 Film Name:    MASK_BOT*
G04 File Format:  Gerber RS274X*
G04 File Origin:  Cadence Allegro 16.6-S019*
G04 Origin Date:  Tue Jan 21 09:46:16 2014*
G04 *
G04 Layer:  PACKAGE GEOMETRY/SOLDERMASK_BOTTOM*
G04 Layer:  PIN/SOLDERMASK_BOTTOM*
G04 Layer:  VIA CLASS/SOLDERMASK_BOTTOM*
G04 *
G04 Offset:    (0.000 0.000)*
G04 Mirror:    No*
G04 Mode:      Positive*
G04 Rotation:  0*
G04 FullContactRelief:  No*
G04 UndefLineWidth:     0.000*
G04 ================== end FILE IDENTIFICATION RECORD ====================*
%FSLAX34Y34*MOMM*%
%IR0*IPPOS*OFA0.00000B0.00000*MIA0B0*SFA1.00000B1.00000*%
%ADD13C,3.*%
%ADD15C,2.2*%
%ADD10C,4.2*%
%ADD14C,1.8*%
%ADD16C,2.8*%
%ADD11C,1.75*%
%ADD12R,1.75X1.75*%
%LPD*%
G75*
G54D10*
X27600Y55000D03*
Y944000D03*
Y1388500D03*
Y2277500D03*
G54D11*
X78400Y131200D03*
X53000D03*
X78400Y207400D03*
Y182000D03*
Y156600D03*
X53000Y207400D03*
Y182000D03*
Y156600D03*
X78400Y283600D03*
Y258200D03*
Y232800D03*
X53000Y283600D03*
Y258200D03*
Y232800D03*
X78400Y309000D03*
Y359800D03*
X53000Y309000D03*
Y359800D03*
X78400Y436000D03*
Y410600D03*
Y385200D03*
X53000Y436000D03*
Y410600D03*
Y385200D03*
X78400Y512200D03*
Y486800D03*
Y461400D03*
X53000Y512200D03*
Y486800D03*
Y461400D03*
X78400Y563000D03*
Y537600D03*
X53000Y563000D03*
Y537600D03*
X78400Y664600D03*
Y639200D03*
Y613800D03*
X53000Y664600D03*
Y639200D03*
Y613800D03*
X78400Y740800D03*
Y715400D03*
Y690000D03*
X53000Y740800D03*
Y715400D03*
Y690000D03*
X78400Y817000D03*
Y791600D03*
Y766200D03*
X53000Y817000D03*
Y791600D03*
Y766200D03*
X78400Y893200D03*
Y867800D03*
X53000Y893200D03*
Y867800D03*
X78400Y1490100D03*
Y1464700D03*
X53000Y1490100D03*
Y1464700D03*
X78400Y1566300D03*
Y1540900D03*
Y1515500D03*
X53000Y1566300D03*
Y1540900D03*
Y1515500D03*
X78400Y1642500D03*
Y1617100D03*
Y1591700D03*
X53000Y1642500D03*
Y1617100D03*
Y1591700D03*
X78400Y1718700D03*
Y1693300D03*
X53000Y1718700D03*
Y1693300D03*
X78400Y1794900D03*
Y1769500D03*
Y1744100D03*
X53000Y1794900D03*
Y1769500D03*
Y1744100D03*
X78400Y1871100D03*
Y1845700D03*
Y1820300D03*
X53000Y1871100D03*
Y1845700D03*
Y1820300D03*
X78400Y1947300D03*
Y1896500D03*
X53000Y1947300D03*
Y1896500D03*
X78400Y2023500D03*
Y1998100D03*
Y1972700D03*
X53000Y2023500D03*
Y1998100D03*
Y1972700D03*
X78400Y2099700D03*
Y2074300D03*
Y2048900D03*
X53000Y2099700D03*
Y2074300D03*
Y2048900D03*
X78400Y2150500D03*
Y2125100D03*
X53000Y2150500D03*
Y2125100D03*
X78400Y2226700D03*
Y2201300D03*
X53000Y2226700D03*
Y2201300D03*
X103800Y131200D03*
Y207400D03*
Y182000D03*
Y156600D03*
Y283600D03*
Y258200D03*
Y232800D03*
Y309000D03*
Y359800D03*
Y436000D03*
Y410600D03*
Y385200D03*
Y512200D03*
Y486800D03*
Y461400D03*
Y563000D03*
Y537600D03*
Y664600D03*
Y639200D03*
Y613800D03*
Y740800D03*
Y715400D03*
Y690000D03*
Y817000D03*
Y791600D03*
Y766200D03*
Y893200D03*
Y867800D03*
Y1490100D03*
Y1464700D03*
Y1566300D03*
Y1540900D03*
Y1515500D03*
Y1642500D03*
Y1617100D03*
Y1591700D03*
Y1718700D03*
Y1693300D03*
Y1794900D03*
Y1769500D03*
Y1744100D03*
Y1871100D03*
Y1845700D03*
Y1820300D03*
Y1947300D03*
Y1896500D03*
Y2023500D03*
Y1998100D03*
Y1972700D03*
Y2099700D03*
Y2074300D03*
Y2048900D03*
Y2150500D03*
Y2125100D03*
Y2226700D03*
Y2201300D03*
X281600Y1693300D03*
X332400D03*
X383200D03*
G54D12*
X78400Y105800D03*
X53000D03*
X78400Y334400D03*
X53000D03*
X78400Y588400D03*
X53000D03*
X78400Y842400D03*
X53000D03*
X78400Y1439300D03*
X53000D03*
X78400Y1667900D03*
X53000D03*
X78400Y1921900D03*
X53000D03*
X78400Y2175900D03*
X53000D03*
X103800Y105800D03*
Y334400D03*
Y588400D03*
Y842400D03*
Y1439300D03*
Y1667900D03*
Y1921900D03*
Y2175900D03*
X243500Y1153550D03*
X186350Y2150500D03*
X408600Y1693300D03*
X1202350Y988450D03*
X1481750Y232800D03*
Y334400D03*
Y436000D03*
Y537600D03*
Y639200D03*
Y740800D03*
Y842400D03*
Y944000D03*
G54D13*
X103800Y55000D03*
Y2277500D03*
X1475400Y55000D03*
Y2277500D03*
G54D14*
X211750Y2150500D03*
X268900Y1153550D03*
X1227750Y988450D03*
X1481750Y258200D03*
Y359800D03*
Y461400D03*
Y563000D03*
Y664600D03*
Y766200D03*
Y867800D03*
Y969400D03*
G54D15*
X1119800Y1032900D03*
X1157900D03*
X1119800Y1083700D03*
X1215050Y213750D03*
Y143900D03*
X1176950Y1299600D03*
Y1350400D03*
X1259500Y1229750D03*
X1291250D03*
X1367450Y1102750D03*
Y1071000D03*
X1329350Y1229750D03*
G54D16*
X1564300Y55000D03*
Y2277500D03*
M02*
