G04 ================== begin FILE IDENTIFICATION RECORD ==================*
G04 Layout Name:  d:/Project/Circuit/ORCAD/BVP/04v2/pcb/BVP_04V2.brd*
G04 Film Name:    SILK_TOP*
G04 File Format:  Gerber RS274X*
G04 File Origin:  Cadence Allegro 16.6-S019*
G04 Origin Date:  Tue Jan 21 10:15:28 2014*
G04 *
G04 Layer:  MANUFACTURING/AUTOSILK_TOP*
G04 *
G04 Offset:    (0.000 0.000)*
G04 Mirror:    No*
G04 Mode:      Positive*
G04 Rotation:  0*
G04 FullContactRelief:  No*
G04 UndefLineWidth:     0.200*
G04 ================== end FILE IDENTIFICATION RECORD ====================*
%FSLAX34Y34*MOMM*%
%IR0*IPPOS*OFA0.00000B0.00000*MIA0B0*SFA1.00000B1.00000*%
%ADD10C,.2*%
%ADD11C,.5*%
%ADD12C,.15*%
%ADD13C,.25*%
G75*
%LPD*%
G75*
G54D10*
G01X7600Y974000D02*
X57600D01*
Y934000D01*
X37600Y914000D01*
Y84000D01*
X57600Y64000D01*
Y24000D01*
X7600D01*
G01Y2307500D02*
X57600D01*
Y2267500D01*
X37600Y2247500D01*
Y1417500D01*
X57600Y1397500D01*
Y1357500D01*
X7600D01*
G01X141900Y735300D02*
Y746300D01*
G01Y709900D02*
Y720900D01*
G01X161600Y843500D02*
Y790500D01*
X147600D01*
Y843500D01*
X161600D01*
G01Y907000D02*
Y854000D01*
X147600D01*
Y907000D01*
X161600D01*
G01X140600Y1438700D02*
X136600D01*
Y1490700D01*
X140600D01*
G01X142750Y1572650D02*
X153750D01*
G01X138200Y1635050D02*
Y1688050D01*
X152200D01*
Y1635050D01*
X138200D01*
G01X141900Y1941800D02*
Y1952800D01*
G01Y1916400D02*
Y1927400D01*
G01Y1891000D02*
Y1902000D01*
G01Y1978200D02*
Y1967200D01*
G01Y2003600D02*
Y1992600D01*
G01Y2029000D02*
Y2018000D01*
G01Y2054400D02*
Y2043400D01*
G01X134250Y2125700D02*
X130250D01*
Y2073700D01*
X134250D01*
G01X223800Y549200D02*
Y602200D01*
X237800D01*
Y549200D01*
X223800D01*
G01X220750Y713800D02*
Y766800D01*
X234750D01*
Y713800D01*
X220750D01*
G01Y790000D02*
Y843000D01*
X234750D01*
Y790000D01*
X220750D01*
G01Y853500D02*
Y906500D01*
X234750D01*
Y853500D01*
X220750D01*
G01X248450Y933700D02*
X219450D01*
Y942200D01*
X248450D01*
Y933700D01*
G01X168600Y1438700D02*
X172600D01*
Y1490700D01*
X168600D01*
G01X161800Y1572650D02*
X172800D01*
G01X234900Y1748350D02*
X429900D01*
Y1676350D01*
X234900D01*
Y1748350D01*
G01X162250Y2125700D02*
X166250D01*
Y2073700D01*
X162250D01*
G01X361350Y773050D02*
Y645050D01*
X294850D01*
Y773050D01*
X361350D01*
G01X294850Y784750D02*
Y912750D01*
X361350D01*
Y784750D01*
X294850D01*
G01X357250Y1611450D02*
Y1508450D01*
X290750D01*
Y1611450D01*
X357250D01*
G01X252300Y1626500D02*
X244300D01*
G01X252300Y1658500D02*
X244300D01*
G01X289250Y1790950D02*
Y1836950D01*
X351250D01*
Y1790950D01*
X289250D01*
G01Y1848100D02*
Y1894100D01*
X351250D01*
Y1848100D01*
X289250D01*
G01Y1905250D02*
Y1951250D01*
X351250D01*
Y1905250D01*
X289250D01*
G01X350150Y2008400D02*
Y1962400D01*
X288150D01*
Y2008400D01*
X350150D01*
G01Y2065550D02*
Y2019550D01*
X288150D01*
Y2065550D01*
X350150D01*
G01Y2122700D02*
Y2076700D01*
X288150D01*
Y2122700D01*
X350150D01*
G01Y2179850D02*
Y2133850D01*
X288150D01*
Y2179850D01*
X350150D01*
G01X414950Y676450D02*
Y665450D01*
G01X409450Y1515500D02*
X420450D01*
G01X428500D02*
X439500D01*
G01X431650Y1626500D02*
X423650D01*
G01X431650Y1658500D02*
X423650D01*
G01X395900Y1748350D02*
Y1676350D01*
G01X402250Y1795750D02*
Y1806750D01*
G01Y1878300D02*
Y1889300D01*
G01Y1821150D02*
Y1832150D01*
G01Y1852900D02*
Y1863900D01*
G01Y1935450D02*
Y1946450D01*
G01Y1910050D02*
Y1921050D01*
G01Y2003600D02*
Y1992600D01*
G01Y2035350D02*
Y2024350D01*
G01Y1978200D02*
Y1967200D01*
G01Y2060750D02*
Y2049750D01*
G01Y2117900D02*
Y2106900D01*
G01Y2092500D02*
Y2081500D01*
G01Y2149650D02*
Y2138650D01*
G01X413050Y2193550D02*
Y2164550D01*
X406550D01*
Y2193550D01*
X413050D01*
G01X610400Y952250D02*
X581400D01*
Y958750D01*
X610400D01*
Y952250D01*
G01X627150Y707450D02*
Y760450D01*
X641150D01*
Y707450D01*
X627150D01*
G01X686600Y952250D02*
X657600D01*
Y958750D01*
X686600D01*
Y952250D01*
G01X648500D02*
X619500D01*
Y958750D01*
X648500D01*
Y952250D01*
G01X724700D02*
X695700D01*
Y958750D01*
X724700D01*
Y952250D01*
G01X931650Y1423300D02*
X939650D01*
G01X931650Y1455300D02*
X939650D01*
G01X1068150Y1109100D02*
X1057150D01*
G01X1105000Y1149000D02*
Y1120000D01*
X1096500D01*
Y1149000D01*
X1105000D01*
G01X1139700Y1134500D02*
X1150700D01*
G01X1195100Y1201050D02*
X1146100D01*
Y1233050D01*
X1195100D01*
Y1201050D01*
G01X1131650Y1198000D02*
X1120650D01*
G01X1101600D02*
X1112600D01*
G01X1121000Y1310000D02*
Y1340000D01*
X1144000D01*
Y1310000D01*
X1121000D01*
G01X1123000Y1340000D02*
X1121000Y1338000D01*
G01X1125000Y1340000D02*
X1121000Y1336000D01*
G01X1127000Y1340000D02*
X1121000Y1334000D01*
G01X1129000Y1340000D02*
X1121000Y1332000D01*
G01X1131000Y1340000D02*
X1121000Y1330000D01*
G01X1196850Y182000D02*
X1207850D01*
G01X1196850Y1090050D02*
X1207850D01*
G01X1158750Y1134500D02*
X1169750D01*
G01X1207850D02*
X1196850D01*
G01X1215900D02*
X1226900D01*
G01X1293050Y1079450D02*
X1264050D01*
Y1087950D01*
X1293050D01*
Y1079450D01*
G01X1284050Y1134500D02*
X1273050D01*
G01X1303100D02*
X1292100D01*
G01X1277700Y1267850D02*
X1266700D01*
G01X1311150Y1090050D02*
X1322150D01*
G01X1323850Y1267850D02*
X1334850D01*
G01X1317850Y1297300D02*
Y1327300D01*
X1340850D01*
Y1297300D01*
X1317850D01*
G01X1319850Y1327300D02*
X1317850Y1325300D01*
G01X1321850Y1327300D02*
X1317850Y1323300D01*
G01X1323850Y1327300D02*
X1317850Y1321300D01*
G01X1325850Y1327300D02*
X1317850Y1319300D01*
G01X1327850Y1327300D02*
X1317850Y1317300D01*
G01X1424600Y201900D02*
Y212900D01*
G01Y227300D02*
Y238300D01*
G01X1495750Y219500D02*
G03X1467750I-14000J25930D01*
G01X1424600Y328900D02*
Y339900D01*
G01Y303500D02*
Y314500D01*
G01X1495750Y321100D02*
G03X1467750I-14000J25930D01*
G01X1424600Y430500D02*
Y441500D01*
G01Y506700D02*
Y517700D01*
G01X1495750Y422700D02*
G03X1467750I-14000J25930D01*
G01X1424600Y532100D02*
Y543100D01*
G01X1495750Y524300D02*
G03X1467750I-14000J25930D01*
G01X1424600Y633700D02*
Y644700D01*
G01Y608300D02*
Y619300D01*
G01X1495750Y625900D02*
G03X1467750I-14000J25930D01*
G01X1424600Y735300D02*
Y746300D01*
G01Y709900D02*
Y720900D01*
G01Y811500D02*
Y822500D01*
G01X1495750Y727500D02*
G03X1467750I-14000J25930D01*
G01X1424600Y836900D02*
Y847900D01*
G01X1495750Y829100D02*
G03X1467750I-14000J25930D01*
G01X1424600Y938500D02*
Y949500D01*
G01X1495750Y930700D02*
G03X1467750I-14000J25930D01*
G01X1430100Y1267850D02*
X1419100D01*
G01X1449150D02*
X1438150D01*
G01X1392000D02*
X1381000D01*
G01X1449100Y1315350D02*
X1400100D01*
Y1347350D01*
X1449100D01*
Y1315350D01*
G01X1467750Y219500D02*
X1495750D01*
G01X1467750Y321100D02*
X1495750D01*
G01X1467750Y422700D02*
X1495750D01*
G01X1467750Y524300D02*
X1495750D01*
G01X1467750Y625900D02*
X1495750D01*
G01X1467750Y727500D02*
X1495750D01*
G01X1467750Y829100D02*
X1495750D01*
G01X1467750Y930700D02*
X1495750D01*
G54D11*
G01X307350Y902750D02*
G03X304850Y905250I-2500J0D01*
G01D02*
G03X302350Y902750I0J-2500D01*
G01D02*
G03X304850Y900250I2500J0D01*
G01D02*
G03X307350Y902750I0J2500D01*
G01X301750Y1884100D02*
G03I-2500J0D01*
G01Y1826950D02*
G03I-2500J0D01*
G01Y1941250D02*
G03I-2500J0D01*
G01X353850Y655050D02*
G03X351350Y657550I-2500J0D01*
G01D02*
G03X348850Y655050I0J-2500D01*
G01D02*
G03X351350Y652550I2500J0D01*
G01D02*
G03X353850Y655050I0J2500D01*
G01X349750Y1518450D02*
G03I-2500J0D01*
G01X342650Y1972400D02*
G03I-2500J0D01*
G01Y2029550D02*
G03I-2500J0D01*
G01Y2086700D02*
G03I-2500J0D01*
G01Y2143850D02*
G03I-2500J0D01*
G01X1158600Y1211050D02*
G03I-2500J0D01*
G01X1412600Y1325350D02*
G03X1410100Y1327850I-2500J0D01*
G01D02*
G03X1407600Y1325350I0J-2500D01*
G01D02*
G03X1410100Y1322850I2500J0D01*
G01D02*
G03X1412600Y1325350I0J2500D01*
G54D12*
G01X56170Y80890D02*
X48300Y83320D01*
X56170Y85750D01*
G01X53420Y84880D02*
Y81760D01*
G01X56170Y91190D02*
X48300D01*
X49870Y90020D01*
G01X56170D02*
Y92360D01*
G01X77370Y84100D02*
X76980Y84490D01*
X76320Y84780D01*
X75410Y84970D01*
X74620Y84780D01*
X74090Y84390D01*
X73700Y83710D01*
Y81080D01*
X81570D01*
Y84290D01*
X81050Y84970D01*
X80260Y85360D01*
X79340Y85560D01*
X78420Y85360D01*
X77640Y84780D01*
X77370Y84100D01*
Y81080D01*
G01X81570Y91190D02*
X73700D01*
X75270Y90020D01*
G01X81570D02*
Y92360D01*
G01X24100Y982100D02*
X30850Y994800D01*
G01X24100D02*
X30850Y982100D01*
G01X37370Y992680D02*
X38330Y993950D01*
X39460Y994590D01*
X40750Y994800D01*
X42360Y994380D01*
X43480Y993320D01*
X43800Y992050D01*
X43640Y990780D01*
X43000Y989720D01*
X39780Y987600D01*
X38330Y986120D01*
X37370Y984000D01*
X37050Y982100D01*
X43800D01*
G01X24100Y1331350D02*
X30850Y1344050D01*
G01X24100D02*
X30850Y1331350D01*
G01X40420D02*
Y1344050D01*
X38490Y1341510D01*
G01Y1331350D02*
X42350D01*
G01X56170Y1414390D02*
X48300Y1416820D01*
X56170Y1419250D01*
G01X53420Y1418380D02*
Y1415260D01*
G01X56170Y1424690D02*
X48300D01*
X49870Y1423520D01*
G01X56170D02*
Y1425860D01*
G01X77370Y1417600D02*
X76980Y1417990D01*
X76320Y1418280D01*
X75410Y1418470D01*
X74620Y1418280D01*
X74090Y1417890D01*
X73700Y1417210D01*
Y1414580D01*
X81570D01*
Y1417790D01*
X81050Y1418470D01*
X80260Y1418860D01*
X79340Y1419060D01*
X78420Y1418860D01*
X77640Y1418280D01*
X77370Y1417600D01*
Y1414580D01*
G01X81570Y1424690D02*
X73700D01*
X75270Y1423520D01*
G01X81570D02*
Y1425860D01*
G01X99760Y85460D02*
X99360Y84880D01*
X99100Y84200D01*
Y83420D01*
X99490Y82540D01*
X100150Y81860D01*
X100940Y81370D01*
X102250Y80980D01*
X103430Y80890D01*
X104610Y81080D01*
X105400Y81370D01*
X106180Y81960D01*
X106710Y82640D01*
X106970Y83320D01*
Y84000D01*
X106710Y84680D01*
X106310Y85270D01*
X105790Y85750D01*
G01X106970Y91190D02*
X99100D01*
X100670Y90020D01*
G01X106970D02*
Y92360D01*
G01X129040Y692000D02*
Y704700D01*
X133060D01*
X134350Y704060D01*
X135150Y703220D01*
X135470Y701520D01*
X135150Y699830D01*
X134190Y698770D01*
X133060Y698140D01*
X129040D01*
G01X133060D02*
X135470Y692000D01*
G01X142150Y702580D02*
X143110Y703850D01*
X144240Y704490D01*
X145530Y704700D01*
X147140Y704280D01*
X148260Y703220D01*
X148580Y701950D01*
X148420Y700680D01*
X147780Y699620D01*
X144560Y697500D01*
X143110Y696020D01*
X142150Y693900D01*
X141830Y692000D01*
X148580D01*
G01X155100Y702580D02*
X156060Y703850D01*
X157190Y704490D01*
X158480Y704700D01*
X160090Y704280D01*
X161210Y703220D01*
X161530Y701950D01*
X161370Y700680D01*
X160730Y699620D01*
X157510Y697500D01*
X156060Y696020D01*
X155100Y693900D01*
X154780Y692000D01*
X161530D01*
G01X129040Y752420D02*
Y765120D01*
X133060D01*
X134350Y764480D01*
X135150Y763640D01*
X135470Y761940D01*
X135150Y760250D01*
X134190Y759190D01*
X133060Y758560D01*
X129040D01*
G01X133060D02*
X135470Y752420D01*
G01X142150Y763000D02*
X143110Y764270D01*
X144240Y764910D01*
X145530Y765120D01*
X147140Y764700D01*
X148260Y763640D01*
X148580Y762370D01*
X148420Y761100D01*
X147780Y760040D01*
X144560Y757920D01*
X143110Y756440D01*
X142150Y754320D01*
X141830Y752420D01*
X148580D01*
G01X154620Y754960D02*
X155580Y753480D01*
X156870Y752630D01*
X158320Y752420D01*
X159600Y752630D01*
X160890Y753690D01*
X161690Y754960D01*
X161850Y756230D01*
X161530Y757710D01*
X160410Y758770D01*
X159280Y759190D01*
X157830D01*
G01X159280D02*
X160250Y759830D01*
X161050Y760890D01*
X161370Y762160D01*
X161050Y763430D01*
X160250Y764480D01*
X158800Y765120D01*
X157350Y764910D01*
X155900Y764060D01*
G01X138580Y774680D02*
Y787380D01*
X142600D01*
X143890Y786740D01*
X144690Y785900D01*
X145010Y784200D01*
X144690Y782510D01*
X143730Y781450D01*
X142600Y780820D01*
X138580D01*
G01X142600D02*
X145010Y774680D01*
G01X151530D02*
Y787380D01*
X155550D01*
X156840Y786740D01*
X157640Y785900D01*
X157960Y784200D01*
X157640Y782510D01*
X156680Y781450D01*
X155550Y780820D01*
X151530D01*
G01X155550D02*
X157960Y774680D01*
G01X164160Y777220D02*
X165120Y775740D01*
X166410Y774890D01*
X167860Y774680D01*
X169140Y774890D01*
X170430Y775950D01*
X171230Y777220D01*
X171390Y778490D01*
X171070Y779970D01*
X169950Y781030D01*
X168820Y781450D01*
X167370D01*
G01X168820D02*
X169790Y782090D01*
X170590Y783150D01*
X170910Y784420D01*
X170590Y785690D01*
X169790Y786740D01*
X168340Y787380D01*
X166890Y787170D01*
X165440Y786320D01*
G01X141760Y911420D02*
Y924120D01*
X145780D01*
X147070Y923480D01*
X147870Y922640D01*
X148190Y920940D01*
X147870Y919250D01*
X146910Y918190D01*
X145780Y917560D01*
X141760D01*
G01X145780D02*
X148190Y911420D01*
G01X154710D02*
Y924120D01*
X158730D01*
X160020Y923480D01*
X160820Y922640D01*
X161140Y920940D01*
X160820Y919250D01*
X159860Y918190D01*
X158730Y917560D01*
X154710D01*
G01X158730D02*
X161140Y911420D01*
G01X172810D02*
Y924120D01*
X166850Y915020D01*
X174900D01*
G01X99760Y1418960D02*
X99360Y1418380D01*
X99100Y1417700D01*
Y1416920D01*
X99490Y1416040D01*
X100150Y1415360D01*
X100940Y1414870D01*
X102250Y1414480D01*
X103430Y1414390D01*
X104610Y1414580D01*
X105400Y1414870D01*
X106180Y1415460D01*
X106710Y1416140D01*
X106970Y1416820D01*
Y1417500D01*
X106710Y1418180D01*
X106310Y1418770D01*
X105790Y1419250D01*
G01X106970Y1424690D02*
X99100D01*
X100670Y1423520D01*
G01X106970D02*
Y1425860D01*
G01X138810Y1428500D02*
X142830Y1415800D01*
X146860Y1428500D01*
G01X152250Y1415800D02*
Y1428500D01*
X155460D01*
X156750Y1427860D01*
X157720Y1427020D01*
X158520Y1425750D01*
X159160Y1424270D01*
X159320Y1422150D01*
X159160Y1420030D01*
X158520Y1418550D01*
X157720Y1417280D01*
X156750Y1416430D01*
X155460Y1415800D01*
X152250D01*
G01X168730D02*
Y1428500D01*
X166800Y1425960D01*
G01Y1415800D02*
X170660D01*
G01X119370Y1591700D02*
Y1604400D01*
X123390D01*
X124680Y1603760D01*
X125480Y1602920D01*
X125800Y1601220D01*
X125480Y1599530D01*
X124520Y1598470D01*
X123390Y1597840D01*
X119370D01*
G01X123390D02*
X125800Y1591700D01*
G01X132000Y1593600D02*
X132960Y1592550D01*
X134090Y1591910D01*
X135530Y1591700D01*
X136980Y1592120D01*
X138110Y1592970D01*
X138910Y1594450D01*
X139070Y1596140D01*
X138750Y1597840D01*
X137950Y1598900D01*
X136820Y1599740D01*
X135700Y1599950D01*
X134570Y1599740D01*
X133120Y1598900D01*
X133600Y1604400D01*
X137950D01*
G01X145430Y1602280D02*
X146390Y1603550D01*
X147520Y1604190D01*
X148810Y1604400D01*
X150420Y1603980D01*
X151540Y1602920D01*
X151860Y1601650D01*
X151700Y1600380D01*
X151060Y1599320D01*
X147840Y1597200D01*
X146390Y1595720D01*
X145430Y1593600D01*
X145110Y1591700D01*
X151860D01*
G01X132070Y1693300D02*
Y1706000D01*
X136090D01*
X137380Y1705360D01*
X138180Y1704520D01*
X138500Y1702820D01*
X138180Y1701130D01*
X137220Y1700070D01*
X136090Y1699440D01*
X132070D01*
G01X136090D02*
X138500Y1693300D01*
G01X145020D02*
Y1706000D01*
X149040D01*
X150330Y1705360D01*
X151130Y1704520D01*
X151450Y1702820D01*
X151130Y1701130D01*
X150170Y1700070D01*
X149040Y1699440D01*
X145020D01*
G01X149040D02*
X151450Y1693300D01*
G01X161180D02*
X162310Y1693510D01*
X163600Y1694150D01*
X164400Y1695200D01*
X164720Y1696690D01*
X164400Y1698170D01*
X163440Y1699440D01*
X161990Y1700070D01*
X160380D01*
X159420Y1700500D01*
X158610Y1701550D01*
X158290Y1703040D01*
X158770Y1704520D01*
X159900Y1705580D01*
X161180Y1706000D01*
X162470Y1705580D01*
X163600Y1704520D01*
X164080Y1703040D01*
X163760Y1701550D01*
X162950Y1700500D01*
X161990Y1700070D01*
X160380D01*
X158930Y1699440D01*
X157970Y1698170D01*
X157650Y1696690D01*
X157970Y1695200D01*
X158770Y1694150D01*
X160060Y1693510D01*
X161180Y1693300D01*
G01X132470Y1787490D02*
X131510Y1788130D01*
X130380Y1788550D01*
X129100D01*
X127650Y1787910D01*
X126520Y1786860D01*
X125720Y1785590D01*
X125070Y1783470D01*
X124910Y1781560D01*
X125240Y1779660D01*
X125720Y1778390D01*
X126680Y1777120D01*
X127810Y1776270D01*
X128930Y1775850D01*
X130060D01*
X131190Y1776270D01*
X132150Y1776910D01*
X132960Y1777750D01*
G01X138350Y1778390D02*
X139310Y1776910D01*
X140600Y1776060D01*
X142050Y1775850D01*
X143330Y1776060D01*
X144620Y1777120D01*
X145420Y1778390D01*
X145580Y1779660D01*
X145260Y1781140D01*
X144140Y1782200D01*
X143010Y1782620D01*
X141560D01*
G01X143010D02*
X143980Y1783260D01*
X144780Y1784320D01*
X145100Y1785590D01*
X144780Y1786860D01*
X143980Y1787910D01*
X142530Y1788550D01*
X141080Y1788340D01*
X139630Y1787490D01*
G01X151300Y1778390D02*
X152260Y1776910D01*
X153550Y1776060D01*
X155000Y1775850D01*
X156280Y1776060D01*
X157570Y1777120D01*
X158370Y1778390D01*
X158530Y1779660D01*
X158210Y1781140D01*
X157090Y1782200D01*
X155960Y1782620D01*
X154510D01*
G01X155960D02*
X156930Y1783260D01*
X157730Y1784320D01*
X158050Y1785590D01*
X157730Y1786860D01*
X156930Y1787910D01*
X155480Y1788550D01*
X154030Y1788340D01*
X152580Y1787490D01*
G01X137900Y1752600D02*
X145900D01*
G01X126810Y2148500D02*
X130830Y2135800D01*
X134860Y2148500D01*
G01X140250Y2135800D02*
Y2148500D01*
X143460D01*
X144750Y2147860D01*
X145720Y2147020D01*
X146520Y2145750D01*
X147160Y2144270D01*
X147320Y2142150D01*
X147160Y2140030D01*
X146520Y2138550D01*
X145720Y2137280D01*
X144750Y2136430D01*
X143460Y2135800D01*
X140250D01*
G01X153680Y2146380D02*
X154640Y2147650D01*
X155770Y2148290D01*
X157060Y2148500D01*
X158670Y2148080D01*
X159790Y2147020D01*
X160110Y2145750D01*
X159950Y2144480D01*
X159310Y2143420D01*
X156090Y2141300D01*
X154640Y2139820D01*
X153680Y2137700D01*
X153360Y2135800D01*
X160110D01*
G01X231320Y659120D02*
X230360Y659760D01*
X229230Y660180D01*
X227950D01*
X226500Y659540D01*
X225370Y658490D01*
X224570Y657220D01*
X223920Y655100D01*
X223760Y653190D01*
X224090Y651290D01*
X224570Y650020D01*
X225530Y648750D01*
X226660Y647900D01*
X227780Y647480D01*
X228910D01*
X230040Y647900D01*
X231000Y648540D01*
X231810Y649380D01*
G01X237680Y652770D02*
X238800Y654250D01*
X239770Y655100D01*
X241060Y655520D01*
X242180Y655100D01*
X242990Y654250D01*
X243630Y652980D01*
X243790Y651500D01*
X243630Y650230D01*
X242990Y648960D01*
X242020Y647900D01*
X240900Y647480D01*
X239610Y647900D01*
X238480Y649170D01*
X237840Y651080D01*
X237680Y653190D01*
X238000Y655950D01*
X238480Y657430D01*
X239290Y658910D01*
X240410Y659970D01*
X241540Y660180D01*
X242670Y659760D01*
X243470Y658700D01*
G01X214900Y606140D02*
Y618840D01*
X218920D01*
X220210Y618200D01*
X221010Y617360D01*
X221330Y615660D01*
X221010Y613970D01*
X220050Y612910D01*
X218920Y612280D01*
X214900D01*
G01X218920D02*
X221330Y606140D01*
G01X227850D02*
Y618840D01*
X231870D01*
X233160Y618200D01*
X233960Y617360D01*
X234280Y615660D01*
X233960Y613970D01*
X233000Y612910D01*
X231870Y612280D01*
X227850D01*
G01X231870D02*
X234280Y606140D01*
G01X243690D02*
X244010Y608890D01*
X244500Y611220D01*
X245140Y613340D01*
X245950Y615660D01*
X247230Y618840D01*
X240800D01*
G01X214900Y695180D02*
Y707880D01*
X218920D01*
X220210Y707240D01*
X221010Y706400D01*
X221330Y704700D01*
X221010Y703010D01*
X220050Y701950D01*
X218920Y701320D01*
X214900D01*
G01X218920D02*
X221330Y695180D01*
G01X227850D02*
Y707880D01*
X231870D01*
X233160Y707240D01*
X233960Y706400D01*
X234280Y704700D01*
X233960Y703010D01*
X233000Y701950D01*
X231870Y701320D01*
X227850D01*
G01X231870D02*
X234280Y695180D01*
G01X240960Y700470D02*
X242080Y701950D01*
X243050Y702800D01*
X244340Y703220D01*
X245460Y702800D01*
X246270Y701950D01*
X246910Y700680D01*
X247070Y699200D01*
X246910Y697930D01*
X246270Y696660D01*
X245300Y695600D01*
X244180Y695180D01*
X242890Y695600D01*
X241760Y696870D01*
X241120Y698780D01*
X240960Y700890D01*
X241280Y703650D01*
X241760Y705130D01*
X242570Y706610D01*
X243690Y707670D01*
X244820Y707880D01*
X245950Y707460D01*
X246750Y706400D01*
G01X211720Y774680D02*
Y787380D01*
X215740D01*
X217030Y786740D01*
X217830Y785900D01*
X218150Y784200D01*
X217830Y782510D01*
X216870Y781450D01*
X215740Y780820D01*
X211720D01*
G01X215740D02*
X218150Y774680D01*
G01X224670D02*
Y787380D01*
X228690D01*
X229980Y786740D01*
X230780Y785900D01*
X231100Y784200D01*
X230780Y782510D01*
X229820Y781450D01*
X228690Y780820D01*
X224670D01*
G01X228690D02*
X231100Y774680D01*
G01X237780Y785260D02*
X238740Y786530D01*
X239870Y787170D01*
X241160Y787380D01*
X242770Y786960D01*
X243890Y785900D01*
X244210Y784630D01*
X244050Y783360D01*
X243410Y782300D01*
X240190Y780180D01*
X238740Y778700D01*
X237780Y776580D01*
X237460Y774680D01*
X244210D01*
G01X188370Y965440D02*
X187410Y966080D01*
X186280Y966500D01*
X185000D01*
X183550Y965860D01*
X182420Y964810D01*
X181620Y963540D01*
X180970Y961420D01*
X180810Y959510D01*
X181140Y957610D01*
X181620Y956340D01*
X182580Y955070D01*
X183710Y954220D01*
X184830Y953800D01*
X185960D01*
X187090Y954220D01*
X188050Y954860D01*
X188860Y955700D01*
G01X194250Y956340D02*
X195210Y954860D01*
X196500Y954010D01*
X197950Y953800D01*
X199230Y954010D01*
X200520Y955070D01*
X201320Y956340D01*
X201480Y957610D01*
X201160Y959090D01*
X200040Y960150D01*
X198910Y960570D01*
X197460D01*
G01X198910D02*
X199880Y961210D01*
X200680Y962270D01*
X201000Y963540D01*
X200680Y964810D01*
X199880Y965860D01*
X198430Y966500D01*
X196980Y966290D01*
X195530Y965440D01*
G01X210730Y953800D02*
X211860Y954010D01*
X213150Y954650D01*
X213950Y955700D01*
X214270Y957190D01*
X213950Y958670D01*
X212990Y959940D01*
X211540Y960570D01*
X209930D01*
X208970Y961000D01*
X208160Y962050D01*
X207840Y963540D01*
X208320Y965020D01*
X209450Y966080D01*
X210730Y966500D01*
X212020Y966080D01*
X213150Y965020D01*
X213630Y963540D01*
X213310Y962050D01*
X212500Y961000D01*
X211540Y960570D01*
X209930D01*
X208480Y959940D01*
X207520Y958670D01*
X207200Y957190D01*
X207520Y955700D01*
X208320Y954650D01*
X209610Y954010D01*
X210730Y953800D01*
G01X195050Y935500D02*
X203050D01*
G01X225300Y961800D02*
Y974500D01*
X228510D01*
X229800Y973860D01*
X230770Y973020D01*
X231570Y971750D01*
X232210Y970270D01*
X232370Y968150D01*
X232210Y966030D01*
X231570Y964550D01*
X230770Y963280D01*
X229800Y962430D01*
X228510Y961800D01*
X225300D01*
G01X238250D02*
Y974500D01*
X241460D01*
X242750Y973860D01*
X243720Y973020D01*
X244520Y971750D01*
X245160Y970270D01*
X245320Y968150D01*
X245160Y966030D01*
X244520Y964550D01*
X243720Y963280D01*
X242750Y962430D01*
X241460Y961800D01*
X238250D01*
G01X251200Y963700D02*
X252160Y962650D01*
X253290Y962010D01*
X254730Y961800D01*
X256180Y962220D01*
X257310Y963070D01*
X258110Y964550D01*
X258270Y966240D01*
X257950Y967940D01*
X257150Y969000D01*
X256020Y969840D01*
X254900Y970050D01*
X253770Y969840D01*
X252320Y969000D01*
X252800Y974500D01*
X257150D01*
G01X219570Y1562940D02*
X218610Y1563580D01*
X217480Y1564000D01*
X216200D01*
X214750Y1563360D01*
X213620Y1562310D01*
X212820Y1561040D01*
X212170Y1558920D01*
X212010Y1557010D01*
X212340Y1555110D01*
X212820Y1553840D01*
X213780Y1552570D01*
X214910Y1551720D01*
X216030Y1551300D01*
X217160D01*
X218290Y1551720D01*
X219250Y1552360D01*
X220060Y1553200D01*
G01X225450Y1553840D02*
X226410Y1552360D01*
X227700Y1551510D01*
X229150Y1551300D01*
X230430Y1551510D01*
X231720Y1552570D01*
X232520Y1553840D01*
X232680Y1555110D01*
X232360Y1556590D01*
X231240Y1557650D01*
X230110Y1558070D01*
X228660D01*
G01X230110D02*
X231080Y1558710D01*
X231880Y1559770D01*
X232200Y1561040D01*
X231880Y1562310D01*
X231080Y1563360D01*
X229630Y1564000D01*
X228180Y1563790D01*
X226730Y1562940D01*
G01X241930Y1551300D02*
Y1564000D01*
X240000Y1561460D01*
G01Y1551300D02*
X243860D01*
G01X241150Y1532400D02*
X233150D01*
G01X163820Y1540900D02*
Y1553600D01*
X167840D01*
X169130Y1552960D01*
X169930Y1552120D01*
X170250Y1550420D01*
X169930Y1548730D01*
X168970Y1547670D01*
X167840Y1547040D01*
X163820D01*
G01X167840D02*
X170250Y1540900D01*
G01X176450Y1542800D02*
X177410Y1541750D01*
X178540Y1541110D01*
X179980Y1540900D01*
X181430Y1541320D01*
X182560Y1542170D01*
X183360Y1543650D01*
X183520Y1545340D01*
X183200Y1547040D01*
X182400Y1548100D01*
X181270Y1548940D01*
X180150Y1549150D01*
X179020Y1548940D01*
X177570Y1548100D01*
X178050Y1553600D01*
X182400D01*
G01X192930Y1540900D02*
Y1553600D01*
X191000Y1551060D01*
G01Y1540900D02*
X194860D01*
G01X195710Y1648850D02*
Y1636150D01*
X202140D01*
G01X208340Y1638690D02*
X209300Y1637210D01*
X210590Y1636360D01*
X212040Y1636150D01*
X213320Y1636360D01*
X214610Y1637420D01*
X215410Y1638690D01*
X215570Y1639960D01*
X215250Y1641440D01*
X214130Y1642500D01*
X213000Y1642920D01*
X211550D01*
G01X213000D02*
X213970Y1643560D01*
X214770Y1644620D01*
X215090Y1645890D01*
X214770Y1647160D01*
X213970Y1648210D01*
X212520Y1648850D01*
X211070Y1648640D01*
X209620Y1647790D01*
G01X195970Y1711290D02*
X195010Y1711930D01*
X193880Y1712350D01*
X192600D01*
X191150Y1711710D01*
X190020Y1710660D01*
X189220Y1709390D01*
X188570Y1707270D01*
X188410Y1705360D01*
X188740Y1703460D01*
X189220Y1702190D01*
X190180Y1700920D01*
X191310Y1700070D01*
X192430Y1699650D01*
X193560D01*
X194690Y1700070D01*
X195650Y1700710D01*
X196460Y1701550D01*
G01X201850Y1702190D02*
X202810Y1700710D01*
X204100Y1699860D01*
X205550Y1699650D01*
X206830Y1699860D01*
X208120Y1700920D01*
X208920Y1702190D01*
X209080Y1703460D01*
X208760Y1704940D01*
X207640Y1706000D01*
X206510Y1706420D01*
X205060D01*
G01X206510D02*
X207480Y1707060D01*
X208280Y1708120D01*
X208600Y1709390D01*
X208280Y1710660D01*
X207480Y1711710D01*
X206030Y1712350D01*
X204580Y1712140D01*
X203130Y1711290D01*
G01X215280Y1710230D02*
X216240Y1711500D01*
X217370Y1712140D01*
X218660Y1712350D01*
X220270Y1711930D01*
X221390Y1710870D01*
X221710Y1709600D01*
X221550Y1708330D01*
X220910Y1707270D01*
X217690Y1705150D01*
X216240Y1703670D01*
X215280Y1701550D01*
X214960Y1699650D01*
X221710D01*
G01X226510Y1807600D02*
X230530Y1820300D01*
X234560Y1807600D01*
G01X233110Y1812040D02*
X227960D01*
G01X239460Y1820300D02*
X243480Y1807600D01*
X247510Y1820300D01*
G01X252900Y1809500D02*
X253860Y1808450D01*
X254990Y1807810D01*
X256430Y1807600D01*
X257880Y1808020D01*
X259010Y1808870D01*
X259810Y1810350D01*
X259970Y1812040D01*
X259650Y1813740D01*
X258850Y1814800D01*
X257720Y1815640D01*
X256600Y1815850D01*
X255470Y1815640D01*
X254020Y1814800D01*
X254500Y1820300D01*
X258850D01*
G01X226510Y1864750D02*
X230530Y1877450D01*
X234560Y1864750D01*
G01X233110Y1869190D02*
X227960D01*
G01X239460Y1877450D02*
X243480Y1864750D01*
X247510Y1877450D01*
G01X253380Y1870040D02*
X254500Y1871520D01*
X255470Y1872370D01*
X256760Y1872790D01*
X257880Y1872370D01*
X258690Y1871520D01*
X259330Y1870250D01*
X259490Y1868770D01*
X259330Y1867500D01*
X258690Y1866230D01*
X257720Y1865170D01*
X256600Y1864750D01*
X255310Y1865170D01*
X254180Y1866440D01*
X253540Y1868350D01*
X253380Y1870460D01*
X253700Y1873220D01*
X254180Y1874700D01*
X254990Y1876180D01*
X256110Y1877240D01*
X257240Y1877450D01*
X258370Y1877030D01*
X259170Y1875970D01*
G01X163820Y1940950D02*
Y1953650D01*
X167840D01*
X169130Y1953010D01*
X169930Y1952170D01*
X170250Y1950470D01*
X169930Y1948780D01*
X168970Y1947720D01*
X167840Y1947090D01*
X163820D01*
G01X167840D02*
X170250Y1940950D01*
G01X179980D02*
Y1953650D01*
X178050Y1951110D01*
G01Y1940950D02*
X181910D01*
G01X190200Y1942430D02*
X191330Y1941370D01*
X192610Y1940950D01*
X193900Y1941370D01*
X195030Y1942640D01*
X195830Y1944550D01*
X196150Y1946450D01*
Y1948780D01*
X195830Y1950690D01*
X195030Y1952380D01*
X194060Y1953230D01*
X192930Y1953650D01*
X191650Y1953230D01*
X190680Y1952380D01*
X190040Y1951110D01*
X189720Y1949420D01*
X190040Y1947940D01*
X190840Y1946450D01*
X191810Y1945610D01*
X192930Y1945390D01*
X194220Y1945820D01*
X195190Y1946880D01*
X196150Y1948780D01*
G01X163820Y1915550D02*
Y1928250D01*
X167840D01*
X169130Y1927610D01*
X169930Y1926770D01*
X170250Y1925070D01*
X169930Y1923380D01*
X168970Y1922320D01*
X167840Y1921690D01*
X163820D01*
G01X167840D02*
X170250Y1915550D01*
G01X179980D02*
Y1928250D01*
X178050Y1925710D01*
G01Y1915550D02*
X181910D01*
G01X192930D02*
X194060Y1915760D01*
X195350Y1916400D01*
X196150Y1917450D01*
X196470Y1918940D01*
X196150Y1920420D01*
X195190Y1921690D01*
X193740Y1922320D01*
X192130D01*
X191170Y1922750D01*
X190360Y1923800D01*
X190040Y1925290D01*
X190520Y1926770D01*
X191650Y1927830D01*
X192930Y1928250D01*
X194220Y1927830D01*
X195350Y1926770D01*
X195830Y1925290D01*
X195510Y1923800D01*
X194700Y1922750D01*
X193740Y1922320D01*
X192130D01*
X190680Y1921690D01*
X189720Y1920420D01*
X189400Y1918940D01*
X189720Y1917450D01*
X190520Y1916400D01*
X191810Y1915760D01*
X192930Y1915550D01*
G01X163820Y1890150D02*
Y1902850D01*
X167840D01*
X169130Y1902210D01*
X169930Y1901370D01*
X170250Y1899670D01*
X169930Y1897980D01*
X168970Y1896920D01*
X167840Y1896290D01*
X163820D01*
G01X167840D02*
X170250Y1890150D01*
G01X179980D02*
Y1902850D01*
X178050Y1900310D01*
G01Y1890150D02*
X181910D01*
G01X192610D02*
X192930Y1892900D01*
X193420Y1895230D01*
X194060Y1897350D01*
X194870Y1899670D01*
X196150Y1902850D01*
X189720D01*
G01X226510Y1921900D02*
X230530Y1934600D01*
X234560Y1921900D01*
G01X233110Y1926340D02*
X227960D01*
G01X239460Y1934600D02*
X243480Y1921900D01*
X247510Y1934600D01*
G01X256110Y1921900D02*
X256430Y1924650D01*
X256920Y1926980D01*
X257560Y1929100D01*
X258370Y1931420D01*
X259650Y1934600D01*
X253220D01*
G01X163820Y1966350D02*
Y1979050D01*
X167840D01*
X169130Y1978410D01*
X169930Y1977570D01*
X170250Y1975870D01*
X169930Y1974180D01*
X168970Y1973120D01*
X167840Y1972490D01*
X163820D01*
G01X167840D02*
X170250Y1966350D01*
G01X179980D02*
Y1979050D01*
X178050Y1976510D01*
G01Y1966350D02*
X181910D01*
G01X189880Y1971640D02*
X191000Y1973120D01*
X191970Y1973970D01*
X193260Y1974390D01*
X194380Y1973970D01*
X195190Y1973120D01*
X195830Y1971850D01*
X195990Y1970370D01*
X195830Y1969100D01*
X195190Y1967830D01*
X194220Y1966770D01*
X193100Y1966350D01*
X191810Y1966770D01*
X190680Y1968040D01*
X190040Y1969950D01*
X189880Y1972060D01*
X190200Y1974820D01*
X190680Y1976300D01*
X191490Y1977780D01*
X192610Y1978840D01*
X193740Y1979050D01*
X194870Y1978630D01*
X195670Y1977570D01*
G01X163820Y1991750D02*
Y2004450D01*
X167840D01*
X169130Y2003810D01*
X169930Y2002970D01*
X170250Y2001270D01*
X169930Y1999580D01*
X168970Y1998520D01*
X167840Y1997890D01*
X163820D01*
G01X167840D02*
X170250Y1991750D01*
G01X179980D02*
Y2004450D01*
X178050Y2001910D01*
G01Y1991750D02*
X181910D01*
G01X189400Y1993650D02*
X190360Y1992600D01*
X191490Y1991960D01*
X192930Y1991750D01*
X194380Y1992170D01*
X195510Y1993020D01*
X196310Y1994500D01*
X196470Y1996190D01*
X196150Y1997890D01*
X195350Y1998950D01*
X194220Y1999790D01*
X193100Y2000000D01*
X191970Y1999790D01*
X190520Y1998950D01*
X191000Y2004450D01*
X195350D01*
G01X163820Y2017150D02*
Y2029850D01*
X167840D01*
X169130Y2029210D01*
X169930Y2028370D01*
X170250Y2026670D01*
X169930Y2024980D01*
X168970Y2023920D01*
X167840Y2023290D01*
X163820D01*
G01X167840D02*
X170250Y2017150D01*
G01X179980D02*
Y2029850D01*
X178050Y2027310D01*
G01Y2017150D02*
X181910D01*
G01X194870D02*
Y2029850D01*
X188910Y2020750D01*
X196960D01*
G01X226510Y1979050D02*
X230530Y1991750D01*
X234560Y1979050D01*
G01X233110Y1983490D02*
X227960D01*
G01X239460Y1991750D02*
X243480Y1979050D01*
X247510Y1991750D01*
G01X258370Y1979050D02*
Y1991750D01*
X252410Y1982650D01*
X260460D01*
G01X226510Y2036200D02*
X230530Y2048900D01*
X234560Y2036200D01*
G01X233110Y2040640D02*
X227960D01*
G01X239460Y2048900D02*
X243480Y2036200D01*
X247510Y2048900D01*
G01X252900Y2038740D02*
X253860Y2037260D01*
X255150Y2036410D01*
X256600Y2036200D01*
X257880Y2036410D01*
X259170Y2037470D01*
X259970Y2038740D01*
X260130Y2040010D01*
X259810Y2041490D01*
X258690Y2042550D01*
X257560Y2042970D01*
X256110D01*
G01X257560D02*
X258530Y2043610D01*
X259330Y2044670D01*
X259650Y2045940D01*
X259330Y2047210D01*
X258530Y2048260D01*
X257080Y2048900D01*
X255630Y2048690D01*
X254180Y2047840D01*
G01X163820Y2042550D02*
Y2055250D01*
X167840D01*
X169130Y2054610D01*
X169930Y2053770D01*
X170250Y2052070D01*
X169930Y2050380D01*
X168970Y2049320D01*
X167840Y2048690D01*
X163820D01*
G01X167840D02*
X170250Y2042550D01*
G01X179980D02*
Y2055250D01*
X178050Y2052710D01*
G01Y2042550D02*
X181910D01*
G01X189400Y2045090D02*
X190360Y2043610D01*
X191650Y2042760D01*
X193100Y2042550D01*
X194380Y2042760D01*
X195670Y2043820D01*
X196470Y2045090D01*
X196630Y2046360D01*
X196310Y2047840D01*
X195190Y2048900D01*
X194060Y2049320D01*
X192610D01*
G01X194060D02*
X195030Y2049960D01*
X195830Y2051020D01*
X196150Y2052290D01*
X195830Y2053560D01*
X195030Y2054610D01*
X193580Y2055250D01*
X192130Y2055040D01*
X190680Y2054190D01*
G01X226510Y2093350D02*
X230530Y2106050D01*
X234560Y2093350D01*
G01X233110Y2097790D02*
X227960D01*
G01X239460Y2106050D02*
X243480Y2093350D01*
X247510Y2106050D01*
G01X253380Y2103930D02*
X254340Y2105200D01*
X255470Y2105840D01*
X256760Y2106050D01*
X258370Y2105630D01*
X259490Y2104570D01*
X259810Y2103300D01*
X259650Y2102030D01*
X259010Y2100970D01*
X255790Y2098850D01*
X254340Y2097370D01*
X253380Y2095250D01*
X253060Y2093350D01*
X259810D01*
G01X178470Y2170700D02*
X185220Y2183400D01*
G01X178470D02*
X185220Y2170700D01*
G01X191260Y2173240D02*
X192220Y2171760D01*
X193510Y2170910D01*
X194960Y2170700D01*
X196240Y2170910D01*
X197530Y2171970D01*
X198330Y2173240D01*
X198490Y2174510D01*
X198170Y2175990D01*
X197050Y2177050D01*
X195920Y2177470D01*
X194470D01*
G01X195920D02*
X196890Y2178110D01*
X197690Y2179170D01*
X198010Y2180440D01*
X197690Y2181710D01*
X196890Y2182760D01*
X195440Y2183400D01*
X193990Y2183190D01*
X192540Y2182340D01*
G01X182810Y2122990D02*
X186030D01*
Y2119180D01*
X185060Y2117910D01*
X183940Y2117060D01*
X182330Y2116640D01*
X180720Y2117060D01*
X179590Y2117910D01*
X178630Y2119180D01*
X177980Y2120660D01*
X177660Y2122350D01*
Y2123840D01*
X177980Y2125110D01*
X178630Y2126590D01*
X179590Y2127860D01*
X180560Y2128700D01*
X181840Y2129340D01*
X182970D01*
X184260Y2128920D01*
X185220Y2128070D01*
G01X191100Y2116640D02*
Y2129340D01*
X198490Y2116640D01*
Y2129340D01*
G01X204210Y2116640D02*
Y2129340D01*
X207420D01*
X208710Y2128700D01*
X209680Y2127860D01*
X210480Y2126590D01*
X211120Y2125110D01*
X211280Y2122990D01*
X211120Y2120870D01*
X210480Y2119390D01*
X209680Y2118120D01*
X208710Y2117270D01*
X207420Y2116640D01*
X204210D01*
G01X223910D02*
X217480D01*
Y2129340D01*
X223910D01*
G01X221340Y2123200D02*
X217480D01*
G01X260200Y658250D02*
X252200D01*
G01X309980Y625220D02*
Y637920D01*
X313190D01*
X314480Y637280D01*
X315450Y636440D01*
X316250Y635170D01*
X316890Y633690D01*
X317050Y631570D01*
X316890Y629450D01*
X316250Y627970D01*
X315450Y626700D01*
X314480Y625850D01*
X313190Y625220D01*
X309980D01*
G01X322930D02*
Y637920D01*
X326140D01*
X327430Y637280D01*
X328400Y636440D01*
X329200Y635170D01*
X329840Y633690D01*
X330000Y631570D01*
X329840Y629450D01*
X329200Y627970D01*
X328400Y626700D01*
X327430Y625850D01*
X326140Y625220D01*
X322930D01*
G01X336360Y635800D02*
X337320Y637070D01*
X338450Y637710D01*
X339740Y637920D01*
X341350Y637500D01*
X342470Y636440D01*
X342790Y635170D01*
X342630Y633900D01*
X341990Y632840D01*
X338770Y630720D01*
X337320Y629240D01*
X336360Y627120D01*
X336040Y625220D01*
X342790D01*
G01X265800Y869620D02*
X253100D01*
Y873640D01*
X253740Y874930D01*
X254580Y875730D01*
X256280Y876050D01*
X257970Y875730D01*
X259030Y874770D01*
X259660Y873640D01*
Y869620D01*
G01Y873640D02*
X265800Y876050D01*
G01Y882570D02*
X253100D01*
Y886590D01*
X253740Y887880D01*
X254580Y888680D01*
X256280Y889000D01*
X257970Y888680D01*
X259030Y887720D01*
X259660Y886590D01*
Y882570D01*
G01Y886590D02*
X265800Y889000D01*
G01Y898730D02*
X253100D01*
X255640Y896800D01*
G01X265800D02*
Y900660D01*
G01X306800Y917780D02*
Y930480D01*
X310010D01*
X311300Y929840D01*
X312270Y929000D01*
X313070Y927730D01*
X313710Y926250D01*
X313870Y924130D01*
X313710Y922010D01*
X313070Y920530D01*
X312270Y919260D01*
X311300Y918410D01*
X310010Y917780D01*
X306800D01*
G01X319750D02*
Y930480D01*
X322960D01*
X324250Y929840D01*
X325220Y929000D01*
X326020Y927730D01*
X326660Y926250D01*
X326820Y924130D01*
X326660Y922010D01*
X326020Y920530D01*
X325220Y919260D01*
X324250Y918410D01*
X322960Y917780D01*
X319750D01*
G01X336230D02*
Y930480D01*
X334300Y927940D01*
G01Y917780D02*
X338160D01*
G01X246410Y1127650D02*
X249630D01*
Y1123840D01*
X248660Y1122570D01*
X247540Y1121720D01*
X245930Y1121300D01*
X244320Y1121720D01*
X243190Y1122570D01*
X242230Y1123840D01*
X241580Y1125320D01*
X241260Y1127010D01*
Y1128500D01*
X241580Y1129770D01*
X242230Y1131250D01*
X243190Y1132520D01*
X244160Y1133360D01*
X245440Y1134000D01*
X246570D01*
X247860Y1133580D01*
X248820Y1132730D01*
G01X254700Y1121300D02*
Y1134000D01*
X262090Y1121300D01*
Y1134000D01*
G01X267810Y1121300D02*
Y1134000D01*
X271020D01*
X272310Y1133360D01*
X273280Y1132520D01*
X274080Y1131250D01*
X274720Y1129770D01*
X274880Y1127650D01*
X274720Y1125530D01*
X274080Y1124050D01*
X273280Y1122780D01*
X272310Y1121930D01*
X271020Y1121300D01*
X267810D01*
G01X245250Y1172180D02*
X252000Y1184880D01*
G01X245250D02*
X252000Y1172180D01*
G01X263510D02*
Y1184880D01*
X257550Y1175780D01*
X265600D01*
G01X265820Y1438240D02*
X264860Y1438880D01*
X263730Y1439300D01*
X262450D01*
X261000Y1438660D01*
X259870Y1437610D01*
X259070Y1436340D01*
X258420Y1434220D01*
X258260Y1432310D01*
X258590Y1430410D01*
X259070Y1429140D01*
X260030Y1427870D01*
X261160Y1427020D01*
X262280Y1426600D01*
X263410D01*
X264540Y1427020D01*
X265500Y1427660D01*
X266310Y1428500D01*
G01X271700Y1429140D02*
X272660Y1427660D01*
X273950Y1426810D01*
X275400Y1426600D01*
X276680Y1426810D01*
X277970Y1427870D01*
X278770Y1429140D01*
X278930Y1430410D01*
X278610Y1431890D01*
X277490Y1432950D01*
X276360Y1433370D01*
X274910D01*
G01X276360D02*
X277330Y1434010D01*
X278130Y1435070D01*
X278450Y1436340D01*
X278130Y1437610D01*
X277330Y1438660D01*
X275880Y1439300D01*
X274430Y1439090D01*
X272980Y1438240D01*
G01X290120Y1426600D02*
Y1439300D01*
X284160Y1430200D01*
X292210D01*
G01X271250Y1407550D02*
X279250D01*
G01X309550Y1617100D02*
Y1629800D01*
X312760D01*
X314050Y1629160D01*
X315020Y1628320D01*
X315820Y1627050D01*
X316460Y1625570D01*
X316620Y1623450D01*
X316460Y1621330D01*
X315820Y1619850D01*
X315020Y1618580D01*
X314050Y1617730D01*
X312760Y1617100D01*
X309550D01*
G01X322500D02*
Y1629800D01*
X325710D01*
X327000Y1629160D01*
X327970Y1628320D01*
X328770Y1627050D01*
X329410Y1625570D01*
X329570Y1623450D01*
X329410Y1621330D01*
X328770Y1619850D01*
X327970Y1618580D01*
X327000Y1617730D01*
X325710Y1617100D01*
X322500D01*
G01X340920D02*
Y1629800D01*
X334960Y1620700D01*
X343010D01*
G01X253800Y2138810D02*
X241100Y2142830D01*
X253800Y2146860D01*
G01X249360Y2145410D02*
Y2140260D01*
G01X241100Y2151760D02*
X253800Y2155780D01*
X241100Y2159810D01*
G01X253800Y2168730D02*
X241100D01*
X243640Y2166800D01*
G01X253800D02*
Y2170660D01*
G01X390320Y938960D02*
X389360Y939600D01*
X388230Y940020D01*
X386950D01*
X385500Y939380D01*
X384370Y938330D01*
X383570Y937060D01*
X382920Y934940D01*
X382760Y933030D01*
X383090Y931130D01*
X383570Y929860D01*
X384530Y928590D01*
X385660Y927740D01*
X386780Y927320D01*
X387910D01*
X389040Y927740D01*
X390000Y928380D01*
X390810Y929220D01*
G01X396200Y929860D02*
X397160Y928380D01*
X398450Y927530D01*
X399900Y927320D01*
X401180Y927530D01*
X402470Y928590D01*
X403270Y929860D01*
X403430Y931130D01*
X403110Y932610D01*
X401990Y933670D01*
X400860Y934090D01*
X399410D01*
G01X400860D02*
X401830Y934730D01*
X402630Y935790D01*
X402950Y937060D01*
X402630Y938330D01*
X401830Y939380D01*
X400380Y940020D01*
X398930Y939810D01*
X397480Y938960D01*
G01X374500Y931300D02*
X366500D01*
G01X380120Y1438240D02*
X379160Y1438880D01*
X378030Y1439300D01*
X376750D01*
X375300Y1438660D01*
X374170Y1437610D01*
X373370Y1436340D01*
X372720Y1434220D01*
X372560Y1432310D01*
X372890Y1430410D01*
X373370Y1429140D01*
X374330Y1427870D01*
X375460Y1427020D01*
X376580Y1426600D01*
X377710D01*
X378840Y1427020D01*
X379800Y1427660D01*
X380610Y1428500D01*
G01X386000Y1429140D02*
X386960Y1427660D01*
X388250Y1426810D01*
X389700Y1426600D01*
X390980Y1426810D01*
X392270Y1427870D01*
X393070Y1429140D01*
X393230Y1430410D01*
X392910Y1431890D01*
X391790Y1432950D01*
X390660Y1433370D01*
X389210D01*
G01X390660D02*
X391630Y1434010D01*
X392430Y1435070D01*
X392750Y1436340D01*
X392430Y1437610D01*
X391630Y1438660D01*
X390180Y1439300D01*
X388730Y1439090D01*
X387280Y1438240D01*
G01X398950Y1428500D02*
X399910Y1427450D01*
X401040Y1426810D01*
X402480Y1426600D01*
X403930Y1427020D01*
X405060Y1427870D01*
X405860Y1429350D01*
X406020Y1431040D01*
X405700Y1432740D01*
X404900Y1433800D01*
X403770Y1434640D01*
X402650Y1434850D01*
X401520Y1434640D01*
X400070Y1433800D01*
X400550Y1439300D01*
X404900D01*
G01X385550Y1407550D02*
X393550D01*
G01X380120Y1469990D02*
X379160Y1470630D01*
X378030Y1471050D01*
X376750D01*
X375300Y1470410D01*
X374170Y1469360D01*
X373370Y1468090D01*
X372720Y1465970D01*
X372560Y1464060D01*
X372890Y1462160D01*
X373370Y1460890D01*
X374330Y1459620D01*
X375460Y1458770D01*
X376580Y1458350D01*
X377710D01*
X378840Y1458770D01*
X379800Y1459410D01*
X380610Y1460250D01*
G01X386000Y1460890D02*
X386960Y1459410D01*
X388250Y1458560D01*
X389700Y1458350D01*
X390980Y1458560D01*
X392270Y1459620D01*
X393070Y1460890D01*
X393230Y1462160D01*
X392910Y1463640D01*
X391790Y1464700D01*
X390660Y1465120D01*
X389210D01*
G01X390660D02*
X391630Y1465760D01*
X392430Y1466820D01*
X392750Y1468090D01*
X392430Y1469360D01*
X391630Y1470410D01*
X390180Y1471050D01*
X388730Y1470840D01*
X387280Y1469990D01*
G01X402480Y1471050D02*
X401200Y1470630D01*
X400230Y1469570D01*
X399590Y1468300D01*
X399110Y1466600D01*
X398950Y1464700D01*
X399110Y1462790D01*
X399590Y1461100D01*
X400230Y1459830D01*
X401200Y1458770D01*
X402480Y1458350D01*
X403770Y1458770D01*
X404740Y1459830D01*
X405380Y1461100D01*
X405860Y1462790D01*
X406020Y1464700D01*
X405860Y1466600D01*
X405380Y1468300D01*
X404740Y1469570D01*
X403770Y1470630D01*
X402480Y1471050D01*
G01X385550Y1490100D02*
X393550D01*
G01X373510Y1642500D02*
Y1629800D01*
X379940D01*
G01X386620Y1640380D02*
X387580Y1641650D01*
X388710Y1642290D01*
X390000Y1642500D01*
X391610Y1642080D01*
X392730Y1641020D01*
X393050Y1639750D01*
X392890Y1638480D01*
X392250Y1637420D01*
X389030Y1635300D01*
X387580Y1633820D01*
X386620Y1631700D01*
X386300Y1629800D01*
X393050D01*
G01X319080Y1753630D02*
Y1766330D01*
X322290D01*
X323580Y1765690D01*
X324550Y1764850D01*
X325350Y1763580D01*
X325990Y1762100D01*
X326150Y1759980D01*
X325990Y1757860D01*
X325350Y1756380D01*
X324550Y1755110D01*
X323580Y1754260D01*
X322290Y1753630D01*
X319080D01*
G01X331540D02*
X335560Y1766330D01*
X339590Y1753630D01*
G01X338140Y1758070D02*
X332990D01*
G01X345460Y1758920D02*
X346580Y1760400D01*
X347550Y1761250D01*
X348840Y1761670D01*
X349960Y1761250D01*
X350770Y1760400D01*
X351410Y1759130D01*
X351570Y1757650D01*
X351410Y1756380D01*
X350770Y1755110D01*
X349800Y1754050D01*
X348680Y1753630D01*
X347390Y1754050D01*
X346260Y1755320D01*
X345620Y1757230D01*
X345460Y1759340D01*
X345780Y1762100D01*
X346260Y1763580D01*
X347070Y1765060D01*
X348190Y1766120D01*
X349320Y1766330D01*
X350450Y1765910D01*
X351250Y1764850D01*
G01X399620Y647800D02*
Y660500D01*
X403640D01*
X404930Y659860D01*
X405730Y659020D01*
X406050Y657320D01*
X405730Y655630D01*
X404770Y654570D01*
X403640Y653940D01*
X399620D01*
G01X403640D02*
X406050Y647800D01*
G01X412250Y649700D02*
X413210Y648650D01*
X414340Y648010D01*
X415780Y647800D01*
X417230Y648220D01*
X418360Y649070D01*
X419160Y650550D01*
X419320Y652240D01*
X419000Y653940D01*
X418200Y655000D01*
X417070Y655840D01*
X415950Y656050D01*
X414820Y655840D01*
X413370Y655000D01*
X413850Y660500D01*
X418200D01*
G01X425200Y650340D02*
X426160Y648860D01*
X427450Y648010D01*
X428900Y647800D01*
X430180Y648010D01*
X431470Y649070D01*
X432270Y650340D01*
X432430Y651610D01*
X432110Y653090D01*
X430990Y654150D01*
X429860Y654570D01*
X428410D01*
G01X429860D02*
X430830Y655210D01*
X431630Y656270D01*
X431950Y657540D01*
X431630Y658810D01*
X430830Y659860D01*
X429380Y660500D01*
X427930Y660290D01*
X426480Y659440D01*
G01X424170Y1483750D02*
Y1496450D01*
X428190D01*
X429480Y1495810D01*
X430280Y1494970D01*
X430600Y1493270D01*
X430280Y1491580D01*
X429320Y1490520D01*
X428190Y1489890D01*
X424170D01*
G01X428190D02*
X430600Y1483750D01*
G01X436800Y1485650D02*
X437760Y1484600D01*
X438890Y1483960D01*
X440330Y1483750D01*
X441780Y1484170D01*
X442910Y1485020D01*
X443710Y1486500D01*
X443870Y1488190D01*
X443550Y1489890D01*
X442750Y1490950D01*
X441620Y1491790D01*
X440500Y1492000D01*
X439370Y1491790D01*
X437920Y1490950D01*
X438400Y1496450D01*
X442750D01*
G01X453280D02*
X452000Y1496030D01*
X451030Y1494970D01*
X450390Y1493700D01*
X449910Y1492000D01*
X449750Y1490100D01*
X449910Y1488190D01*
X450390Y1486500D01*
X451030Y1485230D01*
X452000Y1484170D01*
X453280Y1483750D01*
X454570Y1484170D01*
X455540Y1485230D01*
X456180Y1486500D01*
X456660Y1488190D01*
X456820Y1490100D01*
X456660Y1492000D01*
X456180Y1493700D01*
X455540Y1494970D01*
X454570Y1496030D01*
X453280Y1496450D01*
G01X398770Y1534550D02*
Y1547250D01*
X402790D01*
X404080Y1546610D01*
X404880Y1545770D01*
X405200Y1544070D01*
X404880Y1542380D01*
X403920Y1541320D01*
X402790Y1540690D01*
X398770D01*
G01X402790D02*
X405200Y1534550D01*
G01X416870D02*
Y1547250D01*
X410910Y1538150D01*
X418960D01*
G01X425150Y1536030D02*
X426280Y1534970D01*
X427560Y1534550D01*
X428850Y1534970D01*
X429980Y1536240D01*
X430780Y1538150D01*
X431100Y1540050D01*
Y1542380D01*
X430780Y1544290D01*
X429980Y1545980D01*
X429010Y1546830D01*
X427880Y1547250D01*
X426600Y1546830D01*
X425630Y1545980D01*
X424990Y1544710D01*
X424670Y1543020D01*
X424990Y1541540D01*
X425790Y1540050D01*
X426760Y1539210D01*
X427880Y1538990D01*
X429170Y1539420D01*
X430140Y1540480D01*
X431100Y1542380D01*
G01X424170Y1794900D02*
Y1807600D01*
X428190D01*
X429480Y1806960D01*
X430280Y1806120D01*
X430600Y1804420D01*
X430280Y1802730D01*
X429320Y1801670D01*
X428190Y1801040D01*
X424170D01*
G01X428190D02*
X430600Y1794900D01*
G01X442270D02*
Y1807600D01*
X436310Y1798500D01*
X444360D01*
G01X449750Y1796800D02*
X450710Y1795750D01*
X451840Y1795110D01*
X453280Y1794900D01*
X454730Y1795320D01*
X455860Y1796170D01*
X456660Y1797650D01*
X456820Y1799340D01*
X456500Y1801040D01*
X455700Y1802100D01*
X454570Y1802940D01*
X453450Y1803150D01*
X452320Y1802940D01*
X450870Y1802100D01*
X451350Y1807600D01*
X455700D01*
G01X424170Y1877450D02*
Y1890150D01*
X428190D01*
X429480Y1889510D01*
X430280Y1888670D01*
X430600Y1886970D01*
X430280Y1885280D01*
X429320Y1884220D01*
X428190Y1883590D01*
X424170D01*
G01X428190D02*
X430600Y1877450D01*
G01X436800Y1879990D02*
X437760Y1878510D01*
X439050Y1877660D01*
X440500Y1877450D01*
X441780Y1877660D01*
X443070Y1878720D01*
X443870Y1879990D01*
X444030Y1881260D01*
X443710Y1882740D01*
X442590Y1883800D01*
X441460Y1884220D01*
X440010D01*
G01X441460D02*
X442430Y1884860D01*
X443230Y1885920D01*
X443550Y1887190D01*
X443230Y1888460D01*
X442430Y1889510D01*
X440980Y1890150D01*
X439530Y1889940D01*
X438080Y1889090D01*
G01X450550Y1878930D02*
X451680Y1877870D01*
X452960Y1877450D01*
X454250Y1877870D01*
X455380Y1879140D01*
X456180Y1881050D01*
X456500Y1882950D01*
Y1885280D01*
X456180Y1887190D01*
X455380Y1888880D01*
X454410Y1889730D01*
X453280Y1890150D01*
X452000Y1889730D01*
X451030Y1888880D01*
X450390Y1887610D01*
X450070Y1885920D01*
X450390Y1884440D01*
X451190Y1882950D01*
X452160Y1882110D01*
X453280Y1881890D01*
X454570Y1882320D01*
X455540Y1883380D01*
X456500Y1885280D01*
G01X424170Y1820300D02*
Y1833000D01*
X428190D01*
X429480Y1832360D01*
X430280Y1831520D01*
X430600Y1829820D01*
X430280Y1828130D01*
X429320Y1827070D01*
X428190Y1826440D01*
X424170D01*
G01X428190D02*
X430600Y1820300D01*
G01X436800Y1822840D02*
X437760Y1821360D01*
X439050Y1820510D01*
X440500Y1820300D01*
X441780Y1820510D01*
X443070Y1821570D01*
X443870Y1822840D01*
X444030Y1824110D01*
X443710Y1825590D01*
X442590Y1826650D01*
X441460Y1827070D01*
X440010D01*
G01X441460D02*
X442430Y1827710D01*
X443230Y1828770D01*
X443550Y1830040D01*
X443230Y1831310D01*
X442430Y1832360D01*
X440980Y1833000D01*
X439530Y1832790D01*
X438080Y1831940D01*
G01X453280Y1820300D02*
X454410Y1820510D01*
X455700Y1821150D01*
X456500Y1822200D01*
X456820Y1823690D01*
X456500Y1825170D01*
X455540Y1826440D01*
X454090Y1827070D01*
X452480D01*
X451520Y1827500D01*
X450710Y1828550D01*
X450390Y1830040D01*
X450870Y1831520D01*
X452000Y1832580D01*
X453280Y1833000D01*
X454570Y1832580D01*
X455700Y1831520D01*
X456180Y1830040D01*
X455860Y1828550D01*
X455050Y1827500D01*
X454090Y1827070D01*
X452480D01*
X451030Y1826440D01*
X450070Y1825170D01*
X449750Y1823690D01*
X450070Y1822200D01*
X450870Y1821150D01*
X452160Y1820510D01*
X453280Y1820300D01*
G01X424170Y1852050D02*
Y1864750D01*
X428190D01*
X429480Y1864110D01*
X430280Y1863270D01*
X430600Y1861570D01*
X430280Y1859880D01*
X429320Y1858820D01*
X428190Y1858190D01*
X424170D01*
G01X428190D02*
X430600Y1852050D01*
G01X442270D02*
Y1864750D01*
X436310Y1855650D01*
X444360D01*
G01X450230Y1857340D02*
X451350Y1858820D01*
X452320Y1859670D01*
X453610Y1860090D01*
X454730Y1859670D01*
X455540Y1858820D01*
X456180Y1857550D01*
X456340Y1856070D01*
X456180Y1854800D01*
X455540Y1853530D01*
X454570Y1852470D01*
X453450Y1852050D01*
X452160Y1852470D01*
X451030Y1853740D01*
X450390Y1855650D01*
X450230Y1857760D01*
X450550Y1860520D01*
X451030Y1862000D01*
X451840Y1863480D01*
X452960Y1864540D01*
X454090Y1864750D01*
X455220Y1864330D01*
X456020Y1863270D01*
G01X424170Y1934600D02*
Y1947300D01*
X428190D01*
X429480Y1946660D01*
X430280Y1945820D01*
X430600Y1944120D01*
X430280Y1942430D01*
X429320Y1941370D01*
X428190Y1940740D01*
X424170D01*
G01X428190D02*
X430600Y1934600D01*
G01X442270D02*
Y1947300D01*
X436310Y1938200D01*
X444360D01*
G01X453280Y1947300D02*
X452000Y1946880D01*
X451030Y1945820D01*
X450390Y1944550D01*
X449910Y1942850D01*
X449750Y1940950D01*
X449910Y1939040D01*
X450390Y1937350D01*
X451030Y1936080D01*
X452000Y1935020D01*
X453280Y1934600D01*
X454570Y1935020D01*
X455540Y1936080D01*
X456180Y1937350D01*
X456660Y1939040D01*
X456820Y1940950D01*
X456660Y1942850D01*
X456180Y1944550D01*
X455540Y1945820D01*
X454570Y1946880D01*
X453280Y1947300D01*
G01X424170Y1909200D02*
Y1921900D01*
X428190D01*
X429480Y1921260D01*
X430280Y1920420D01*
X430600Y1918720D01*
X430280Y1917030D01*
X429320Y1915970D01*
X428190Y1915340D01*
X424170D01*
G01X428190D02*
X430600Y1909200D01*
G01X442270D02*
Y1921900D01*
X436310Y1912800D01*
X444360D01*
G01X452960Y1909200D02*
X453280Y1911950D01*
X453770Y1914280D01*
X454410Y1916400D01*
X455220Y1918720D01*
X456500Y1921900D01*
X450070D01*
G01X424170Y1991750D02*
Y2004450D01*
X428190D01*
X429480Y2003810D01*
X430280Y2002970D01*
X430600Y2001270D01*
X430280Y1999580D01*
X429320Y1998520D01*
X428190Y1997890D01*
X424170D01*
G01X428190D02*
X430600Y1991750D01*
G01X440330D02*
Y2004450D01*
X438400Y2001910D01*
G01Y1991750D02*
X442260D01*
G01X450230Y2002330D02*
X451190Y2003600D01*
X452320Y2004240D01*
X453610Y2004450D01*
X455220Y2004030D01*
X456340Y2002970D01*
X456660Y2001700D01*
X456500Y2000430D01*
X455860Y1999370D01*
X452640Y1997250D01*
X451190Y1995770D01*
X450230Y1993650D01*
X449910Y1991750D01*
X456660D01*
G01X424170Y2023500D02*
Y2036200D01*
X428190D01*
X429480Y2035560D01*
X430280Y2034720D01*
X430600Y2033020D01*
X430280Y2031330D01*
X429320Y2030270D01*
X428190Y2029640D01*
X424170D01*
G01X428190D02*
X430600Y2023500D01*
G01X442270D02*
Y2036200D01*
X436310Y2027100D01*
X444360D01*
G01X449750Y2026040D02*
X450710Y2024560D01*
X452000Y2023710D01*
X453450Y2023500D01*
X454730Y2023710D01*
X456020Y2024770D01*
X456820Y2026040D01*
X456980Y2027310D01*
X456660Y2028790D01*
X455540Y2029850D01*
X454410Y2030270D01*
X452960D01*
G01X454410D02*
X455380Y2030910D01*
X456180Y2031970D01*
X456500Y2033240D01*
X456180Y2034510D01*
X455380Y2035560D01*
X453930Y2036200D01*
X452480Y2035990D01*
X451030Y2035140D01*
G01X424170Y1966350D02*
Y1979050D01*
X428190D01*
X429480Y1978410D01*
X430280Y1977570D01*
X430600Y1975870D01*
X430280Y1974180D01*
X429320Y1973120D01*
X428190Y1972490D01*
X424170D01*
G01X428190D02*
X430600Y1966350D01*
G01X442270D02*
Y1979050D01*
X436310Y1969950D01*
X444360D01*
G01X455220Y1966350D02*
Y1979050D01*
X449260Y1969950D01*
X457310D01*
G01X424170Y2048900D02*
Y2061600D01*
X428190D01*
X429480Y2060960D01*
X430280Y2060120D01*
X430600Y2058420D01*
X430280Y2056730D01*
X429320Y2055670D01*
X428190Y2055040D01*
X424170D01*
G01X428190D02*
X430600Y2048900D01*
G01X440330D02*
Y2061600D01*
X438400Y2059060D01*
G01Y2048900D02*
X442260D01*
G01X453280D02*
Y2061600D01*
X451350Y2059060D01*
G01Y2048900D02*
X455210D01*
G01X424310Y2106050D02*
Y2118750D01*
X428330D01*
X429620Y2118110D01*
X430420Y2117270D01*
X430740Y2115570D01*
X430420Y2113880D01*
X429460Y2112820D01*
X428330Y2112190D01*
X424310D01*
G01X428330D02*
X430740Y2106050D01*
G01X437740Y2107530D02*
X438870Y2106470D01*
X440150Y2106050D01*
X441440Y2106470D01*
X442570Y2107740D01*
X443370Y2109650D01*
X443690Y2111550D01*
Y2113880D01*
X443370Y2115790D01*
X442570Y2117480D01*
X441600Y2118330D01*
X440470Y2118750D01*
X439190Y2118330D01*
X438220Y2117480D01*
X437580Y2116210D01*
X437260Y2114520D01*
X437580Y2113040D01*
X438380Y2111550D01*
X439350Y2110710D01*
X440470Y2110490D01*
X441760Y2110920D01*
X442730Y2111980D01*
X443690Y2113880D01*
G01X424170Y2080650D02*
Y2093350D01*
X428190D01*
X429480Y2092710D01*
X430280Y2091870D01*
X430600Y2090170D01*
X430280Y2088480D01*
X429320Y2087420D01*
X428190Y2086790D01*
X424170D01*
G01X428190D02*
X430600Y2080650D01*
G01X442270D02*
Y2093350D01*
X436310Y2084250D01*
X444360D01*
G01X450230Y2091230D02*
X451190Y2092500D01*
X452320Y2093140D01*
X453610Y2093350D01*
X455220Y2092930D01*
X456340Y2091870D01*
X456660Y2090600D01*
X456500Y2089330D01*
X455860Y2088270D01*
X452640Y2086150D01*
X451190Y2084670D01*
X450230Y2082550D01*
X449910Y2080650D01*
X456660D01*
G01X424170Y2137800D02*
Y2150500D01*
X428190D01*
X429480Y2149860D01*
X430280Y2149020D01*
X430600Y2147320D01*
X430280Y2145630D01*
X429320Y2144570D01*
X428190Y2143940D01*
X424170D01*
G01X428190D02*
X430600Y2137800D01*
G01X442270D02*
Y2150500D01*
X436310Y2141400D01*
X444360D01*
G01X453280Y2137800D02*
Y2150500D01*
X451350Y2147960D01*
G01Y2137800D02*
X455210D01*
G01X430350Y2184500D02*
X434370Y2171800D01*
X438400Y2184500D01*
G01X443790Y2171800D02*
Y2184500D01*
X447000D01*
X448290Y2183860D01*
X449260Y2183020D01*
X450060Y2181750D01*
X450700Y2180270D01*
X450860Y2178150D01*
X450700Y2176030D01*
X450060Y2174550D01*
X449260Y2173280D01*
X448290Y2172430D01*
X447000Y2171800D01*
X443790D01*
G01X460270D02*
Y2184500D01*
X458340Y2181960D01*
G01Y2171800D02*
X462200D01*
G01X473220D02*
X474350Y2172010D01*
X475640Y2172650D01*
X476440Y2173700D01*
X476760Y2175190D01*
X476440Y2176670D01*
X475480Y2177940D01*
X474030Y2178570D01*
X472420D01*
X471460Y2179000D01*
X470650Y2180050D01*
X470330Y2181540D01*
X470810Y2183020D01*
X471940Y2184080D01*
X473220Y2184500D01*
X474510Y2184080D01*
X475640Y2183020D01*
X476120Y2181540D01*
X475800Y2180050D01*
X474990Y2179000D01*
X474030Y2178570D01*
X472420D01*
X470970Y2177940D01*
X470010Y2176670D01*
X469690Y2175190D01*
X470010Y2173700D01*
X470810Y2172650D01*
X472100Y2172010D01*
X473220Y2171800D01*
G01X488070Y1438240D02*
X487110Y1438880D01*
X485980Y1439300D01*
X484700D01*
X483250Y1438660D01*
X482120Y1437610D01*
X481320Y1436340D01*
X480670Y1434220D01*
X480510Y1432310D01*
X480840Y1430410D01*
X481320Y1429140D01*
X482280Y1427870D01*
X483410Y1427020D01*
X484530Y1426600D01*
X485660D01*
X486790Y1427020D01*
X487750Y1427660D01*
X488560Y1428500D01*
G01X493950Y1429140D02*
X494910Y1427660D01*
X496200Y1426810D01*
X497650Y1426600D01*
X498930Y1426810D01*
X500220Y1427870D01*
X501020Y1429140D01*
X501180Y1430410D01*
X500860Y1431890D01*
X499740Y1432950D01*
X498610Y1433370D01*
X497160D01*
G01X498610D02*
X499580Y1434010D01*
X500380Y1435070D01*
X500700Y1436340D01*
X500380Y1437610D01*
X499580Y1438660D01*
X498130Y1439300D01*
X496680Y1439090D01*
X495230Y1438240D01*
G01X507380Y1431890D02*
X508500Y1433370D01*
X509470Y1434220D01*
X510760Y1434640D01*
X511880Y1434220D01*
X512690Y1433370D01*
X513330Y1432100D01*
X513490Y1430620D01*
X513330Y1429350D01*
X512690Y1428080D01*
X511720Y1427020D01*
X510600Y1426600D01*
X509310Y1427020D01*
X508180Y1428290D01*
X507540Y1430200D01*
X507380Y1432310D01*
X507700Y1435070D01*
X508180Y1436550D01*
X508990Y1438030D01*
X510110Y1439090D01*
X511240Y1439300D01*
X512370Y1438880D01*
X513170Y1437820D01*
G01X493500Y1407550D02*
X501500D01*
G01X494420Y1660490D02*
X493460Y1661130D01*
X492330Y1661550D01*
X491050D01*
X489600Y1660910D01*
X488470Y1659860D01*
X487670Y1658590D01*
X487020Y1656470D01*
X486860Y1654560D01*
X487190Y1652660D01*
X487670Y1651390D01*
X488630Y1650120D01*
X489760Y1649270D01*
X490880Y1648850D01*
X492010D01*
X493140Y1649270D01*
X494100Y1649910D01*
X494910Y1650750D01*
G01X500780Y1659430D02*
X501740Y1660700D01*
X502870Y1661340D01*
X504160Y1661550D01*
X505770Y1661130D01*
X506890Y1660070D01*
X507210Y1658800D01*
X507050Y1657530D01*
X506410Y1656470D01*
X503190Y1654350D01*
X501740Y1652870D01*
X500780Y1650750D01*
X500460Y1648850D01*
X507210D01*
G01X516780D02*
X517910Y1649060D01*
X519200Y1649700D01*
X520000Y1650750D01*
X520320Y1652240D01*
X520000Y1653720D01*
X519040Y1654990D01*
X517590Y1655620D01*
X515980D01*
X515020Y1656050D01*
X514210Y1657100D01*
X513890Y1658590D01*
X514370Y1660070D01*
X515500Y1661130D01*
X516780Y1661550D01*
X518070Y1661130D01*
X519200Y1660070D01*
X519680Y1658590D01*
X519360Y1657100D01*
X518550Y1656050D01*
X517590Y1655620D01*
X515980D01*
X514530Y1654990D01*
X513570Y1653720D01*
X513250Y1652240D01*
X513570Y1650750D01*
X514370Y1649700D01*
X515660Y1649060D01*
X516780Y1648850D01*
G01X494420Y1622390D02*
X493460Y1623030D01*
X492330Y1623450D01*
X491050D01*
X489600Y1622810D01*
X488470Y1621760D01*
X487670Y1620490D01*
X487020Y1618370D01*
X486860Y1616460D01*
X487190Y1614560D01*
X487670Y1613290D01*
X488630Y1612020D01*
X489760Y1611170D01*
X490880Y1610750D01*
X492010D01*
X493140Y1611170D01*
X494100Y1611810D01*
X494910Y1612650D01*
G01X500780Y1621330D02*
X501740Y1622600D01*
X502870Y1623240D01*
X504160Y1623450D01*
X505770Y1623030D01*
X506890Y1621970D01*
X507210Y1620700D01*
X507050Y1619430D01*
X506410Y1618370D01*
X503190Y1616250D01*
X501740Y1614770D01*
X500780Y1612650D01*
X500460Y1610750D01*
X507210D01*
G01X514050Y1612230D02*
X515180Y1611170D01*
X516460Y1610750D01*
X517750Y1611170D01*
X518880Y1612440D01*
X519680Y1614350D01*
X520000Y1616250D01*
Y1618580D01*
X519680Y1620490D01*
X518880Y1622180D01*
X517910Y1623030D01*
X516780Y1623450D01*
X515500Y1623030D01*
X514530Y1622180D01*
X513890Y1620910D01*
X513570Y1619220D01*
X513890Y1617740D01*
X514690Y1616250D01*
X515660Y1615410D01*
X516780Y1615190D01*
X518070Y1615620D01*
X519040Y1616680D01*
X520000Y1618580D01*
G01X468100Y1617100D02*
X476100D01*
G01X630850Y935580D02*
X618150Y931560D01*
X630850Y927530D01*
G01X618150Y922140D02*
X630850D01*
Y918930D01*
X630210Y917640D01*
X629370Y916670D01*
X628100Y915870D01*
X626620Y915230D01*
X624500Y915070D01*
X622380Y915230D01*
X620900Y915870D01*
X619630Y916670D01*
X618780Y917640D01*
X618150Y918930D01*
Y922140D01*
G01X620690Y909190D02*
X619210Y908230D01*
X618360Y906940D01*
X618150Y905490D01*
X618360Y904210D01*
X619420Y902920D01*
X620690Y902120D01*
X621960Y901960D01*
X623440Y902280D01*
X624500Y903400D01*
X624920Y904530D01*
Y905980D01*
G01Y904530D02*
X625560Y903560D01*
X626620Y902760D01*
X627890Y902440D01*
X629160Y902760D01*
X630210Y903560D01*
X630850Y905010D01*
X630640Y906460D01*
X629790Y907910D01*
G01X570250Y990900D02*
X574270Y978200D01*
X578300Y990900D01*
G01X583690Y978200D02*
Y990900D01*
X586900D01*
X588190Y990260D01*
X589160Y989420D01*
X589960Y988150D01*
X590600Y986670D01*
X590760Y984550D01*
X590600Y982430D01*
X589960Y980950D01*
X589160Y979680D01*
X588190Y978830D01*
X586900Y978200D01*
X583690D01*
G01X597120Y983490D02*
X598240Y984970D01*
X599210Y985820D01*
X600500Y986240D01*
X601620Y985820D01*
X602430Y984970D01*
X603070Y983700D01*
X603230Y982220D01*
X603070Y980950D01*
X602430Y979680D01*
X601460Y978620D01*
X600340Y978200D01*
X599050Y978620D01*
X597920Y979890D01*
X597280Y981800D01*
X597120Y983910D01*
X597440Y986670D01*
X597920Y988150D01*
X598730Y989630D01*
X599850Y990690D01*
X600980Y990900D01*
X602110Y990480D01*
X602910Y989420D01*
G01X618760Y765140D02*
Y777840D01*
X622780D01*
X624070Y777200D01*
X624870Y776360D01*
X625190Y774660D01*
X624870Y772970D01*
X623910Y771910D01*
X622780Y771280D01*
X618760D01*
G01X622780D02*
X625190Y765140D01*
G01X631710D02*
Y777840D01*
X635730D01*
X637020Y777200D01*
X637820Y776360D01*
X638140Y774660D01*
X637820Y772970D01*
X636860Y771910D01*
X635730Y771280D01*
X631710D01*
G01X635730D02*
X638140Y765140D01*
G01X644340Y767040D02*
X645300Y765990D01*
X646430Y765350D01*
X647870Y765140D01*
X649320Y765560D01*
X650450Y766410D01*
X651250Y767890D01*
X651410Y769580D01*
X651090Y771280D01*
X650290Y772340D01*
X649160Y773180D01*
X648040Y773390D01*
X646910Y773180D01*
X645460Y772340D01*
X645940Y777840D01*
X650290D01*
G01X659230Y990900D02*
X663250Y978200D01*
X667280Y990900D01*
G01X672670Y978200D02*
Y990900D01*
X675880D01*
X677170Y990260D01*
X678140Y989420D01*
X678940Y988150D01*
X679580Y986670D01*
X679740Y984550D01*
X679580Y982430D01*
X678940Y980950D01*
X678140Y979680D01*
X677170Y978830D01*
X675880Y978200D01*
X672670D01*
G01X691090D02*
Y990900D01*
X685130Y981800D01*
X693180D01*
G01X684920Y1438240D02*
X683960Y1438880D01*
X682830Y1439300D01*
X681550D01*
X680100Y1438660D01*
X678970Y1437610D01*
X678170Y1436340D01*
X677520Y1434220D01*
X677360Y1432310D01*
X677690Y1430410D01*
X678170Y1429140D01*
X679130Y1427870D01*
X680260Y1427020D01*
X681380Y1426600D01*
X682510D01*
X683640Y1427020D01*
X684600Y1427660D01*
X685410Y1428500D01*
G01X690800Y1429140D02*
X691760Y1427660D01*
X693050Y1426810D01*
X694500Y1426600D01*
X695780Y1426810D01*
X697070Y1427870D01*
X697870Y1429140D01*
X698030Y1430410D01*
X697710Y1431890D01*
X696590Y1432950D01*
X695460Y1433370D01*
X694010D01*
G01X695460D02*
X696430Y1434010D01*
X697230Y1435070D01*
X697550Y1436340D01*
X697230Y1437610D01*
X696430Y1438660D01*
X694980Y1439300D01*
X693530Y1439090D01*
X692080Y1438240D01*
G01X706960Y1426600D02*
X707280Y1429350D01*
X707770Y1431680D01*
X708410Y1433800D01*
X709220Y1436120D01*
X710500Y1439300D01*
X704070D01*
G01X690350Y1407550D02*
X698350D01*
G01X695240Y991900D02*
X699260Y979200D01*
X703290Y991900D01*
G01X708680Y979200D02*
Y991900D01*
X711890D01*
X713180Y991260D01*
X714150Y990420D01*
X714950Y989150D01*
X715590Y987670D01*
X715750Y985550D01*
X715590Y983430D01*
X714950Y981950D01*
X714150Y980680D01*
X713180Y979830D01*
X711890Y979200D01*
X708680D01*
G01X721630Y981100D02*
X722590Y980050D01*
X723720Y979410D01*
X725160Y979200D01*
X726610Y979620D01*
X727740Y980470D01*
X728540Y981950D01*
X728700Y983640D01*
X728380Y985340D01*
X727580Y986400D01*
X726450Y987240D01*
X725330Y987450D01*
X724200Y987240D01*
X722750Y986400D01*
X723230Y991900D01*
X727580D01*
G01X908270Y1474260D02*
Y1461560D01*
X914700D01*
G01X924430D02*
Y1474260D01*
X922500Y1471720D01*
G01Y1461560D02*
X926360D01*
G01X922540Y2181360D02*
X923810Y2179330D01*
X925330Y2177980D01*
X927110Y2177300D01*
X929140Y2177980D01*
X930670Y2179330D01*
X932190Y2181360D01*
X932700Y2184070D01*
Y2197620D01*
G01X952510Y2177300D02*
Y2190850D01*
G01Y2188480D02*
X951500Y2189830D01*
X949970Y2190510D01*
X948190Y2190850D01*
X946420Y2190170D01*
X944890Y2188810D01*
X943880Y2186780D01*
X943370Y2184070D01*
X943880Y2181360D01*
X944890Y2179330D01*
X946420Y2177980D01*
X948190Y2177300D01*
X949970Y2177640D01*
X951500Y2178650D01*
X952510Y2180010D01*
G01X963940Y2177300D02*
Y2190850D01*
G01Y2187460D02*
X964960Y2189150D01*
X966480Y2190510D01*
X968510Y2190850D01*
X970290Y2190510D01*
X971820Y2189150D01*
X972580Y2186780D01*
Y2177300D01*
G01X984260Y2190850D02*
Y2181360D01*
X985280Y2178990D01*
X986800Y2177640D01*
X988580Y2177300D01*
X990360Y2177640D01*
X991880Y2178990D01*
X992900Y2181360D01*
G01Y2177300D02*
Y2190850D01*
G01X1013470Y2177300D02*
Y2190850D01*
G01Y2188480D02*
X1012460Y2189830D01*
X1010930Y2190510D01*
X1009150Y2190850D01*
X1007380Y2190170D01*
X1005850Y2188810D01*
X1004840Y2186780D01*
X1004330Y2184070D01*
X1004840Y2181360D01*
X1005850Y2179330D01*
X1007380Y2177980D01*
X1009150Y2177300D01*
X1010930Y2177640D01*
X1012460Y2178650D01*
X1013470Y2180010D01*
G01X1025660Y2177300D02*
Y2190850D01*
G01Y2188140D02*
X1026930Y2189490D01*
X1028200Y2190510D01*
X1029980Y2190850D01*
X1031250Y2190510D01*
X1032780Y2189490D01*
G01X1044210Y2171200D02*
X1045730Y2170530D01*
X1047760Y2171200D01*
X1049030Y2172560D01*
X1050050Y2174250D01*
X1051570Y2179670D01*
X1054870Y2190850D01*
G01X1046750D02*
X1051570Y2179670D01*
G01X1085350Y2194230D02*
X1086880Y2196270D01*
X1088660Y2197280D01*
X1090690Y2197620D01*
X1093230Y2196940D01*
X1095010Y2195250D01*
X1095510Y2193220D01*
X1095260Y2191180D01*
X1094240Y2189490D01*
X1089160Y2186110D01*
X1086880Y2183730D01*
X1085350Y2180350D01*
X1084850Y2177300D01*
X1095510D01*
G01X1110500Y2197620D02*
X1108470Y2196940D01*
X1106940Y2195250D01*
X1105930Y2193220D01*
X1105170Y2190510D01*
X1104910Y2187460D01*
X1105170Y2184410D01*
X1105930Y2181700D01*
X1106940Y2179670D01*
X1108470Y2177980D01*
X1110500Y2177300D01*
X1112530Y2177980D01*
X1114060Y2179670D01*
X1115070Y2181700D01*
X1115830Y2184410D01*
X1116090Y2187460D01*
X1115830Y2190510D01*
X1115070Y2193220D01*
X1114060Y2195250D01*
X1112530Y2196940D01*
X1110500Y2197620D01*
G01X1130820Y2177300D02*
Y2197620D01*
X1127770Y2193560D01*
G01Y2177300D02*
X1133870D01*
G01X1154190D02*
Y2197620D01*
X1144790Y2183060D01*
X1157490D01*
G01X928650Y2220140D02*
X929670Y2221150D01*
X930430Y2222850D01*
X930940Y2225220D01*
X930430Y2227250D01*
X929410Y2228600D01*
X927640Y2229620D01*
X920780D01*
Y2209300D01*
X929160D01*
X930940Y2210650D01*
X931950Y2212690D01*
X932460Y2215060D01*
X931950Y2217430D01*
X930430Y2219460D01*
X928650Y2220140D01*
X920780D01*
G01X940590Y2229620D02*
X946940Y2209300D01*
X953290Y2229620D01*
G01X962180Y2209300D02*
Y2229620D01*
X968280D01*
X970310Y2228600D01*
X971830Y2226230D01*
X972340Y2223520D01*
X971830Y2220810D01*
X970560Y2218780D01*
X968280Y2217770D01*
X962180D01*
G01X979960Y2202530D02*
X995200D01*
G01X1007900Y2229620D02*
X1005870Y2228940D01*
X1004340Y2227250D01*
X1003330Y2225220D01*
X1002570Y2222510D01*
X1002310Y2219460D01*
X1002570Y2216410D01*
X1003330Y2213700D01*
X1004340Y2211670D01*
X1005870Y2209980D01*
X1007900Y2209300D01*
X1009930Y2209980D01*
X1011460Y2211670D01*
X1012470Y2213700D01*
X1013230Y2216410D01*
X1013490Y2219460D01*
X1013230Y2222510D01*
X1012470Y2225220D01*
X1011460Y2227250D01*
X1009930Y2228940D01*
X1007900Y2229620D01*
G01X1031270Y2209300D02*
Y2229620D01*
X1021870Y2215060D01*
X1034570D01*
G01X1043970Y2222850D02*
X1048540Y2209300D01*
X1053110Y2222850D01*
G01X1064030Y2226230D02*
X1065560Y2228270D01*
X1067340Y2229280D01*
X1069370Y2229620D01*
X1071910Y2228940D01*
X1073690Y2227250D01*
X1074190Y2225220D01*
X1073940Y2223180D01*
X1072920Y2221490D01*
X1067840Y2218110D01*
X1065560Y2215730D01*
X1064030Y2212350D01*
X1063530Y2209300D01*
X1074190D01*
G01X958110Y1406490D02*
X957150Y1407130D01*
X956020Y1407550D01*
X954740D01*
X953290Y1406910D01*
X952160Y1405860D01*
X951360Y1404590D01*
X950710Y1402470D01*
X950550Y1400560D01*
X950880Y1398660D01*
X951360Y1397390D01*
X952320Y1396120D01*
X953450Y1395270D01*
X954570Y1394850D01*
X955700D01*
X956830Y1395270D01*
X957790Y1395910D01*
X958600Y1396750D01*
G01X967520Y1394850D02*
Y1407550D01*
X965590Y1405010D01*
G01Y1394850D02*
X969450D01*
G01X995150Y1413900D02*
X1003150D01*
G01X1014720Y1102750D02*
Y1115450D01*
X1018740D01*
X1020030Y1114810D01*
X1020830Y1113970D01*
X1021150Y1112270D01*
X1020830Y1110580D01*
X1019870Y1109520D01*
X1018740Y1108890D01*
X1014720D01*
G01X1018740D02*
X1021150Y1102750D01*
G01X1032820D02*
Y1115450D01*
X1026860Y1106350D01*
X1034910D01*
G01X1043830Y1102750D02*
X1044960Y1102960D01*
X1046250Y1103600D01*
X1047050Y1104650D01*
X1047370Y1106140D01*
X1047050Y1107620D01*
X1046090Y1108890D01*
X1044640Y1109520D01*
X1043030D01*
X1042070Y1109950D01*
X1041260Y1111000D01*
X1040940Y1112490D01*
X1041420Y1113970D01*
X1042550Y1115030D01*
X1043830Y1115450D01*
X1045120Y1115030D01*
X1046250Y1113970D01*
X1046730Y1112490D01*
X1046410Y1111000D01*
X1045600Y1109950D01*
X1044640Y1109520D01*
X1043030D01*
X1041580Y1108890D01*
X1040620Y1107620D01*
X1040300Y1106140D01*
X1040620Y1104650D01*
X1041420Y1103600D01*
X1042710Y1102960D01*
X1043830Y1102750D01*
G01X1050370Y1209440D02*
X1049410Y1210080D01*
X1048280Y1210500D01*
X1047000D01*
X1045550Y1209860D01*
X1044420Y1208810D01*
X1043620Y1207540D01*
X1042970Y1205420D01*
X1042810Y1203510D01*
X1043140Y1201610D01*
X1043620Y1200340D01*
X1044580Y1199070D01*
X1045710Y1198220D01*
X1046830Y1197800D01*
X1047960D01*
X1049090Y1198220D01*
X1050050Y1198860D01*
X1050860Y1199700D01*
G01X1059780Y1197800D02*
Y1210500D01*
X1057850Y1207960D01*
G01Y1197800D02*
X1061710D01*
G01X1074670D02*
Y1210500D01*
X1068710Y1201400D01*
X1076760D01*
G01X1021470Y1152490D02*
X1020510Y1153130D01*
X1019380Y1153550D01*
X1018100D01*
X1016650Y1152910D01*
X1015520Y1151860D01*
X1014720Y1150590D01*
X1014070Y1148470D01*
X1013910Y1146560D01*
X1014240Y1144660D01*
X1014720Y1143390D01*
X1015680Y1142120D01*
X1016810Y1141270D01*
X1017930Y1140850D01*
X1019060D01*
X1020190Y1141270D01*
X1021150Y1141910D01*
X1021960Y1142750D01*
G01X1030880Y1140850D02*
Y1153550D01*
X1028950Y1151010D01*
G01Y1140850D02*
X1032810D01*
G01X1040780Y1151430D02*
X1041740Y1152700D01*
X1042870Y1153340D01*
X1044160Y1153550D01*
X1045770Y1153130D01*
X1046890Y1152070D01*
X1047210Y1150800D01*
X1047050Y1149530D01*
X1046410Y1148470D01*
X1043190Y1146350D01*
X1041740Y1144870D01*
X1040780Y1142750D01*
X1040460Y1140850D01*
X1047210D01*
G01X1058650Y1147200D02*
X1066650D01*
G01X1065200Y1318650D02*
Y1331350D01*
X1068410D01*
X1069700Y1330710D01*
X1070670Y1329870D01*
X1071470Y1328600D01*
X1072110Y1327120D01*
X1072270Y1325000D01*
X1072110Y1322880D01*
X1071470Y1321400D01*
X1070670Y1320130D01*
X1069700Y1319280D01*
X1068410Y1318650D01*
X1065200D01*
G01X1077660D02*
X1081680Y1331350D01*
X1085710Y1318650D01*
G01X1084260Y1323090D02*
X1079110D01*
G01X1091100Y1321190D02*
X1092060Y1319710D01*
X1093350Y1318860D01*
X1094800Y1318650D01*
X1096080Y1318860D01*
X1097370Y1319920D01*
X1098170Y1321190D01*
X1098330Y1322460D01*
X1098010Y1323940D01*
X1096890Y1325000D01*
X1095760Y1325420D01*
X1094310D01*
G01X1095760D02*
X1096730Y1326060D01*
X1097530Y1327120D01*
X1097850Y1328390D01*
X1097530Y1329660D01*
X1096730Y1330710D01*
X1095280Y1331350D01*
X1093830Y1331140D01*
X1092380Y1330290D01*
G01X1072270Y1298540D02*
X1071310Y1299180D01*
X1070180Y1299600D01*
X1068900D01*
X1067450Y1298960D01*
X1066320Y1297910D01*
X1065520Y1296640D01*
X1064870Y1294520D01*
X1064710Y1292610D01*
X1065040Y1290710D01*
X1065520Y1289440D01*
X1066480Y1288170D01*
X1067610Y1287320D01*
X1068730Y1286900D01*
X1069860D01*
X1070990Y1287320D01*
X1071950Y1287960D01*
X1072760Y1288800D01*
G01X1081680Y1286900D02*
Y1299600D01*
X1079750Y1297060D01*
G01Y1286900D02*
X1083610D01*
G01X1091580Y1292190D02*
X1092700Y1293670D01*
X1093670Y1294520D01*
X1094960Y1294940D01*
X1096080Y1294520D01*
X1096890Y1293670D01*
X1097530Y1292400D01*
X1097690Y1290920D01*
X1097530Y1289650D01*
X1096890Y1288380D01*
X1095920Y1287320D01*
X1094800Y1286900D01*
X1093510Y1287320D01*
X1092380Y1288590D01*
X1091740Y1290500D01*
X1091580Y1292610D01*
X1091900Y1295370D01*
X1092380Y1296850D01*
X1093190Y1298330D01*
X1094310Y1299390D01*
X1095440Y1299600D01*
X1096570Y1299180D01*
X1097370Y1298120D01*
G01X1072270Y1368390D02*
X1071310Y1369030D01*
X1070180Y1369450D01*
X1068900D01*
X1067450Y1368810D01*
X1066320Y1367760D01*
X1065520Y1366490D01*
X1064870Y1364370D01*
X1064710Y1362460D01*
X1065040Y1360560D01*
X1065520Y1359290D01*
X1066480Y1358020D01*
X1067610Y1357170D01*
X1068730Y1356750D01*
X1069860D01*
X1070990Y1357170D01*
X1071950Y1357810D01*
X1072760Y1358650D01*
G01X1081680Y1356750D02*
Y1369450D01*
X1079750Y1366910D01*
G01Y1356750D02*
X1083610D01*
G01X1094310D02*
X1094630Y1359500D01*
X1095120Y1361830D01*
X1095760Y1363950D01*
X1096570Y1366270D01*
X1097850Y1369450D01*
X1091420D01*
G01X1019960Y1431860D02*
X1019000Y1432500D01*
X1017870Y1432920D01*
X1016590D01*
X1015140Y1432280D01*
X1014010Y1431230D01*
X1013210Y1429960D01*
X1012560Y1427840D01*
X1012400Y1425930D01*
X1012730Y1424030D01*
X1013210Y1422760D01*
X1014170Y1421490D01*
X1015300Y1420640D01*
X1016420Y1420220D01*
X1017550D01*
X1018680Y1420640D01*
X1019640Y1421280D01*
X1020450Y1422120D01*
G01X1026320Y1430800D02*
X1027280Y1432070D01*
X1028410Y1432710D01*
X1029700Y1432920D01*
X1031310Y1432500D01*
X1032430Y1431440D01*
X1032750Y1430170D01*
X1032590Y1428900D01*
X1031950Y1427840D01*
X1028730Y1425720D01*
X1027280Y1424240D01*
X1026320Y1422120D01*
X1026000Y1420220D01*
X1032750D01*
G01X1105570Y1007500D02*
Y1020200D01*
X1103640Y1017660D01*
G01Y1007500D02*
X1107500D01*
G01X1081500Y1099300D02*
Y1112000D01*
X1084710D01*
X1086000Y1111360D01*
X1086970Y1110520D01*
X1087770Y1109250D01*
X1088410Y1107770D01*
X1088570Y1105650D01*
X1088410Y1103530D01*
X1087770Y1102050D01*
X1086970Y1100780D01*
X1086000Y1099930D01*
X1084710Y1099300D01*
X1081500D01*
G01X1093960D02*
X1097980Y1112000D01*
X1102010Y1099300D01*
G01X1100560Y1103740D02*
X1095410D01*
G01X1110930Y1099300D02*
Y1112000D01*
X1109000Y1109460D01*
G01Y1099300D02*
X1112860D01*
G01X1140790Y1053570D02*
X1140390Y1052990D01*
X1140130Y1052310D01*
Y1051530D01*
X1140520Y1050650D01*
X1141180Y1049970D01*
X1141970Y1049480D01*
X1143280Y1049090D01*
X1144460Y1049000D01*
X1145640Y1049190D01*
X1146430Y1049480D01*
X1147210Y1050070D01*
X1147740Y1050750D01*
X1148000Y1051430D01*
Y1052110D01*
X1147740Y1052790D01*
X1147340Y1053380D01*
X1146820Y1053860D01*
G01X1148000Y1059300D02*
X1140130D01*
X1141700Y1058130D01*
G01X1148000D02*
Y1060470D01*
G01X1140130Y1067170D02*
X1140390Y1066390D01*
X1141050Y1065810D01*
X1141840Y1065420D01*
X1142880Y1065130D01*
X1144070Y1065030D01*
X1145250Y1065130D01*
X1146290Y1065420D01*
X1147080Y1065810D01*
X1147740Y1066390D01*
X1148000Y1067170D01*
X1147740Y1067950D01*
X1147080Y1068530D01*
X1146290Y1068920D01*
X1145250Y1069210D01*
X1144070Y1069310D01*
X1142880Y1069210D01*
X1141840Y1068920D01*
X1141050Y1068530D01*
X1140390Y1067950D01*
X1140130Y1067170D01*
G01X1149200Y1090050D02*
X1141200D01*
G01X1102040Y1060840D02*
X1103000Y1059360D01*
X1104290Y1058510D01*
X1105740Y1058300D01*
X1107020Y1058510D01*
X1108310Y1059570D01*
X1109110Y1060840D01*
X1109270Y1062110D01*
X1108950Y1063590D01*
X1107830Y1064650D01*
X1106700Y1065070D01*
X1105250D01*
G01X1106700D02*
X1107670Y1065710D01*
X1108470Y1066770D01*
X1108790Y1068040D01*
X1108470Y1069310D01*
X1107670Y1070360D01*
X1106220Y1071000D01*
X1104770Y1070790D01*
X1103320Y1069940D01*
G01X1131020Y1159180D02*
X1123150D01*
Y1161620D01*
X1123540Y1162400D01*
X1124070Y1162880D01*
X1125120Y1163080D01*
X1126170Y1162880D01*
X1126820Y1162300D01*
X1127220Y1161620D01*
Y1159180D01*
G01Y1161620D02*
X1131020Y1163080D01*
G01X1129450Y1166860D02*
X1130360Y1167440D01*
X1130890Y1168220D01*
X1131020Y1169100D01*
X1130890Y1169880D01*
X1130230Y1170650D01*
X1129450Y1171140D01*
X1128660Y1171240D01*
X1127740Y1171040D01*
X1127090Y1170360D01*
X1126820Y1169680D01*
Y1168810D01*
G01Y1169680D02*
X1126430Y1170270D01*
X1125770Y1170750D01*
X1124990Y1170950D01*
X1124200Y1170750D01*
X1123540Y1170270D01*
X1123150Y1169390D01*
X1123280Y1168510D01*
X1123810Y1167640D01*
G01X1131020Y1176870D02*
X1123150D01*
X1124720Y1175700D01*
G01X1131020D02*
Y1178040D01*
G01X1111940Y1159180D02*
X1104070D01*
Y1161620D01*
X1104460Y1162400D01*
X1104990Y1162880D01*
X1106040Y1163080D01*
X1107090Y1162880D01*
X1107740Y1162300D01*
X1108140Y1161620D01*
Y1159180D01*
G01Y1161620D02*
X1111940Y1163080D01*
G01X1110370Y1166860D02*
X1111280Y1167440D01*
X1111810Y1168220D01*
X1111940Y1169100D01*
X1111810Y1169880D01*
X1111150Y1170650D01*
X1110370Y1171140D01*
X1109580Y1171240D01*
X1108660Y1171040D01*
X1108010Y1170360D01*
X1107740Y1169680D01*
Y1168810D01*
G01Y1169680D02*
X1107350Y1170270D01*
X1106690Y1170750D01*
X1105910Y1170950D01*
X1105120Y1170750D01*
X1104460Y1170270D01*
X1104070Y1169390D01*
X1104200Y1168510D01*
X1104730Y1167640D01*
G01X1104070Y1176870D02*
X1104330Y1176090D01*
X1104990Y1175510D01*
X1105780Y1175120D01*
X1106820Y1174830D01*
X1108010Y1174730D01*
X1109190Y1174830D01*
X1110230Y1175120D01*
X1111020Y1175510D01*
X1111680Y1176090D01*
X1111940Y1176870D01*
X1111680Y1177650D01*
X1111020Y1178230D01*
X1110230Y1178620D01*
X1109190Y1178910D01*
X1108010Y1179010D01*
X1106820Y1178910D01*
X1105780Y1178620D01*
X1104990Y1178230D01*
X1104330Y1177650D01*
X1104070Y1176870D01*
G01X1148000Y1154480D02*
X1140130D01*
Y1156920D01*
X1140520Y1157700D01*
X1141050Y1158180D01*
X1142100Y1158380D01*
X1143150Y1158180D01*
X1143800Y1157600D01*
X1144200Y1156920D01*
Y1154480D01*
G01Y1156920D02*
X1148000Y1158380D01*
G01X1141440Y1162450D02*
X1140650Y1163030D01*
X1140260Y1163720D01*
X1140130Y1164490D01*
X1140390Y1165470D01*
X1141050Y1166150D01*
X1141840Y1166340D01*
X1142620Y1166250D01*
X1143280Y1165860D01*
X1144590Y1163910D01*
X1145510Y1163030D01*
X1146820Y1162450D01*
X1148000Y1162260D01*
Y1166340D01*
G01X1147080Y1170520D02*
X1147740Y1171200D01*
X1148000Y1171980D01*
X1147740Y1172750D01*
X1146950Y1173440D01*
X1145770Y1173920D01*
X1144590Y1174120D01*
X1143150D01*
X1141970Y1173920D01*
X1140920Y1173440D01*
X1140390Y1172850D01*
X1140130Y1172170D01*
X1140390Y1171390D01*
X1140920Y1170810D01*
X1141700Y1170420D01*
X1142750Y1170220D01*
X1143670Y1170420D01*
X1144590Y1170900D01*
X1145110Y1171490D01*
X1145250Y1172170D01*
X1144980Y1172950D01*
X1144330Y1173530D01*
X1143150Y1174120D01*
G01X1153570Y1282940D02*
X1152610Y1283580D01*
X1151480Y1284000D01*
X1150200D01*
X1148750Y1283360D01*
X1147620Y1282310D01*
X1146820Y1281040D01*
X1146170Y1278920D01*
X1146010Y1277010D01*
X1146340Y1275110D01*
X1146820Y1273840D01*
X1147780Y1272570D01*
X1148910Y1271720D01*
X1150030Y1271300D01*
X1151160D01*
X1152290Y1271720D01*
X1153250Y1272360D01*
X1154060Y1273200D01*
G01X1162980Y1271300D02*
Y1284000D01*
X1161050Y1281460D01*
G01Y1271300D02*
X1164910D01*
G01X1172400Y1273200D02*
X1173360Y1272150D01*
X1174490Y1271510D01*
X1175930Y1271300D01*
X1177380Y1271720D01*
X1178510Y1272570D01*
X1179310Y1274050D01*
X1179470Y1275740D01*
X1179150Y1277440D01*
X1178350Y1278500D01*
X1177220Y1279340D01*
X1176100Y1279550D01*
X1174970Y1279340D01*
X1173520Y1278500D01*
X1174000Y1284000D01*
X1178350D01*
G01X1084970Y1247740D02*
X1084010Y1248380D01*
X1082880Y1248800D01*
X1081600D01*
X1080150Y1248160D01*
X1079020Y1247110D01*
X1078220Y1245840D01*
X1077570Y1243720D01*
X1077410Y1241810D01*
X1077740Y1239910D01*
X1078220Y1238640D01*
X1079180Y1237370D01*
X1080310Y1236520D01*
X1081430Y1236100D01*
X1082560D01*
X1083690Y1236520D01*
X1084650Y1237160D01*
X1085460Y1238000D01*
G01X1094380Y1236100D02*
Y1248800D01*
X1092450Y1246260D01*
G01Y1236100D02*
X1096310D01*
G01X1103800Y1238640D02*
X1104760Y1237160D01*
X1106050Y1236310D01*
X1107500Y1236100D01*
X1108780Y1236310D01*
X1110070Y1237370D01*
X1110870Y1238640D01*
X1111030Y1239910D01*
X1110710Y1241390D01*
X1109590Y1242450D01*
X1108460Y1242870D01*
X1107010D01*
G01X1108460D02*
X1109430Y1243510D01*
X1110230Y1244570D01*
X1110550Y1245840D01*
X1110230Y1247110D01*
X1109430Y1248160D01*
X1107980Y1248800D01*
X1106530Y1248590D01*
X1105080Y1247740D01*
G01X1122150Y1248800D02*
X1130150D01*
G01X1117450Y1286900D02*
X1109450D01*
G01X1136500D02*
X1128500D01*
G01X1135770Y1393790D02*
X1134810Y1394430D01*
X1133680Y1394850D01*
X1132400D01*
X1130950Y1394210D01*
X1129820Y1393160D01*
X1129020Y1391890D01*
X1128370Y1389770D01*
X1128210Y1387860D01*
X1128540Y1385960D01*
X1129020Y1384690D01*
X1129980Y1383420D01*
X1131110Y1382570D01*
X1132230Y1382150D01*
X1133360D01*
X1134490Y1382570D01*
X1135450Y1383210D01*
X1136260Y1384050D01*
G01X1145180Y1382150D02*
Y1394850D01*
X1143250Y1392310D01*
G01Y1382150D02*
X1147110D01*
G01X1158130D02*
X1159260Y1382360D01*
X1160550Y1383000D01*
X1161350Y1384050D01*
X1161670Y1385540D01*
X1161350Y1387020D01*
X1160390Y1388290D01*
X1158940Y1388920D01*
X1157330D01*
X1156370Y1389350D01*
X1155560Y1390400D01*
X1155240Y1391890D01*
X1155720Y1393370D01*
X1156850Y1394430D01*
X1158130Y1394850D01*
X1159420Y1394430D01*
X1160550Y1393370D01*
X1161030Y1391890D01*
X1160710Y1390400D01*
X1159900Y1389350D01*
X1158940Y1388920D01*
X1157330D01*
X1155880Y1388290D01*
X1154920Y1387020D01*
X1154600Y1385540D01*
X1154920Y1384050D01*
X1155720Y1383000D01*
X1157010Y1382360D01*
X1158130Y1382150D01*
G01X1128500Y1363100D02*
X1136500D01*
G01X1226220Y118500D02*
Y131200D01*
X1224290Y128660D01*
G01Y118500D02*
X1228150D01*
G01X1239170Y131200D02*
X1237890Y130780D01*
X1236920Y129720D01*
X1236280Y128450D01*
X1235800Y126750D01*
X1235640Y124850D01*
X1235800Y122940D01*
X1236280Y121250D01*
X1236920Y119980D01*
X1237890Y118920D01*
X1239170Y118500D01*
X1240460Y118920D01*
X1241430Y119980D01*
X1242070Y121250D01*
X1242550Y122940D01*
X1242710Y124850D01*
X1242550Y126750D01*
X1242070Y128450D01*
X1241430Y129720D01*
X1240460Y130780D01*
X1239170Y131200D01*
G01X1217400Y182000D02*
X1225400D01*
G01X1156180Y176840D02*
Y189540D01*
X1160200D01*
X1161490Y188900D01*
X1162290Y188060D01*
X1162610Y186360D01*
X1162290Y184670D01*
X1161330Y183610D01*
X1160200Y182980D01*
X1156180D01*
G01X1160200D02*
X1162610Y176840D01*
G01X1169290Y187420D02*
X1170250Y188690D01*
X1171380Y189330D01*
X1172670Y189540D01*
X1174280Y189120D01*
X1175400Y188060D01*
X1175720Y186790D01*
X1175560Y185520D01*
X1174920Y184460D01*
X1171700Y182340D01*
X1170250Y180860D01*
X1169290Y178740D01*
X1168970Y176840D01*
X1175720D01*
G01X1185290Y189540D02*
X1184010Y189120D01*
X1183040Y188060D01*
X1182400Y186790D01*
X1181920Y185090D01*
X1181760Y183190D01*
X1181920Y181280D01*
X1182400Y179590D01*
X1183040Y178320D01*
X1184010Y177260D01*
X1185290Y176840D01*
X1186580Y177260D01*
X1187550Y178320D01*
X1188190Y179590D01*
X1188670Y181280D01*
X1188830Y183190D01*
X1188670Y185090D01*
X1188190Y186790D01*
X1187550Y188060D01*
X1186580Y189120D01*
X1185290Y189540D01*
G01X1223490Y227930D02*
X1224620Y226870D01*
X1225900Y226450D01*
X1227190Y226870D01*
X1228320Y228140D01*
X1229120Y230050D01*
X1229440Y231950D01*
Y234280D01*
X1229120Y236190D01*
X1228320Y237880D01*
X1227350Y238730D01*
X1226220Y239150D01*
X1224940Y238730D01*
X1223970Y237880D01*
X1223330Y236610D01*
X1223010Y234920D01*
X1223330Y233440D01*
X1224130Y231950D01*
X1225100Y231110D01*
X1226220Y230890D01*
X1227510Y231320D01*
X1228480Y232380D01*
X1229440Y234280D01*
G01X1197230Y962290D02*
X1200450D01*
Y958480D01*
X1199480Y957210D01*
X1198360Y956360D01*
X1196750Y955940D01*
X1195140Y956360D01*
X1194010Y957210D01*
X1193050Y958480D01*
X1192400Y959960D01*
X1192080Y961650D01*
Y963140D01*
X1192400Y964410D01*
X1193050Y965890D01*
X1194010Y967160D01*
X1194980Y968000D01*
X1196260Y968640D01*
X1197390D01*
X1198680Y968220D01*
X1199640Y967370D01*
G01X1205520Y955940D02*
Y968640D01*
X1212910Y955940D01*
Y968640D01*
G01X1218630Y955940D02*
Y968640D01*
X1221840D01*
X1223130Y968000D01*
X1224100Y967160D01*
X1224900Y965890D01*
X1225540Y964410D01*
X1225700Y962290D01*
X1225540Y960170D01*
X1224900Y958690D01*
X1224100Y957420D01*
X1223130Y956570D01*
X1221840Y955940D01*
X1218630D01*
G01X1231090D02*
X1235110Y968640D01*
X1239140Y955940D01*
G01X1237690Y960380D02*
X1232540D01*
G01X1208700Y1035770D02*
X1196000D01*
Y1039790D01*
X1196640Y1041080D01*
X1197480Y1041880D01*
X1199180Y1042200D01*
X1200870Y1041880D01*
X1201930Y1040920D01*
X1202560Y1039790D01*
Y1035770D01*
G01Y1039790D02*
X1208700Y1042200D01*
G01X1198120Y1048880D02*
X1196850Y1049840D01*
X1196210Y1050970D01*
X1196000Y1052260D01*
X1196420Y1053870D01*
X1197480Y1054990D01*
X1198750Y1055310D01*
X1200020Y1055150D01*
X1201080Y1054510D01*
X1203200Y1051290D01*
X1204680Y1049840D01*
X1206800Y1048880D01*
X1208700Y1048560D01*
Y1055310D01*
G01Y1064560D02*
X1205950Y1064880D01*
X1203620Y1065370D01*
X1201500Y1066010D01*
X1199180Y1066820D01*
X1196000Y1068100D01*
Y1061670D01*
G01X1166020Y1018080D02*
X1166980Y1019350D01*
X1168110Y1019990D01*
X1169400Y1020200D01*
X1171010Y1019780D01*
X1172130Y1018720D01*
X1172450Y1017450D01*
X1172290Y1016180D01*
X1171650Y1015120D01*
X1168430Y1013000D01*
X1166980Y1011520D01*
X1166020Y1009400D01*
X1165700Y1007500D01*
X1172450D01*
G01X1205610Y1010000D02*
X1212360Y1022700D01*
G01X1205610D02*
X1212360Y1010000D01*
G01X1218400Y1011900D02*
X1219360Y1010850D01*
X1220490Y1010210D01*
X1221930Y1010000D01*
X1223380Y1010420D01*
X1224510Y1011270D01*
X1225310Y1012750D01*
X1225470Y1014440D01*
X1225150Y1016140D01*
X1224350Y1017200D01*
X1223220Y1018040D01*
X1222100Y1018250D01*
X1220970Y1018040D01*
X1219520Y1017200D01*
X1220000Y1022700D01*
X1224350D01*
G01X1160790Y1053570D02*
X1160390Y1052990D01*
X1160130Y1052310D01*
Y1051530D01*
X1160520Y1050650D01*
X1161180Y1049970D01*
X1161970Y1049480D01*
X1163280Y1049090D01*
X1164460Y1049000D01*
X1165640Y1049190D01*
X1166430Y1049480D01*
X1167210Y1050070D01*
X1167740Y1050750D01*
X1168000Y1051430D01*
Y1052110D01*
X1167740Y1052790D01*
X1167340Y1053380D01*
X1166820Y1053860D01*
G01X1168000Y1059300D02*
X1160130D01*
X1161700Y1058130D01*
G01X1168000D02*
Y1060470D01*
G01Y1067170D02*
X1160130D01*
X1161700Y1066000D01*
G01X1168000D02*
Y1068340D01*
G01X1160250Y1090050D02*
X1168250D01*
G01X1178010Y1055360D02*
X1177370Y1054400D01*
X1176950Y1053270D01*
Y1051990D01*
X1177590Y1050540D01*
X1178640Y1049410D01*
X1179910Y1048610D01*
X1182030Y1047960D01*
X1183940Y1047800D01*
X1185840Y1048130D01*
X1187110Y1048610D01*
X1188380Y1049570D01*
X1189230Y1050700D01*
X1189650Y1051820D01*
Y1052950D01*
X1189230Y1054080D01*
X1188590Y1055040D01*
X1187750Y1055850D01*
G01X1189650Y1064770D02*
X1189440Y1065900D01*
X1188800Y1067190D01*
X1187750Y1067990D01*
X1186260Y1068310D01*
X1184780Y1067990D01*
X1183510Y1067030D01*
X1182880Y1065580D01*
Y1063970D01*
X1182450Y1063010D01*
X1181400Y1062200D01*
X1179910Y1061880D01*
X1178430Y1062360D01*
X1177370Y1063490D01*
X1176950Y1064770D01*
X1177370Y1066060D01*
X1178430Y1067190D01*
X1179910Y1067670D01*
X1181400Y1067350D01*
X1182450Y1066540D01*
X1182880Y1065580D01*
Y1063970D01*
X1183510Y1062520D01*
X1184780Y1061560D01*
X1186260Y1061240D01*
X1187750Y1061560D01*
X1188800Y1062360D01*
X1189440Y1063650D01*
X1189650Y1064770D01*
G01X1179300Y1090050D02*
X1187300D01*
G01X1180790Y1157490D02*
X1180390Y1156910D01*
X1180130Y1156230D01*
Y1155450D01*
X1180520Y1154570D01*
X1181180Y1153890D01*
X1181970Y1153400D01*
X1183280Y1153010D01*
X1184460Y1152920D01*
X1185640Y1153110D01*
X1186430Y1153400D01*
X1187210Y1153990D01*
X1187740Y1154670D01*
X1188000Y1155350D01*
Y1156030D01*
X1187740Y1156710D01*
X1187340Y1157300D01*
X1186820Y1157780D01*
G01X1187080Y1161570D02*
X1187740Y1162250D01*
X1188000Y1163030D01*
X1187740Y1163800D01*
X1186950Y1164490D01*
X1185770Y1164970D01*
X1184590Y1165170D01*
X1183150D01*
X1181970Y1164970D01*
X1180920Y1164490D01*
X1180390Y1163900D01*
X1180130Y1163220D01*
X1180390Y1162440D01*
X1180920Y1161860D01*
X1181700Y1161470D01*
X1182750Y1161270D01*
X1183670Y1161470D01*
X1184590Y1161950D01*
X1185110Y1162540D01*
X1185250Y1163220D01*
X1184980Y1164000D01*
X1184330Y1164580D01*
X1183150Y1165170D01*
G01X1168000Y1154480D02*
X1160130D01*
Y1156920D01*
X1160520Y1157700D01*
X1161050Y1158180D01*
X1162100Y1158380D01*
X1163150Y1158180D01*
X1163800Y1157600D01*
X1164200Y1156920D01*
Y1154480D01*
G01Y1156920D02*
X1168000Y1158380D01*
G01X1161440Y1162450D02*
X1160650Y1163030D01*
X1160260Y1163720D01*
X1160130Y1164490D01*
X1160390Y1165470D01*
X1161050Y1166150D01*
X1161840Y1166340D01*
X1162620Y1166250D01*
X1163280Y1165860D01*
X1164590Y1163910D01*
X1165510Y1163030D01*
X1166820Y1162450D01*
X1168000Y1162260D01*
Y1166340D01*
G01Y1172170D02*
X1167870Y1172850D01*
X1167480Y1173630D01*
X1166820Y1174120D01*
X1165900Y1174310D01*
X1164980Y1174120D01*
X1164200Y1173530D01*
X1163800Y1172660D01*
Y1171680D01*
X1163540Y1171100D01*
X1162880Y1170610D01*
X1161970Y1170420D01*
X1161050Y1170710D01*
X1160390Y1171390D01*
X1160130Y1172170D01*
X1160390Y1172950D01*
X1161050Y1173630D01*
X1161970Y1173920D01*
X1162880Y1173730D01*
X1163540Y1173240D01*
X1163800Y1172660D01*
Y1171680D01*
X1164200Y1170810D01*
X1164980Y1170220D01*
X1165900Y1170030D01*
X1166820Y1170220D01*
X1167480Y1170710D01*
X1167870Y1171490D01*
X1168000Y1172170D01*
G01X1209800Y1153620D02*
X1197100D01*
Y1157640D01*
X1197740Y1158930D01*
X1198580Y1159730D01*
X1200280Y1160050D01*
X1201970Y1159730D01*
X1203030Y1158770D01*
X1203660Y1157640D01*
Y1153620D01*
G01Y1157640D02*
X1209800Y1160050D01*
G01X1199220Y1166730D02*
X1197950Y1167690D01*
X1197310Y1168820D01*
X1197100Y1170110D01*
X1197520Y1171720D01*
X1198580Y1172840D01*
X1199850Y1173160D01*
X1201120Y1173000D01*
X1202180Y1172360D01*
X1204300Y1169140D01*
X1205780Y1167690D01*
X1207900Y1166730D01*
X1209800Y1166410D01*
Y1173160D01*
G01X1204510Y1179680D02*
X1203030Y1180800D01*
X1202180Y1181770D01*
X1201760Y1183060D01*
X1202180Y1184180D01*
X1203030Y1184990D01*
X1204300Y1185630D01*
X1205780Y1185790D01*
X1207050Y1185630D01*
X1208320Y1184990D01*
X1209380Y1184020D01*
X1209800Y1182900D01*
X1209380Y1181610D01*
X1208110Y1180480D01*
X1206200Y1179840D01*
X1204090Y1179680D01*
X1201330Y1180000D01*
X1199850Y1180480D01*
X1198370Y1181290D01*
X1197310Y1182410D01*
X1197100Y1183540D01*
X1197520Y1184670D01*
X1198580Y1185470D01*
G01X1229800Y1153620D02*
X1217100D01*
Y1157640D01*
X1217740Y1158930D01*
X1218580Y1159730D01*
X1220280Y1160050D01*
X1221970Y1159730D01*
X1223030Y1158770D01*
X1223660Y1157640D01*
Y1153620D01*
G01Y1157640D02*
X1229800Y1160050D01*
G01X1219220Y1166730D02*
X1217950Y1167690D01*
X1217310Y1168820D01*
X1217100Y1170110D01*
X1217520Y1171720D01*
X1218580Y1172840D01*
X1219850Y1173160D01*
X1221120Y1173000D01*
X1222180Y1172360D01*
X1224300Y1169140D01*
X1225780Y1167690D01*
X1227900Y1166730D01*
X1229800Y1166410D01*
Y1173160D01*
G01X1227900Y1179200D02*
X1228950Y1180160D01*
X1229590Y1181290D01*
X1229800Y1182730D01*
X1229380Y1184180D01*
X1228530Y1185310D01*
X1227050Y1186110D01*
X1225360Y1186270D01*
X1223660Y1185950D01*
X1222600Y1185150D01*
X1221760Y1184020D01*
X1221550Y1182900D01*
X1221760Y1181770D01*
X1222600Y1180320D01*
X1217100Y1180800D01*
Y1185150D01*
G01X1204900Y1210700D02*
Y1223400D01*
X1208110D01*
X1209400Y1222760D01*
X1210370Y1221920D01*
X1211170Y1220650D01*
X1211810Y1219170D01*
X1211970Y1217050D01*
X1211810Y1214930D01*
X1211170Y1213450D01*
X1210370Y1212180D01*
X1209400Y1211330D01*
X1208110Y1210700D01*
X1204900D01*
G01X1217360D02*
X1221380Y1223400D01*
X1225410Y1210700D01*
G01X1223960Y1215140D02*
X1218810D01*
G01X1231280Y1221280D02*
X1232240Y1222550D01*
X1233370Y1223190D01*
X1234660Y1223400D01*
X1236270Y1222980D01*
X1237390Y1221920D01*
X1237710Y1220650D01*
X1237550Y1219380D01*
X1236910Y1218320D01*
X1233690Y1216200D01*
X1232240Y1214720D01*
X1231280Y1212600D01*
X1230960Y1210700D01*
X1237710D01*
G01X1227820Y1262300D02*
Y1275000D01*
X1231840D01*
X1233130Y1274360D01*
X1233930Y1273520D01*
X1234250Y1271820D01*
X1233930Y1270130D01*
X1232970Y1269070D01*
X1231840Y1268440D01*
X1227820D01*
G01X1231840D02*
X1234250Y1262300D01*
G01X1240450Y1264840D02*
X1241410Y1263360D01*
X1242700Y1262510D01*
X1244150Y1262300D01*
X1245430Y1262510D01*
X1246720Y1263570D01*
X1247520Y1264840D01*
X1247680Y1266110D01*
X1247360Y1267590D01*
X1246240Y1268650D01*
X1245110Y1269070D01*
X1243660D01*
G01X1245110D02*
X1246080Y1269710D01*
X1246880Y1270770D01*
X1247200Y1272040D01*
X1246880Y1273310D01*
X1246080Y1274360D01*
X1244630Y1275000D01*
X1243180Y1274790D01*
X1241730Y1273940D01*
G01X1253400Y1264840D02*
X1254360Y1263360D01*
X1255650Y1262510D01*
X1257100Y1262300D01*
X1258380Y1262510D01*
X1259670Y1263570D01*
X1260470Y1264840D01*
X1260630Y1266110D01*
X1260310Y1267590D01*
X1259190Y1268650D01*
X1258060Y1269070D01*
X1256610D01*
G01X1258060D02*
X1259030Y1269710D01*
X1259830Y1270770D01*
X1260150Y1272040D01*
X1259830Y1273310D01*
X1259030Y1274360D01*
X1257580Y1275000D01*
X1256130Y1274790D01*
X1254680Y1273940D01*
G01X1232890Y1323740D02*
X1231930Y1324380D01*
X1230800Y1324800D01*
X1229520D01*
X1228070Y1324160D01*
X1226940Y1323110D01*
X1226140Y1321840D01*
X1225490Y1319720D01*
X1225330Y1317810D01*
X1225660Y1315910D01*
X1226140Y1314640D01*
X1227100Y1313370D01*
X1228230Y1312520D01*
X1229350Y1312100D01*
X1230480D01*
X1231610Y1312520D01*
X1232570Y1313160D01*
X1233380Y1314000D01*
G01X1239250Y1322680D02*
X1240210Y1323950D01*
X1241340Y1324590D01*
X1242630Y1324800D01*
X1244240Y1324380D01*
X1245360Y1323320D01*
X1245680Y1322050D01*
X1245520Y1320780D01*
X1244880Y1319720D01*
X1241660Y1317600D01*
X1240210Y1316120D01*
X1239250Y1314000D01*
X1238930Y1312100D01*
X1245680D01*
G01X1251720Y1314000D02*
X1252680Y1312950D01*
X1253810Y1312310D01*
X1255250Y1312100D01*
X1256700Y1312520D01*
X1257830Y1313370D01*
X1258630Y1314850D01*
X1258790Y1316540D01*
X1258470Y1318240D01*
X1257670Y1319300D01*
X1256540Y1320140D01*
X1255420Y1320350D01*
X1254290Y1320140D01*
X1252840Y1319300D01*
X1253320Y1324800D01*
X1257670D01*
G01X1187800Y1312300D02*
X1188120Y1315050D01*
X1188610Y1317380D01*
X1189250Y1319500D01*
X1190060Y1321820D01*
X1191340Y1325000D01*
X1184910D01*
G01X1188120Y1363100D02*
X1189250Y1363310D01*
X1190540Y1363950D01*
X1191340Y1365000D01*
X1191660Y1366490D01*
X1191340Y1367970D01*
X1190380Y1369240D01*
X1188930Y1369870D01*
X1187320D01*
X1186360Y1370300D01*
X1185550Y1371350D01*
X1185230Y1372840D01*
X1185710Y1374320D01*
X1186840Y1375380D01*
X1188120Y1375800D01*
X1189410Y1375380D01*
X1190540Y1374320D01*
X1191020Y1372840D01*
X1190700Y1371350D01*
X1189890Y1370300D01*
X1188930Y1369870D01*
X1187320D01*
X1185870Y1369240D01*
X1184910Y1367970D01*
X1184590Y1366490D01*
X1184910Y1365000D01*
X1185710Y1363950D01*
X1187000Y1363310D01*
X1188120Y1363100D01*
G01X1242560Y188480D02*
X1241600Y189120D01*
X1240470Y189540D01*
X1239190D01*
X1237740Y188900D01*
X1236610Y187850D01*
X1235810Y186580D01*
X1235160Y184460D01*
X1235000Y182550D01*
X1235330Y180650D01*
X1235810Y179380D01*
X1236770Y178110D01*
X1237900Y177260D01*
X1239020Y176840D01*
X1240150D01*
X1241280Y177260D01*
X1242240Y177900D01*
X1243050Y178740D01*
G01X1253910Y176840D02*
Y189540D01*
X1247950Y180440D01*
X1256000D01*
G01X1262050Y1045600D02*
Y1058300D01*
X1265260D01*
X1266550Y1057660D01*
X1267520Y1056820D01*
X1268320Y1055550D01*
X1268960Y1054070D01*
X1269120Y1051950D01*
X1268960Y1049830D01*
X1268320Y1048350D01*
X1267520Y1047080D01*
X1266550Y1046230D01*
X1265260Y1045600D01*
X1262050D01*
G01X1275000D02*
Y1058300D01*
X1278210D01*
X1279500Y1057660D01*
X1280470Y1056820D01*
X1281270Y1055550D01*
X1281910Y1054070D01*
X1282070Y1051950D01*
X1281910Y1049830D01*
X1281270Y1048350D01*
X1280470Y1047080D01*
X1279500Y1046230D01*
X1278210Y1045600D01*
X1275000D01*
G01X1287950Y1048140D02*
X1288910Y1046660D01*
X1290200Y1045810D01*
X1291650Y1045600D01*
X1292930Y1045810D01*
X1294220Y1046870D01*
X1295020Y1048140D01*
X1295180Y1049410D01*
X1294860Y1050890D01*
X1293740Y1051950D01*
X1292610Y1052370D01*
X1291160D01*
G01X1292610D02*
X1293580Y1053010D01*
X1294380Y1054070D01*
X1294700Y1055340D01*
X1294380Y1056610D01*
X1293580Y1057660D01*
X1292130Y1058300D01*
X1290680Y1058090D01*
X1289230Y1057240D01*
G01X1237510Y1069940D02*
X1236550Y1070580D01*
X1235420Y1071000D01*
X1234140D01*
X1232690Y1070360D01*
X1231560Y1069310D01*
X1230760Y1068040D01*
X1230110Y1065920D01*
X1229950Y1064010D01*
X1230280Y1062110D01*
X1230760Y1060840D01*
X1231720Y1059570D01*
X1232850Y1058720D01*
X1233970Y1058300D01*
X1235100D01*
X1236230Y1058720D01*
X1237190Y1059360D01*
X1238000Y1060200D01*
G01X1246600Y1058300D02*
X1246920Y1061050D01*
X1247410Y1063380D01*
X1248050Y1065500D01*
X1248860Y1067820D01*
X1250140Y1071000D01*
X1243710D01*
G01X1236450Y1090050D02*
X1244450D01*
G01X1283660Y1156000D02*
X1270960D01*
Y1160020D01*
X1271600Y1161310D01*
X1272440Y1162110D01*
X1274140Y1162430D01*
X1275830Y1162110D01*
X1276890Y1161150D01*
X1277520Y1160020D01*
Y1156000D01*
G01Y1160020D02*
X1283660Y1162430D01*
G01X1273080Y1169110D02*
X1271810Y1170070D01*
X1271170Y1171200D01*
X1270960Y1172490D01*
X1271380Y1174100D01*
X1272440Y1175220D01*
X1273710Y1175540D01*
X1274980Y1175380D01*
X1276040Y1174740D01*
X1278160Y1171520D01*
X1279640Y1170070D01*
X1281760Y1169110D01*
X1283660Y1168790D01*
Y1175540D01*
G01Y1187050D02*
X1270960D01*
X1280060Y1181090D01*
Y1189140D01*
G01X1305920Y1156000D02*
X1293220D01*
Y1160020D01*
X1293860Y1161310D01*
X1294700Y1162110D01*
X1296400Y1162430D01*
X1298090Y1162110D01*
X1299150Y1161150D01*
X1299780Y1160020D01*
Y1156000D01*
G01Y1160020D02*
X1305920Y1162430D01*
G01X1303380Y1168630D02*
X1304860Y1169590D01*
X1305710Y1170880D01*
X1305920Y1172330D01*
X1305710Y1173610D01*
X1304650Y1174900D01*
X1303380Y1175700D01*
X1302110Y1175860D01*
X1300630Y1175540D01*
X1299570Y1174420D01*
X1299150Y1173290D01*
Y1171840D01*
G01Y1173290D02*
X1298510Y1174260D01*
X1297450Y1175060D01*
X1296180Y1175380D01*
X1294910Y1175060D01*
X1293860Y1174260D01*
X1293220Y1172810D01*
X1293430Y1171360D01*
X1294280Y1169910D01*
G01X1295340Y1182060D02*
X1294070Y1183020D01*
X1293430Y1184150D01*
X1293220Y1185440D01*
X1293640Y1187050D01*
X1294700Y1188170D01*
X1295970Y1188490D01*
X1297240Y1188330D01*
X1298300Y1187690D01*
X1300420Y1184470D01*
X1301900Y1183020D01*
X1304020Y1182060D01*
X1305920Y1181740D01*
Y1188490D01*
G01X1295250Y1267850D02*
X1287250D01*
G01X1258620Y1200800D02*
Y1213500D01*
X1252660Y1204400D01*
X1260710D01*
G01X1291310Y1202700D02*
X1292270Y1201650D01*
X1293400Y1201010D01*
X1294840Y1200800D01*
X1296290Y1201220D01*
X1297420Y1202070D01*
X1298220Y1203550D01*
X1298380Y1205240D01*
X1298060Y1206940D01*
X1297260Y1208000D01*
X1296130Y1208840D01*
X1295010Y1209050D01*
X1293880Y1208840D01*
X1292430Y1208000D01*
X1292910Y1213500D01*
X1297260D01*
G01X1284060Y1332180D02*
Y1344880D01*
X1287270D01*
X1288560Y1344240D01*
X1289530Y1343400D01*
X1290330Y1342130D01*
X1290970Y1340650D01*
X1291130Y1338530D01*
X1290970Y1336410D01*
X1290330Y1334930D01*
X1289530Y1333660D01*
X1288560Y1332810D01*
X1287270Y1332180D01*
X1284060D01*
G01X1296520D02*
X1300540Y1344880D01*
X1304570Y1332180D01*
G01X1303120Y1336620D02*
X1297970D01*
G01X1315430Y1332180D02*
Y1344880D01*
X1309470Y1335780D01*
X1317520D01*
G01X1306270Y1293510D02*
X1305690Y1293910D01*
X1305010Y1294170D01*
X1304230D01*
X1303350Y1293780D01*
X1302670Y1293120D01*
X1302180Y1292330D01*
X1301790Y1291020D01*
X1301700Y1289840D01*
X1301890Y1288660D01*
X1302180Y1287870D01*
X1302770Y1287090D01*
X1303450Y1286560D01*
X1304130Y1286300D01*
X1304810D01*
X1305490Y1286560D01*
X1306080Y1286960D01*
X1306560Y1287480D01*
G01X1310150Y1292860D02*
X1310730Y1293650D01*
X1311420Y1294040D01*
X1312190Y1294170D01*
X1313170Y1293910D01*
X1313850Y1293250D01*
X1314040Y1292460D01*
X1313950Y1291680D01*
X1313560Y1291020D01*
X1311610Y1289710D01*
X1310730Y1288790D01*
X1310150Y1287480D01*
X1309960Y1286300D01*
X1314040D01*
G01X1319870D02*
Y1294170D01*
X1318700Y1292600D01*
G01Y1286300D02*
X1321040D01*
G01X1279270Y1293510D02*
X1278690Y1293910D01*
X1278010Y1294170D01*
X1277230D01*
X1276350Y1293780D01*
X1275670Y1293120D01*
X1275180Y1292330D01*
X1274790Y1291020D01*
X1274700Y1289840D01*
X1274890Y1288660D01*
X1275180Y1287870D01*
X1275770Y1287090D01*
X1276450Y1286560D01*
X1277130Y1286300D01*
X1277810D01*
X1278490Y1286560D01*
X1279080Y1286960D01*
X1279560Y1287480D01*
G01X1283150Y1292860D02*
X1283730Y1293650D01*
X1284420Y1294040D01*
X1285190Y1294170D01*
X1286170Y1293910D01*
X1286850Y1293250D01*
X1287040Y1292460D01*
X1286950Y1291680D01*
X1286560Y1291020D01*
X1284610Y1289710D01*
X1283730Y1288790D01*
X1283150Y1287480D01*
X1282960Y1286300D01*
X1287040D01*
G01X1292870Y1294170D02*
X1292090Y1293910D01*
X1291510Y1293250D01*
X1291120Y1292460D01*
X1290830Y1291420D01*
X1290730Y1290230D01*
X1290830Y1289050D01*
X1291120Y1288010D01*
X1291510Y1287220D01*
X1292090Y1286560D01*
X1292870Y1286300D01*
X1293650Y1286560D01*
X1294230Y1287220D01*
X1294620Y1288010D01*
X1294910Y1289050D01*
X1295010Y1290230D01*
X1294910Y1291420D01*
X1294620Y1292460D01*
X1294230Y1293250D01*
X1293650Y1293910D01*
X1292870Y1294170D01*
G01X1290130Y1365080D02*
X1289170Y1365720D01*
X1288040Y1366140D01*
X1286760D01*
X1285310Y1365500D01*
X1284180Y1364450D01*
X1283380Y1363180D01*
X1282730Y1361060D01*
X1282570Y1359150D01*
X1282900Y1357250D01*
X1283380Y1355980D01*
X1284340Y1354710D01*
X1285470Y1353860D01*
X1286590Y1353440D01*
X1287720D01*
X1288850Y1353860D01*
X1289810Y1354500D01*
X1290620Y1355340D01*
G01X1299540Y1353440D02*
Y1366140D01*
X1297610Y1363600D01*
G01Y1353440D02*
X1301470D01*
G01X1309760Y1354920D02*
X1310890Y1353860D01*
X1312170Y1353440D01*
X1313460Y1353860D01*
X1314590Y1355130D01*
X1315390Y1357040D01*
X1315710Y1358940D01*
Y1361270D01*
X1315390Y1363180D01*
X1314590Y1364870D01*
X1313620Y1365720D01*
X1312490Y1366140D01*
X1311210Y1365720D01*
X1310240Y1364870D01*
X1309600Y1363600D01*
X1309280Y1361910D01*
X1309600Y1360430D01*
X1310400Y1358940D01*
X1311370Y1358100D01*
X1312490Y1357880D01*
X1313780Y1358310D01*
X1314750Y1359370D01*
X1315710Y1361270D01*
G01X1370320Y201050D02*
Y213750D01*
X1374340D01*
X1375630Y213110D01*
X1376430Y212270D01*
X1376750Y210570D01*
X1376430Y208880D01*
X1375470Y207820D01*
X1374340Y207190D01*
X1370320D01*
G01X1374340D02*
X1376750Y201050D01*
G01X1382950Y202950D02*
X1383910Y201900D01*
X1385040Y201260D01*
X1386480Y201050D01*
X1387930Y201470D01*
X1389060Y202320D01*
X1389860Y203800D01*
X1390020Y205490D01*
X1389700Y207190D01*
X1388900Y208250D01*
X1387770Y209090D01*
X1386650Y209300D01*
X1385520Y209090D01*
X1384070Y208250D01*
X1384550Y213750D01*
X1388900D01*
G01X1399430Y201050D02*
X1400560Y201260D01*
X1401850Y201900D01*
X1402650Y202950D01*
X1402970Y204440D01*
X1402650Y205920D01*
X1401690Y207190D01*
X1400240Y207820D01*
X1398630D01*
X1397670Y208250D01*
X1396860Y209300D01*
X1396540Y210790D01*
X1397020Y212270D01*
X1398150Y213330D01*
X1399430Y213750D01*
X1400720Y213330D01*
X1401850Y212270D01*
X1402330Y210790D01*
X1402010Y209300D01*
X1401200Y208250D01*
X1400240Y207820D01*
X1398630D01*
X1397180Y207190D01*
X1396220Y205920D01*
X1395900Y204440D01*
X1396220Y202950D01*
X1397020Y201900D01*
X1398310Y201260D01*
X1399430Y201050D01*
G01X1370320Y302650D02*
Y315350D01*
X1374340D01*
X1375630Y314710D01*
X1376430Y313870D01*
X1376750Y312170D01*
X1376430Y310480D01*
X1375470Y309420D01*
X1374340Y308790D01*
X1370320D01*
G01X1374340D02*
X1376750Y302650D01*
G01X1382950Y304550D02*
X1383910Y303500D01*
X1385040Y302860D01*
X1386480Y302650D01*
X1387930Y303070D01*
X1389060Y303920D01*
X1389860Y305400D01*
X1390020Y307090D01*
X1389700Y308790D01*
X1388900Y309850D01*
X1387770Y310690D01*
X1386650Y310900D01*
X1385520Y310690D01*
X1384070Y309850D01*
X1384550Y315350D01*
X1388900D01*
G01X1399110Y302650D02*
X1399430Y305400D01*
X1399920Y307730D01*
X1400560Y309850D01*
X1401370Y312170D01*
X1402650Y315350D01*
X1396220D01*
G01X1370320Y505850D02*
Y518550D01*
X1374340D01*
X1375630Y517910D01*
X1376430Y517070D01*
X1376750Y515370D01*
X1376430Y513680D01*
X1375470Y512620D01*
X1374340Y511990D01*
X1370320D01*
G01X1374340D02*
X1376750Y505850D01*
G01X1382950Y507750D02*
X1383910Y506700D01*
X1385040Y506060D01*
X1386480Y505850D01*
X1387930Y506270D01*
X1389060Y507120D01*
X1389860Y508600D01*
X1390020Y510290D01*
X1389700Y511990D01*
X1388900Y513050D01*
X1387770Y513890D01*
X1386650Y514100D01*
X1385520Y513890D01*
X1384070Y513050D01*
X1384550Y518550D01*
X1388900D01*
G01X1396700Y507330D02*
X1397830Y506270D01*
X1399110Y505850D01*
X1400400Y506270D01*
X1401530Y507540D01*
X1402330Y509450D01*
X1402650Y511350D01*
Y513680D01*
X1402330Y515590D01*
X1401530Y517280D01*
X1400560Y518130D01*
X1399430Y518550D01*
X1398150Y518130D01*
X1397180Y517280D01*
X1396540Y516010D01*
X1396220Y514320D01*
X1396540Y512840D01*
X1397340Y511350D01*
X1398310Y510510D01*
X1399430Y510290D01*
X1400720Y510720D01*
X1401690Y511780D01*
X1402650Y513680D01*
G01X1370320Y607450D02*
Y620150D01*
X1374340D01*
X1375630Y619510D01*
X1376430Y618670D01*
X1376750Y616970D01*
X1376430Y615280D01*
X1375470Y614220D01*
X1374340Y613590D01*
X1370320D01*
G01X1374340D02*
X1376750Y607450D01*
G01X1382950Y609350D02*
X1383910Y608300D01*
X1385040Y607660D01*
X1386480Y607450D01*
X1387930Y607870D01*
X1389060Y608720D01*
X1389860Y610200D01*
X1390020Y611890D01*
X1389700Y613590D01*
X1388900Y614650D01*
X1387770Y615490D01*
X1386650Y615700D01*
X1385520Y615490D01*
X1384070Y614650D01*
X1384550Y620150D01*
X1388900D01*
G01X1396380Y612740D02*
X1397500Y614220D01*
X1398470Y615070D01*
X1399760Y615490D01*
X1400880Y615070D01*
X1401690Y614220D01*
X1402330Y612950D01*
X1402490Y611470D01*
X1402330Y610200D01*
X1401690Y608930D01*
X1400720Y607870D01*
X1399600Y607450D01*
X1398310Y607870D01*
X1397180Y609140D01*
X1396540Y611050D01*
X1396380Y613160D01*
X1396700Y615920D01*
X1397180Y617400D01*
X1397990Y618880D01*
X1399110Y619940D01*
X1400240Y620150D01*
X1401370Y619730D01*
X1402170Y618670D01*
G01X1370320Y709050D02*
Y721750D01*
X1374340D01*
X1375630Y721110D01*
X1376430Y720270D01*
X1376750Y718570D01*
X1376430Y716880D01*
X1375470Y715820D01*
X1374340Y715190D01*
X1370320D01*
G01X1374340D02*
X1376750Y709050D01*
G01X1382950Y710950D02*
X1383910Y709900D01*
X1385040Y709260D01*
X1386480Y709050D01*
X1387930Y709470D01*
X1389060Y710320D01*
X1389860Y711800D01*
X1390020Y713490D01*
X1389700Y715190D01*
X1388900Y716250D01*
X1387770Y717090D01*
X1386650Y717300D01*
X1385520Y717090D01*
X1384070Y716250D01*
X1384550Y721750D01*
X1388900D01*
G01X1395900Y710950D02*
X1396860Y709900D01*
X1397990Y709260D01*
X1399430Y709050D01*
X1400880Y709470D01*
X1402010Y710320D01*
X1402810Y711800D01*
X1402970Y713490D01*
X1402650Y715190D01*
X1401850Y716250D01*
X1400720Y717090D01*
X1399600Y717300D01*
X1398470Y717090D01*
X1397020Y716250D01*
X1397500Y721750D01*
X1401850D01*
G01X1370320Y810650D02*
Y823350D01*
X1374340D01*
X1375630Y822710D01*
X1376430Y821870D01*
X1376750Y820170D01*
X1376430Y818480D01*
X1375470Y817420D01*
X1374340Y816790D01*
X1370320D01*
G01X1374340D02*
X1376750Y810650D01*
G01X1382950Y812550D02*
X1383910Y811500D01*
X1385040Y810860D01*
X1386480Y810650D01*
X1387930Y811070D01*
X1389060Y811920D01*
X1389860Y813400D01*
X1390020Y815090D01*
X1389700Y816790D01*
X1388900Y817850D01*
X1387770Y818690D01*
X1386650Y818900D01*
X1385520Y818690D01*
X1384070Y817850D01*
X1384550Y823350D01*
X1388900D01*
G01X1401370Y810650D02*
Y823350D01*
X1395410Y814250D01*
X1403460D01*
G01X1321820Y1041520D02*
X1309120D01*
Y1045540D01*
X1309760Y1046830D01*
X1310600Y1047630D01*
X1312300Y1047950D01*
X1313990Y1047630D01*
X1315050Y1046670D01*
X1315680Y1045540D01*
Y1041520D01*
G01Y1045540D02*
X1321820Y1047950D01*
G01X1311240Y1054630D02*
X1309970Y1055590D01*
X1309330Y1056720D01*
X1309120Y1058010D01*
X1309540Y1059620D01*
X1310600Y1060740D01*
X1311870Y1061060D01*
X1313140Y1060900D01*
X1314200Y1060260D01*
X1316320Y1057040D01*
X1317800Y1055590D01*
X1319920Y1054630D01*
X1321820Y1054310D01*
Y1061060D01*
G01Y1070630D02*
X1309120D01*
X1311660Y1068700D01*
G01X1321820D02*
Y1072560D01*
G01X1378620Y1045600D02*
Y1058300D01*
X1376690Y1055760D01*
G01Y1045600D02*
X1380550D01*
G01X1388520Y1056180D02*
X1389480Y1057450D01*
X1390610Y1058090D01*
X1391900Y1058300D01*
X1393510Y1057880D01*
X1394630Y1056820D01*
X1394950Y1055550D01*
X1394790Y1054280D01*
X1394150Y1053220D01*
X1390930Y1051100D01*
X1389480Y1049620D01*
X1388520Y1047500D01*
X1388200Y1045600D01*
X1394950D01*
G01X1329260Y1057940D02*
X1328620Y1056980D01*
X1328200Y1055850D01*
Y1054570D01*
X1328840Y1053120D01*
X1329890Y1051990D01*
X1331160Y1051190D01*
X1333280Y1050540D01*
X1335190Y1050380D01*
X1337090Y1050710D01*
X1338360Y1051190D01*
X1339630Y1052150D01*
X1340480Y1053280D01*
X1340900Y1054400D01*
Y1055530D01*
X1340480Y1056660D01*
X1339840Y1057620D01*
X1339000Y1058430D01*
G01Y1063820D02*
X1340050Y1064780D01*
X1340690Y1065910D01*
X1340900Y1067350D01*
X1340480Y1068800D01*
X1339630Y1069930D01*
X1338150Y1070730D01*
X1336460Y1070890D01*
X1334760Y1070570D01*
X1333700Y1069770D01*
X1332860Y1068640D01*
X1332650Y1067520D01*
X1332860Y1066390D01*
X1333700Y1064940D01*
X1328200Y1065420D01*
Y1069770D01*
G01X1331700Y1090050D02*
X1339700D01*
G01X1378620Y1115450D02*
Y1128150D01*
X1376690Y1125610D01*
G01Y1115450D02*
X1380550D01*
G01X1391570D02*
Y1128150D01*
X1389640Y1125610D01*
G01Y1115450D02*
X1393500D01*
G01X1361060Y1223170D02*
X1360420Y1222210D01*
X1360000Y1221080D01*
Y1219800D01*
X1360640Y1218350D01*
X1361690Y1217220D01*
X1362960Y1216420D01*
X1365080Y1215770D01*
X1366990Y1215610D01*
X1368890Y1215940D01*
X1370160Y1216420D01*
X1371430Y1217380D01*
X1372280Y1218510D01*
X1372700Y1219630D01*
Y1220760D01*
X1372280Y1221890D01*
X1371640Y1222850D01*
X1370800Y1223660D01*
G01X1362120Y1229530D02*
X1360850Y1230490D01*
X1360210Y1231620D01*
X1360000Y1232910D01*
X1360420Y1234520D01*
X1361480Y1235640D01*
X1362750Y1235960D01*
X1364020Y1235800D01*
X1365080Y1235160D01*
X1367200Y1231940D01*
X1368680Y1230490D01*
X1370800Y1229530D01*
X1372700Y1229210D01*
Y1235960D01*
G01Y1247470D02*
X1360000D01*
X1369100Y1241510D01*
Y1249560D01*
G01X1363450Y1267850D02*
X1371450D01*
G01X1314300D02*
X1306300D01*
G01X1322180Y1242300D02*
Y1250170D01*
X1324620D01*
X1325400Y1249780D01*
X1325880Y1249250D01*
X1326080Y1248200D01*
X1325880Y1247150D01*
X1325300Y1246500D01*
X1324620Y1246100D01*
X1322180D01*
G01X1324620D02*
X1326080Y1242300D01*
G01X1329860Y1243870D02*
X1330440Y1242960D01*
X1331220Y1242430D01*
X1332100Y1242300D01*
X1332880Y1242430D01*
X1333650Y1243090D01*
X1334140Y1243870D01*
X1334240Y1244660D01*
X1334040Y1245580D01*
X1333360Y1246230D01*
X1332680Y1246500D01*
X1331810D01*
G01X1332680D02*
X1333270Y1246890D01*
X1333750Y1247550D01*
X1333950Y1248330D01*
X1333750Y1249120D01*
X1333270Y1249780D01*
X1332390Y1250170D01*
X1331510Y1250040D01*
X1330640Y1249510D01*
G01X1341040Y1242300D02*
Y1250170D01*
X1337440Y1244530D01*
X1342300D01*
G01X1323590Y1206090D02*
X1324710Y1207570D01*
X1325680Y1208420D01*
X1326970Y1208840D01*
X1328090Y1208420D01*
X1328900Y1207570D01*
X1329540Y1206300D01*
X1329700Y1204820D01*
X1329540Y1203550D01*
X1328900Y1202280D01*
X1327930Y1201220D01*
X1326810Y1200800D01*
X1325520Y1201220D01*
X1324390Y1202490D01*
X1323750Y1204400D01*
X1323590Y1206510D01*
X1323910Y1209270D01*
X1324390Y1210750D01*
X1325200Y1212230D01*
X1326320Y1213290D01*
X1327450Y1213500D01*
X1328580Y1213080D01*
X1329380Y1212020D01*
G01X1382350Y1387340D02*
X1381390Y1387980D01*
X1380260Y1388400D01*
X1378980D01*
X1377530Y1387760D01*
X1376400Y1386710D01*
X1375600Y1385440D01*
X1374950Y1383320D01*
X1374790Y1381410D01*
X1375120Y1379510D01*
X1375600Y1378240D01*
X1376560Y1376970D01*
X1377690Y1376120D01*
X1378810Y1375700D01*
X1379940D01*
X1381070Y1376120D01*
X1382030Y1376760D01*
X1382840Y1377600D01*
G01X1388710Y1386280D02*
X1389670Y1387550D01*
X1390800Y1388190D01*
X1392090Y1388400D01*
X1393700Y1387980D01*
X1394820Y1386920D01*
X1395140Y1385650D01*
X1394980Y1384380D01*
X1394340Y1383320D01*
X1391120Y1381200D01*
X1389670Y1379720D01*
X1388710Y1377600D01*
X1388390Y1375700D01*
X1395140D01*
G01X1401180Y1378240D02*
X1402140Y1376760D01*
X1403430Y1375910D01*
X1404880Y1375700D01*
X1406160Y1375910D01*
X1407450Y1376970D01*
X1408250Y1378240D01*
X1408410Y1379510D01*
X1408090Y1380990D01*
X1406970Y1382050D01*
X1405840Y1382470D01*
X1404390D01*
G01X1405840D02*
X1406810Y1383110D01*
X1407610Y1384170D01*
X1407930Y1385440D01*
X1407610Y1386710D01*
X1406810Y1387760D01*
X1405360Y1388400D01*
X1403910Y1388190D01*
X1402460Y1387340D01*
G01X1337830D02*
X1336870Y1387980D01*
X1335740Y1388400D01*
X1334460D01*
X1333010Y1387760D01*
X1331880Y1386710D01*
X1331080Y1385440D01*
X1330430Y1383320D01*
X1330270Y1381410D01*
X1330600Y1379510D01*
X1331080Y1378240D01*
X1332040Y1376970D01*
X1333170Y1376120D01*
X1334290Y1375700D01*
X1335420D01*
X1336550Y1376120D01*
X1337510Y1376760D01*
X1338320Y1377600D01*
G01X1344190Y1386280D02*
X1345150Y1387550D01*
X1346280Y1388190D01*
X1347570Y1388400D01*
X1349180Y1387980D01*
X1350300Y1386920D01*
X1350620Y1385650D01*
X1350460Y1384380D01*
X1349820Y1383320D01*
X1346600Y1381200D01*
X1345150Y1379720D01*
X1344190Y1377600D01*
X1343870Y1375700D01*
X1350620D01*
G01X1357140Y1386280D02*
X1358100Y1387550D01*
X1359230Y1388190D01*
X1360520Y1388400D01*
X1362130Y1387980D01*
X1363250Y1386920D01*
X1363570Y1385650D01*
X1363410Y1384380D01*
X1362770Y1383320D01*
X1359550Y1381200D01*
X1358100Y1379720D01*
X1357140Y1377600D01*
X1356820Y1375700D01*
X1363570D01*
G01X1352400Y1356750D02*
X1344400D01*
G01X1383160Y226450D02*
Y239150D01*
X1387180D01*
X1388470Y238510D01*
X1389270Y237670D01*
X1389590Y235970D01*
X1389270Y234280D01*
X1388310Y233220D01*
X1387180Y232590D01*
X1383160D01*
G01X1387180D02*
X1389590Y226450D01*
G01X1399320D02*
X1400450Y226660D01*
X1401740Y227300D01*
X1402540Y228350D01*
X1402860Y229840D01*
X1402540Y231320D01*
X1401580Y232590D01*
X1400130Y233220D01*
X1398520D01*
X1397560Y233650D01*
X1396750Y234700D01*
X1396430Y236190D01*
X1396910Y237670D01*
X1398040Y238730D01*
X1399320Y239150D01*
X1400610Y238730D01*
X1401740Y237670D01*
X1402220Y236190D01*
X1401900Y234700D01*
X1401090Y233650D01*
X1400130Y233220D01*
X1398520D01*
X1397070Y232590D01*
X1396110Y231320D01*
X1395790Y229840D01*
X1396110Y228350D01*
X1396910Y227300D01*
X1398200Y226660D01*
X1399320Y226450D01*
G01X1383160Y328050D02*
Y340750D01*
X1387180D01*
X1388470Y340110D01*
X1389270Y339270D01*
X1389590Y337570D01*
X1389270Y335880D01*
X1388310Y334820D01*
X1387180Y334190D01*
X1383160D01*
G01X1387180D02*
X1389590Y328050D01*
G01X1399000D02*
X1399320Y330800D01*
X1399810Y333130D01*
X1400450Y335250D01*
X1401260Y337570D01*
X1402540Y340750D01*
X1396110D01*
G01X1385270Y431240D02*
Y443940D01*
X1389290D01*
X1390580Y443300D01*
X1391380Y442460D01*
X1391700Y440760D01*
X1391380Y439070D01*
X1390420Y438010D01*
X1389290Y437380D01*
X1385270D01*
G01X1389290D02*
X1391700Y431240D01*
G01X1398380Y436530D02*
X1399500Y438010D01*
X1400470Y438860D01*
X1401760Y439280D01*
X1402880Y438860D01*
X1403690Y438010D01*
X1404330Y436740D01*
X1404490Y435260D01*
X1404330Y433990D01*
X1403690Y432720D01*
X1402720Y431660D01*
X1401600Y431240D01*
X1400310Y431660D01*
X1399180Y432930D01*
X1398540Y434840D01*
X1398380Y436950D01*
X1398700Y439710D01*
X1399180Y441190D01*
X1399990Y442670D01*
X1401110Y443730D01*
X1402240Y443940D01*
X1403370Y443520D01*
X1404170Y442460D01*
G01X1383160Y531250D02*
Y543950D01*
X1387180D01*
X1388470Y543310D01*
X1389270Y542470D01*
X1389590Y540770D01*
X1389270Y539080D01*
X1388310Y538020D01*
X1387180Y537390D01*
X1383160D01*
G01X1387180D02*
X1389590Y531250D01*
G01X1395790Y533150D02*
X1396750Y532100D01*
X1397880Y531460D01*
X1399320Y531250D01*
X1400770Y531670D01*
X1401900Y532520D01*
X1402700Y534000D01*
X1402860Y535690D01*
X1402540Y537390D01*
X1401740Y538450D01*
X1400610Y539290D01*
X1399490Y539500D01*
X1398360Y539290D01*
X1396910Y538450D01*
X1397390Y543950D01*
X1401740D01*
G01X1383160Y632850D02*
Y645550D01*
X1387180D01*
X1388470Y644910D01*
X1389270Y644070D01*
X1389590Y642370D01*
X1389270Y640680D01*
X1388310Y639620D01*
X1387180Y638990D01*
X1383160D01*
G01X1387180D02*
X1389590Y632850D01*
G01X1401260D02*
Y645550D01*
X1395300Y636450D01*
X1403350D01*
G01X1385270Y736520D02*
Y749220D01*
X1389290D01*
X1390580Y748580D01*
X1391380Y747740D01*
X1391700Y746040D01*
X1391380Y744350D01*
X1390420Y743290D01*
X1389290Y742660D01*
X1385270D01*
G01X1389290D02*
X1391700Y736520D01*
G01X1397900Y739060D02*
X1398860Y737580D01*
X1400150Y736730D01*
X1401600Y736520D01*
X1402880Y736730D01*
X1404170Y737790D01*
X1404970Y739060D01*
X1405130Y740330D01*
X1404810Y741810D01*
X1403690Y742870D01*
X1402560Y743290D01*
X1401110D01*
G01X1402560D02*
X1403530Y743930D01*
X1404330Y744990D01*
X1404650Y746260D01*
X1404330Y747530D01*
X1403530Y748580D01*
X1402080Y749220D01*
X1400630Y749010D01*
X1399180Y748160D01*
G01X1383160Y836050D02*
Y848750D01*
X1387180D01*
X1388470Y848110D01*
X1389270Y847270D01*
X1389590Y845570D01*
X1389270Y843880D01*
X1388310Y842820D01*
X1387180Y842190D01*
X1383160D01*
G01X1387180D02*
X1389590Y836050D01*
G01X1396270Y846630D02*
X1397230Y847900D01*
X1398360Y848540D01*
X1399650Y848750D01*
X1401260Y848330D01*
X1402380Y847270D01*
X1402700Y846000D01*
X1402540Y844730D01*
X1401900Y843670D01*
X1398680Y841550D01*
X1397230Y840070D01*
X1396270Y837950D01*
X1395950Y836050D01*
X1402700D01*
G01X1383160Y937650D02*
Y950350D01*
X1387180D01*
X1388470Y949710D01*
X1389270Y948870D01*
X1389590Y947170D01*
X1389270Y945480D01*
X1388310Y944420D01*
X1387180Y943790D01*
X1383160D01*
G01X1387180D02*
X1389590Y937650D01*
G01X1399320D02*
Y950350D01*
X1397390Y947810D01*
G01Y937650D02*
X1401250D01*
G01X1399220Y1223170D02*
X1398580Y1222210D01*
X1398160Y1221080D01*
Y1219800D01*
X1398800Y1218350D01*
X1399850Y1217220D01*
X1401120Y1216420D01*
X1403240Y1215770D01*
X1405150Y1215610D01*
X1407050Y1215940D01*
X1408320Y1216420D01*
X1409590Y1217380D01*
X1410440Y1218510D01*
X1410860Y1219630D01*
Y1220760D01*
X1410440Y1221890D01*
X1409800Y1222850D01*
X1408960Y1223660D01*
G01X1400280Y1229530D02*
X1399010Y1230490D01*
X1398370Y1231620D01*
X1398160Y1232910D01*
X1398580Y1234520D01*
X1399640Y1235640D01*
X1400910Y1235960D01*
X1402180Y1235800D01*
X1403240Y1235160D01*
X1405360Y1231940D01*
X1406840Y1230490D01*
X1408960Y1229530D01*
X1410860Y1229210D01*
Y1235960D01*
G01Y1245210D02*
X1408110Y1245530D01*
X1405780Y1246020D01*
X1403660Y1246660D01*
X1401340Y1247470D01*
X1398160Y1248750D01*
Y1242320D01*
G01X1429940Y1216420D02*
X1417240D01*
Y1220440D01*
X1417880Y1221730D01*
X1418720Y1222530D01*
X1420420Y1222850D01*
X1422110Y1222530D01*
X1423170Y1221570D01*
X1423800Y1220440D01*
Y1216420D01*
G01Y1220440D02*
X1429940Y1222850D01*
G01X1427400Y1229050D02*
X1428880Y1230010D01*
X1429730Y1231300D01*
X1429940Y1232750D01*
X1429730Y1234030D01*
X1428670Y1235320D01*
X1427400Y1236120D01*
X1426130Y1236280D01*
X1424650Y1235960D01*
X1423590Y1234840D01*
X1423170Y1233710D01*
Y1232260D01*
G01Y1233710D02*
X1422530Y1234680D01*
X1421470Y1235480D01*
X1420200Y1235800D01*
X1418930Y1235480D01*
X1417880Y1234680D01*
X1417240Y1233230D01*
X1417450Y1231780D01*
X1418300Y1230330D01*
G01X1429940Y1245210D02*
X1427190Y1245530D01*
X1424860Y1246020D01*
X1422740Y1246660D01*
X1420420Y1247470D01*
X1417240Y1248750D01*
Y1242320D01*
G01X1449020Y1216420D02*
X1436320D01*
Y1220440D01*
X1436960Y1221730D01*
X1437800Y1222530D01*
X1439500Y1222850D01*
X1441190Y1222530D01*
X1442250Y1221570D01*
X1442880Y1220440D01*
Y1216420D01*
G01Y1220440D02*
X1449020Y1222850D01*
G01X1446480Y1229050D02*
X1447960Y1230010D01*
X1448810Y1231300D01*
X1449020Y1232750D01*
X1448810Y1234030D01*
X1447750Y1235320D01*
X1446480Y1236120D01*
X1445210Y1236280D01*
X1443730Y1235960D01*
X1442670Y1234840D01*
X1442250Y1233710D01*
Y1232260D01*
G01Y1233710D02*
X1441610Y1234680D01*
X1440550Y1235480D01*
X1439280Y1235800D01*
X1438010Y1235480D01*
X1436960Y1234680D01*
X1436320Y1233230D01*
X1436530Y1231780D01*
X1437380Y1230330D01*
G01X1443730Y1242480D02*
X1442250Y1243600D01*
X1441400Y1244570D01*
X1440980Y1245860D01*
X1441400Y1246980D01*
X1442250Y1247790D01*
X1443520Y1248430D01*
X1445000Y1248590D01*
X1446270Y1248430D01*
X1447540Y1247790D01*
X1448600Y1246820D01*
X1449020Y1245700D01*
X1448600Y1244410D01*
X1447330Y1243280D01*
X1445420Y1242640D01*
X1443310Y1242480D01*
X1440550Y1242800D01*
X1439070Y1243280D01*
X1437590Y1244090D01*
X1436530Y1245210D01*
X1436320Y1246340D01*
X1436740Y1247470D01*
X1437800Y1248270D01*
G01X1391800Y1215620D02*
X1379100D01*
Y1219640D01*
X1379740Y1220930D01*
X1380580Y1221730D01*
X1382280Y1222050D01*
X1383970Y1221730D01*
X1385030Y1220770D01*
X1385660Y1219640D01*
Y1215620D01*
G01Y1219640D02*
X1391800Y1222050D01*
G01X1389260Y1228250D02*
X1390740Y1229210D01*
X1391590Y1230500D01*
X1391800Y1231950D01*
X1391590Y1233230D01*
X1390530Y1234520D01*
X1389260Y1235320D01*
X1387990Y1235480D01*
X1386510Y1235160D01*
X1385450Y1234040D01*
X1385030Y1232910D01*
Y1231460D01*
G01Y1232910D02*
X1384390Y1233880D01*
X1383330Y1234680D01*
X1382060Y1235000D01*
X1380790Y1234680D01*
X1379740Y1233880D01*
X1379100Y1232430D01*
X1379310Y1230980D01*
X1380160Y1229530D01*
G01X1389900Y1241200D02*
X1390950Y1242160D01*
X1391590Y1243290D01*
X1391800Y1244730D01*
X1391380Y1246180D01*
X1390530Y1247310D01*
X1389050Y1248110D01*
X1387360Y1248270D01*
X1385660Y1247950D01*
X1384600Y1247150D01*
X1383760Y1246020D01*
X1383550Y1244900D01*
X1383760Y1243770D01*
X1384600Y1242320D01*
X1379100Y1242800D01*
Y1247150D01*
G01X1454780Y1321640D02*
Y1334340D01*
X1457990D01*
X1459280Y1333700D01*
X1460250Y1332860D01*
X1461050Y1331590D01*
X1461690Y1330110D01*
X1461850Y1327990D01*
X1461690Y1325870D01*
X1461050Y1324390D01*
X1460250Y1323120D01*
X1459280Y1322270D01*
X1457990Y1321640D01*
X1454780D01*
G01X1467240D02*
X1471260Y1334340D01*
X1475290Y1321640D01*
G01X1473840Y1326080D02*
X1468690D01*
G01X1480680Y1323540D02*
X1481640Y1322490D01*
X1482770Y1321850D01*
X1484210Y1321640D01*
X1485660Y1322060D01*
X1486790Y1322910D01*
X1487590Y1324390D01*
X1487750Y1326080D01*
X1487430Y1327780D01*
X1486630Y1328840D01*
X1485500Y1329680D01*
X1484380Y1329890D01*
X1483250Y1329680D01*
X1481800Y1328840D01*
X1482280Y1334340D01*
X1486630D01*
G01X1390500Y1356750D02*
X1382500D01*
G01X1463730Y211800D02*
X1467750Y199100D01*
X1471780Y211800D01*
G01X1477170Y199100D02*
Y211800D01*
X1480380D01*
X1481670Y211160D01*
X1482640Y210320D01*
X1483440Y209050D01*
X1484080Y207570D01*
X1484240Y205450D01*
X1484080Y203330D01*
X1483440Y201850D01*
X1482640Y200580D01*
X1481670Y199730D01*
X1480380Y199100D01*
X1477170D01*
G01X1493650D02*
Y211800D01*
X1491720Y209260D01*
G01Y199100D02*
X1495580D01*
G01X1503550Y204390D02*
X1504670Y205870D01*
X1505640Y206720D01*
X1506930Y207140D01*
X1508050Y206720D01*
X1508860Y205870D01*
X1509500Y204600D01*
X1509660Y203120D01*
X1509500Y201850D01*
X1508860Y200580D01*
X1507890Y199520D01*
X1506770Y199100D01*
X1505480Y199520D01*
X1504350Y200790D01*
X1503710Y202700D01*
X1503550Y204810D01*
X1503870Y207570D01*
X1504350Y209050D01*
X1505160Y210530D01*
X1506280Y211590D01*
X1507410Y211800D01*
X1508540Y211380D01*
X1509340Y210320D01*
G01X1463730Y313560D02*
X1467750Y300860D01*
X1471780Y313560D01*
G01X1477170Y300860D02*
Y313560D01*
X1480380D01*
X1481670Y312920D01*
X1482640Y312080D01*
X1483440Y310810D01*
X1484080Y309330D01*
X1484240Y307210D01*
X1484080Y305090D01*
X1483440Y303610D01*
X1482640Y302340D01*
X1481670Y301490D01*
X1480380Y300860D01*
X1477170D01*
G01X1493650D02*
Y313560D01*
X1491720Y311020D01*
G01Y300860D02*
X1495580D01*
G01X1503070Y302760D02*
X1504030Y301710D01*
X1505160Y301070D01*
X1506600Y300860D01*
X1508050Y301280D01*
X1509180Y302130D01*
X1509980Y303610D01*
X1510140Y305300D01*
X1509820Y307000D01*
X1509020Y308060D01*
X1507890Y308900D01*
X1506770Y309110D01*
X1505640Y308900D01*
X1504190Y308060D01*
X1504670Y313560D01*
X1509020D01*
G01X1463730Y415320D02*
X1467750Y402620D01*
X1471780Y415320D01*
G01X1477170Y402620D02*
Y415320D01*
X1480380D01*
X1481670Y414680D01*
X1482640Y413840D01*
X1483440Y412570D01*
X1484080Y411090D01*
X1484240Y408970D01*
X1484080Y406850D01*
X1483440Y405370D01*
X1482640Y404100D01*
X1481670Y403250D01*
X1480380Y402620D01*
X1477170D01*
G01X1493650D02*
Y415320D01*
X1491720Y412780D01*
G01Y402620D02*
X1495580D01*
G01X1508540D02*
Y415320D01*
X1502580Y406220D01*
X1510630D01*
G01X1463730Y517080D02*
X1467750Y504380D01*
X1471780Y517080D01*
G01X1477170Y504380D02*
Y517080D01*
X1480380D01*
X1481670Y516440D01*
X1482640Y515600D01*
X1483440Y514330D01*
X1484080Y512850D01*
X1484240Y510730D01*
X1484080Y508610D01*
X1483440Y507130D01*
X1482640Y505860D01*
X1481670Y505010D01*
X1480380Y504380D01*
X1477170D01*
G01X1493650D02*
Y517080D01*
X1491720Y514540D01*
G01Y504380D02*
X1495580D01*
G01X1503070Y506920D02*
X1504030Y505440D01*
X1505320Y504590D01*
X1506770Y504380D01*
X1508050Y504590D01*
X1509340Y505650D01*
X1510140Y506920D01*
X1510300Y508190D01*
X1509980Y509670D01*
X1508860Y510730D01*
X1507730Y511150D01*
X1506280D01*
G01X1507730D02*
X1508700Y511790D01*
X1509500Y512850D01*
X1509820Y514120D01*
X1509500Y515390D01*
X1508700Y516440D01*
X1507250Y517080D01*
X1505800Y516870D01*
X1504350Y516020D01*
G01X1460550Y618840D02*
X1464570Y606140D01*
X1468600Y618840D01*
G01X1473990Y606140D02*
Y618840D01*
X1477200D01*
X1478490Y618200D01*
X1479460Y617360D01*
X1480260Y616090D01*
X1480900Y614610D01*
X1481060Y612490D01*
X1480900Y610370D01*
X1480260Y608890D01*
X1479460Y607620D01*
X1478490Y606770D01*
X1477200Y606140D01*
X1473990D01*
G01X1490470D02*
Y618840D01*
X1488540Y616300D01*
G01Y606140D02*
X1492400D01*
G01X1500370Y616720D02*
X1501330Y617990D01*
X1502460Y618630D01*
X1503750Y618840D01*
X1505360Y618420D01*
X1506480Y617360D01*
X1506800Y616090D01*
X1506640Y614820D01*
X1506000Y613760D01*
X1502780Y611640D01*
X1501330Y610160D01*
X1500370Y608040D01*
X1500050Y606140D01*
X1506800D01*
G01X1460550Y720600D02*
X1464570Y707900D01*
X1468600Y720600D01*
G01X1473990Y707900D02*
Y720600D01*
X1477200D01*
X1478490Y719960D01*
X1479460Y719120D01*
X1480260Y717850D01*
X1480900Y716370D01*
X1481060Y714250D01*
X1480900Y712130D01*
X1480260Y710650D01*
X1479460Y709380D01*
X1478490Y708530D01*
X1477200Y707900D01*
X1473990D01*
G01X1490470D02*
Y720600D01*
X1488540Y718060D01*
G01Y707900D02*
X1492400D01*
G01X1503420D02*
Y720600D01*
X1501490Y718060D01*
G01Y707900D02*
X1505350D01*
G01X1460550Y822360D02*
X1464570Y809660D01*
X1468600Y822360D01*
G01X1473990Y809660D02*
Y822360D01*
X1477200D01*
X1478490Y821720D01*
X1479460Y820880D01*
X1480260Y819610D01*
X1480900Y818130D01*
X1481060Y816010D01*
X1480900Y813890D01*
X1480260Y812410D01*
X1479460Y811140D01*
X1478490Y810290D01*
X1477200Y809660D01*
X1473990D01*
G01X1490470D02*
Y822360D01*
X1488540Y819820D01*
G01Y809660D02*
X1492400D01*
G01X1503420Y822360D02*
X1502140Y821940D01*
X1501170Y820880D01*
X1500530Y819610D01*
X1500050Y817910D01*
X1499890Y816010D01*
X1500050Y814100D01*
X1500530Y812410D01*
X1501170Y811140D01*
X1502140Y810080D01*
X1503420Y809660D01*
X1504710Y810080D01*
X1505680Y811140D01*
X1506320Y812410D01*
X1506800Y814100D01*
X1506960Y816010D01*
X1506800Y817910D01*
X1506320Y819610D01*
X1505680Y820880D01*
X1504710Y821940D01*
X1503420Y822360D01*
G01X1460550Y924120D02*
X1464570Y911420D01*
X1468600Y924120D01*
G01X1473990Y911420D02*
Y924120D01*
X1477200D01*
X1478490Y923480D01*
X1479460Y922640D01*
X1480260Y921370D01*
X1480900Y919890D01*
X1481060Y917770D01*
X1480900Y915650D01*
X1480260Y914170D01*
X1479460Y912900D01*
X1478490Y912050D01*
X1477200Y911420D01*
X1473990D01*
G01X1490470D02*
Y924120D01*
X1488540Y921580D01*
G01Y911420D02*
X1492400D01*
G01X1503100D02*
X1503420Y914170D01*
X1503910Y916500D01*
X1504550Y918620D01*
X1505360Y920940D01*
X1506640Y924120D01*
X1500210D01*
G01X1456460Y1223170D02*
X1455820Y1222210D01*
X1455400Y1221080D01*
Y1219800D01*
X1456040Y1218350D01*
X1457090Y1217220D01*
X1458360Y1216420D01*
X1460480Y1215770D01*
X1462390Y1215610D01*
X1464290Y1215940D01*
X1465560Y1216420D01*
X1466830Y1217380D01*
X1467680Y1218510D01*
X1468100Y1219630D01*
Y1220760D01*
X1467680Y1221890D01*
X1467040Y1222850D01*
X1466200Y1223660D01*
G01X1457520Y1229530D02*
X1456250Y1230490D01*
X1455610Y1231620D01*
X1455400Y1232910D01*
X1455820Y1234520D01*
X1456880Y1235640D01*
X1458150Y1235960D01*
X1459420Y1235800D01*
X1460480Y1235160D01*
X1462600Y1231940D01*
X1464080Y1230490D01*
X1466200Y1229530D01*
X1468100Y1229210D01*
Y1235960D01*
G01X1462810Y1242480D02*
X1461330Y1243600D01*
X1460480Y1244570D01*
X1460060Y1245860D01*
X1460480Y1246980D01*
X1461330Y1247790D01*
X1462600Y1248430D01*
X1464080Y1248590D01*
X1465350Y1248430D01*
X1466620Y1247790D01*
X1467680Y1246820D01*
X1468100Y1245700D01*
X1467680Y1244410D01*
X1466410Y1243280D01*
X1464500Y1242640D01*
X1462390Y1242480D01*
X1459630Y1242800D01*
X1458150Y1243280D01*
X1456670Y1244090D01*
X1455610Y1245210D01*
X1455400Y1246340D01*
X1455820Y1247470D01*
X1456880Y1248270D01*
G54D13*
G01X124450Y1691850D02*
G03X123200Y1693100I-1250J0D01*
G01D02*
G03X121950Y1691850I0J-1250D01*
G01D02*
G03X123200Y1690600I1250J0D01*
G01D02*
G03X124450Y1691850I0J1250D01*
G01X210050Y606000D02*
G03X208800Y607250I-1250J0D01*
G01D02*
G03X207550Y606000I0J-1250D01*
G01D02*
G03X208800Y604750I1250J0D01*
G01D02*
G03X210050Y606000I0J1250D01*
G01X207000Y770600D02*
G03X205750Y771850I-1250J0D01*
G01D02*
G03X204500Y770600I0J-1250D01*
G01D02*
G03X205750Y769350I1250J0D01*
G01D02*
G03X207000Y770600I0J1250D01*
G01X177850Y786700D02*
G03X176600Y787950I-1250J0D01*
G01D02*
G03X175350Y786700I0J-1250D01*
G01D02*
G03X176600Y785450I1250J0D01*
G01D02*
G03X177850Y786700I0J1250D01*
G01X207000Y846800D02*
G03X205750Y848050I-1250J0D01*
G01D02*
G03X204500Y846800I0J-1250D01*
G01D02*
G03X205750Y845550I1250J0D01*
G01D02*
G03X207000Y846800I0J1250D01*
G01X177850Y850200D02*
G03X176600Y851450I-1250J0D01*
G01D02*
G03X175350Y850200I0J-1250D01*
G01D02*
G03X176600Y848950I1250J0D01*
G01D02*
G03X177850Y850200I0J1250D01*
G01X207000Y910300D02*
G03X205750Y911550I-1250J0D01*
G01D02*
G03X204500Y910300I0J-1250D01*
G01D02*
G03X205750Y909050I1250J0D01*
G01D02*
G03X207000Y910300I0J1250D01*
G01X217700Y921950D02*
G03X216450Y923200I-1250J0D01*
G01D02*
G03X215200Y921950I0J-1250D01*
G01D02*
G03X216450Y920700I1250J0D01*
G01D02*
G03X217700Y921950I0J1250D01*
G01X286200Y1168550D02*
Y1138550D01*
X226200D01*
Y1168550D01*
X286200D01*
G01X229050Y2165500D02*
Y2135500D01*
X169050D01*
Y2165500D01*
X229050D01*
G01X275350Y914250D02*
G03X274100Y915500I-1250J0D01*
G01D02*
G03X272850Y914250I0J-1250D01*
G01D02*
G03X274100Y913000I1250J0D01*
G01D02*
G03X275350Y914250I0J1250D01*
G01X268500Y1839450D02*
G03X267250Y1840700I-1250J0D01*
G01D02*
G03X266000Y1839450I0J-1250D01*
G01D02*
G03X267250Y1838200I1250J0D01*
G01D02*
G03X268500Y1839450I0J1250D01*
G01Y1953750D02*
G03X267250Y1955000I-1250J0D01*
G01D02*
G03X266000Y1953750I0J-1250D01*
G01D02*
G03X267250Y1952500I1250J0D01*
G01D02*
G03X268500Y1953750I0J1250D01*
G01Y1896600D02*
G03X267250Y1897850I-1250J0D01*
G01D02*
G03X266000Y1896600I0J-1250D01*
G01D02*
G03X267250Y1895350I1250J0D01*
G01D02*
G03X268500Y1896600I0J1250D01*
G01X383350Y643550D02*
G03X382100Y644800I-1250J0D01*
G01D02*
G03X380850Y643550I0J-1250D01*
G01D02*
G03X382100Y642300I1250J0D01*
G01D02*
G03X383350Y643550I0J1250D01*
G01X379250Y1507450D02*
G03X378000Y1508700I-1250J0D01*
G01D02*
G03X376750Y1507450I0J-1250D01*
G01D02*
G03X378000Y1506200I1250J0D01*
G01D02*
G03X379250Y1507450I0J1250D01*
G01X373400Y1959900D02*
G03X372150Y1961150I-1250J0D01*
G01D02*
G03X370900Y1959900I0J-1250D01*
G01D02*
G03X372150Y1958650I1250J0D01*
G01D02*
G03X373400Y1959900I0J1250D01*
G01Y2017050D02*
G03X372150Y2018300I-1250J0D01*
G01D02*
G03X370900Y2017050I0J-1250D01*
G01D02*
G03X372150Y2015800I1250J0D01*
G01D02*
G03X373400Y2017050I0J1250D01*
G01Y2074200D02*
G03X372150Y2075450I-1250J0D01*
G01D02*
G03X370900Y2074200I0J-1250D01*
G01D02*
G03X372150Y2072950I1250J0D01*
G01D02*
G03X373400Y2074200I0J1250D01*
G01Y2131350D02*
G03X372150Y2132600I-1250J0D01*
G01D02*
G03X370900Y2131350I0J-1250D01*
G01D02*
G03X372150Y2130100I1250J0D01*
G01D02*
G03X373400Y2131350I0J1250D01*
G01X409850Y1670800D02*
G03I-1250J0D01*
G01X425050Y2161550D02*
G03X423800Y2162800I-1250J0D01*
G01D02*
G03X422550Y2161550I0J-1250D01*
G01D02*
G03X423800Y2160300I1250J0D01*
G01D02*
G03X425050Y2161550I0J1250D01*
G01X613400Y764250D02*
G03X612150Y765500I-1250J0D01*
G01D02*
G03X610900Y764250I0J-1250D01*
G01D02*
G03X612150Y763000I1250J0D01*
G01D02*
G03X613400Y764250I0J1250D01*
G01X579650Y941500D02*
G03X578400Y942750I-1250J0D01*
G01D02*
G03X577150Y941500I0J-1250D01*
G01D02*
G03X578400Y940250I1250J0D01*
G01D02*
G03X579650Y941500I0J1250D01*
G01X617750D02*
G03X616500Y942750I-1250J0D01*
G01D02*
G03X615250Y941500I0J-1250D01*
G01D02*
G03X616500Y940250I1250J0D01*
G01D02*
G03X617750Y941500I0J1250D01*
G01X693950D02*
G03X692700Y942750I-1250J0D01*
G01D02*
G03X691450Y941500I0J-1250D01*
G01D02*
G03X692700Y940250I1250J0D01*
G01D02*
G03X693950Y941500I0J1250D01*
G01X655850D02*
G03X654600Y942750I-1250J0D01*
G01D02*
G03X653350Y941500I0J-1250D01*
G01D02*
G03X654600Y940250I1250J0D01*
G01D02*
G03X655850Y941500I0J1250D01*
G01X1118000Y1117000D02*
G03X1116750Y1118250I-1250J0D01*
G01D02*
G03X1115500Y1117000I0J-1250D01*
G01D02*
G03X1116750Y1115750I1250J0D01*
G01D02*
G03X1118000Y1117000I0J1250D01*
G01X1144350Y1185050D02*
G03X1143100Y1186300I-1250J0D01*
G01D02*
G03X1141850Y1185050I0J-1250D01*
G01D02*
G03X1143100Y1183800I1250J0D01*
G01D02*
G03X1144350Y1185050I0J1250D01*
G01X1107250Y1342000D02*
G03X1106000Y1343250I-1250J0D01*
G01D02*
G03X1104750Y1342000I0J-1250D01*
G01D02*
G03X1106000Y1340750I1250J0D01*
G01D02*
G03X1107250Y1342000I0J1250D01*
G01X1245050Y1003450D02*
Y973450D01*
X1185050D01*
Y1003450D01*
X1245050D01*
G01X1262300Y1067700D02*
G03X1261050Y1068950I-1250J0D01*
G01D02*
G03X1259800Y1067700I0J-1250D01*
G01D02*
G03X1261050Y1066450I1250J0D01*
G01D02*
G03X1262300Y1067700I0J1250D01*
G01X1304100Y1328800D02*
G03X1302850Y1330050I-1250J0D01*
G01D02*
G03X1301600Y1328800I0J-1250D01*
G01D02*
G03X1302850Y1327550I1250J0D01*
G01D02*
G03X1304100Y1328800I0J1250D01*
G01X1463750Y275500D02*
X1447750D01*
G01X1463750Y377100D02*
X1447750D01*
G01X1463750Y478700D02*
X1447750D01*
G01X1463750Y580300D02*
X1447750D01*
G01X1463750Y681900D02*
X1447750D01*
G01X1463750Y783500D02*
X1447750D01*
G01X1463750Y885100D02*
X1447750D01*
G01X1463750Y986700D02*
X1447750D01*
G01X1398350Y1299350D02*
G03X1397100Y1300600I-1250J0D01*
G01D02*
G03X1395850Y1299350I0J-1250D01*
G01D02*
G03X1397100Y1298100I1250J0D01*
G01D02*
G03X1398350Y1299350I0J1250D01*
G01X1455750Y267500D02*
Y283500D01*
G01Y369100D02*
Y385100D01*
G01Y470700D02*
Y486700D01*
G01Y572300D02*
Y588300D01*
G01Y673900D02*
Y689900D01*
G01Y775500D02*
Y791500D01*
G01Y877100D02*
Y893100D01*
G01Y978700D02*
Y994700D01*
M02*
